<?xml version="1.0" encoding="utf-8"?>
<!-- Generator: Adobe Illustrator 22.1.0, SVG Export Plug-In . SVG Version: 6.00 Build 0)  -->
<svg version="1.1" id="Layer_1" xmlns="http://www.w3.org/2000/svg" xmlns:xlink="http://www.w3.org/1999/xlink" x="0px" y="0px"
	 viewBox="0 0 603 174" style="enable-background:new 0 0 603 174;" xml:space="preserve">
<style type="text/css">
	.st0{fill:#FFFFFF;}
</style>
<g id="HhmM4b_1_">
	<g>
		<path class="st0" d="M0.2,105.1c0-47.2,0-94.4,0-141.7c201,0,402,0,603,0c0,33.6,0,67.1,0,100.6c-0.9,0.4-1.8,0.7-2.6,1.2
			c-13.5,6.4-17.6,6-27.9-3.5c-12.6-11.6-25.1-23.3-37.5-35.1c-10.8-10.2-10.7-10.3-26.3-5.8c-1.9,0.5-3.8,1.2-5.4,2.1
			c-10.7,6-21.4,6.9-32.1,0.1c-0.6-0.4-1.4-0.6-2.1-0.9c-8.7-4.6-16.9-5.1-24.6,1.7c-1.9,1.7-4.3,2.9-6.7,4.1
			c-14.1,7.7-26.7,17.3-43.8,21.1c-4.5,1-8.1,0.7-12-1.2c-10.5-4.8-17.9-11.9-23.8-20.2c-5.3-7.4-8-8.9-17.4-6.6
			c-6.2,1.5-10.5,0-14.9-2.7c-2.4-1.5-4.4-3.3-6.8-4.8C312.6,9,305.7,4.7,298.2,0c-2.8,4.4-5,7.5-6.7,10.7
			c-7,13.7-16.5,26-29.4,36.6c-8.2,6.8-8.1,6.9-17.8,1.4c-5.3-3-8-2.6-12.4,1.3c-6.2,5.5-12.1,11.4-19,16.2c-3,2.1-8.8,3.4-12.6,2.6
			c-5.2-1.1-10.3-3.9-14.2-7c-11.7-9.3-22.6-19.3-34.4-28.6c-3.1-2.4-9-4.9-12.5-4.1c-6.1,1.4-11.2,5.4-16.9,8.1
			c-6.2,2.9-8.5,8.6-14.4,12.1c-9.2,5.5-16.7,13-25,19.7c-9.1,7.3-19.6,9.7-32,6.2c-2.9-0.8-7.1-1.8-9.1-0.7
			c-7,3.7-13.6,8-19.8,12.6C14.6,92.8,7.5,99.1,0.2,105.1z"/>
		<path d="M0.2,105.1c7.3-6,14.4-12.2,22.1-17.9C28.4,82.5,35,78.2,42,74.5c2-1.1,6.2-0.1,9.1,0.7c12.4,3.4,22.9,1.1,32-6.2
			c8.2-6.6,15.7-14.1,25-19.7c5.9-3.5,8.2-9.2,14.4-12.1c5.7-2.7,10.8-6.7,16.9-8.1c3.5-0.8,9.4,1.7,12.5,4.1
			c11.8,9.2,22.6,19.3,34.4,28.6c3.9,3.1,9,5.9,14.2,7c3.7,0.8,9.5-0.5,12.6-2.6c7-4.8,12.8-10.7,19-16.2c4.4-3.9,7-4.3,12.4-1.3
			c9.8,5.5,9.6,5.4,17.8-1.4c12.8-10.6,22.4-22.9,29.4-36.6c1.7-3.3,3.9-6.3,6.7-10.7c7.5,4.8,14.4,9.1,21.2,13.4
			c2.3,1.5,4.4,3.4,6.8,4.8c4.4,2.7,8.7,4.2,14.9,2.7c9.5-2.2,12.2-0.8,17.4,6.6c5.9,8.3,13.3,15.4,23.8,20.2
			c3.9,1.8,7.5,2.1,12,1.2c17.1-3.7,29.7-13.4,43.8-21.1c2.3-1.3,4.8-2.5,6.7-4.1c7.6-6.8,15.8-6.3,24.6-1.7
			c0.7,0.4,1.5,0.5,2.1,0.9c10.7,6.9,21.4,5.9,32.1-0.1c1.6-0.9,3.5-1.5,5.4-2.1c15.6-4.5,15.5-4.5,26.3,5.8
			c12.4,11.7,24.8,23.5,37.5,35.1c10.3,9.5,14.4,9.9,27.9,3.5c0.9-0.4,1.8-0.8,2.6-1.2c0,1.3,0,2.6,0,3.9c-5.9,1.8-12,3.3-11.2,10.2
			c0.2,1.9-1.8,3.9-2.7,5.8c-0.8,1.7-1.5,3.4-2.6,5.9c7.5-1.8,9.9-5.6,11.4-10.4c0.8-2.7,3.3-5.1,5.1-7.6c0,1,0,2,0,2.9
			c-1.1,1.7-2.3,3.4-3.4,5.2c-1.8,2.9-2.8,6.2-5.3,8.5c-1.9,1.7-5.7,2.1-8.7,3.1c0.4-2.3,0.5-4.5,1.1-6.7c0.4-1.6,1.7-2.9,2.3-4.5
			c0.3-0.8-0.3-1.8-0.4-2.7c-0.7-0.3-1.3-0.5-2-0.8c-1.3,12-16.5,13.6-24.4,22.3c9.7-0.8,17.9-1.3,25,3.1c4.7,2.9,9.8,4.9,15.8,4.7
			c0,1.6,0,3.3,0,4.9c-4.1-0.8-8.2-1.6-12.3-2.3c-0.3,0.4-0.6,0.9-0.9,1.3c4.4,4.3,8.8,8.5,13.2,12.8c0,0.7,0,1.3,0,2
			c-5.6-4.9-11.2-9.9-16.8-14.8c-0.4,0.2-0.7,0.5-1.1,0.7c0.4,2.2,0.7,4.4,1.1,6.7c-0.3,0-0.5,0.1-0.8,0.1c-1-2.3-2.1-4.7-3.4-7.7
			c-5.1,5.1-9,10.4-17.1,10.7c-0.6-0.5-1.2-0.9-1.8-1.4c3.9-4,7.9-8,12.7-12.9c-8.2-0.6-16-1.7-23.9-1.6c-7.9,0.1-8.3,1-6.2,7.4
			c0.1,0.2-0.3,0.6-0.9,1.9c-5.1-0.5-10.5-1-15.9-1.5c-6.4-0.6-7.7,0.3-6.9,5.4c0.2,1.1,0.8,2.2,0.7,3.4c-0.1,2.5-0.4,4.9-0.7,7.4
			c-3.1-1.4-6.4-2.7-9.3-4.4c-1.3-0.8-1.7-2.6-2.7-3.8c-2.8-3.3-5.3-6.8-8.6-9.8c-4.9-4.5-10.4-8.6-15.6-12.9
			c-5.7-4.7-12.3-7.2-20.6-6.1c-5.9,0.8-11.8,1.5-19.4,2.4c12.5,6.8,23.2,13.5,37.5,14.2c1.5,0.1,3.4,0.4,4.2,1.2
			c6.4,6.2,12.8,12.4,18.8,18.8c3.8,4.1,7.1,8.6,11.2,13.6c-6.8-2.6-12.8-4.8-18.7-7.1c-9.2-3.6-14.6-9.2-14.6-17.8
			c0-0.9-0.6-1.7-1.1-2.8c-5.3,2.8-7.8,6.4-7.8,11.2c0,2.1,0.6,4.5-0.4,6.3c-1.9,3.2,0.1,4.6,2.9,5.7c7.4,2.9,15,5.5,22.3,8.5
			c10.8,4.4,21.5,5.3,33,1.5c4.8-1.6,10.5-1.8,15.8-1.6c2.8,0.1,5.5,2.5,8.3,3.8c-2.5,1.3-5,2.6-7.5,3.9c-0.2,0.1-0.2,0.4-0.3,0.6
			c1.1,0,2.1,0.1,3.1,0c16.6-2.8,33.1-5.4,49.8-0.6c0.2,0,0.4-0.1,0.6-0.1c0,1,0,2,0,2.9c-11.9-3.8-23.9-5.1-36.5-2.3
			c-5.6,1.2-11.4,1.8-17.2,2.2c-2.1,0.2-4.4-1-6.5-1.5c1.8-1,3.5-2.1,5.5-2.9c1.9-0.7,4-1,7.3-1.8c-7.9-3.5-14.6-3.5-21.4-1.1
			c-7.3,2.5-14.7,4-22.8,2c-14.2-3.5-27.7-8.2-40.7-14.5c1.9,2.8,4.1,5.6,7,7.7c4.2,3,9.1,5.4,13.5,8.2
			c18.1,11.5,38.8,11.5,59.6,7.5c11.2-2.2,21.9-3.4,33.2-2c6.3,0.8,12.7,1,19.1,1.5c0,0.7,0,1.3,0,2c-6-0.5-11.9-1.2-17.9-1.3
			c-8.9-0.2-18.4-1.4-26.7,0.5c-11.9,2.7-23.6,2.8-35.6,2.8c-14.9,0-26.5-5.2-37.5-12.5c-3.7-2.5-7.8-4.5-13.1-7.5
			c2.8,6.7,7.5,10.4,13.5,12.2c11,3.3,18.6,10.1,26.8,16.1c2,1.5,3.6,3.6,4.4,5.7c2,5.2,3,10.7,5.1,15.9c0.6,1.6,3,3.5,5,4
			c11,2.4,21.9,3.1,32.9-1c11.6-4.4,23.2-1.2,34.6,1.2c0.6,0.1,1,0.8,2.4,2.1c-6.2,0.3-11.3,0.6-16.4,0.8c0,0.3-0.1,0.6-0.1,0.9
			c7.6,2.3,15.1,4.7,22.7,7c0,0.7,0,1.3,0,2c-9.6-3.1-19.1-6.3-28.7-9.4c0.2-0.6,0.4-1.3,0.5-1.9c4.9,0,9.7,0,14.6,0
			c0-0.6,0-1.2,0-1.8c-7.7-0.4-15.7-2-22.9-0.7c-10.5,1.8-20.2,6.4-31.7,4.9c4.2,1.6,8.4,3.2,12.6,3.2c18,0,34.8,3.7,51,9.6
			c1.4,0.5,3.1,0.8,4.6,1.1c0,0.7,0,1.3,0,2c-9.2-2.9-18.2-6.1-27.5-8.6c-4.7-1.2-9.8-1.3-14.8-1.8c-7.7-0.8-15.5-1.4-23.1-2.3
			c-2.8-0.3-5.4-1.3-8.1-2c-0.3,0.4-0.5,0.7-0.8,1.1c4.9,3,9.6,6.2,14.6,9c4.9,2.8,11.2,4.5,14.8,8.1c5.1,5,8.3,11.3,12.3,17
			c-0.8,0-1.6,0-2.4,0c-3.1-4.8-6.1-9.6-9.4-14.3c-0.6-0.9-2.5-2-3.3-1.8c-7.5,2.1-11.2-2.6-16.1-5.4c-3.6-2-7.6-3.4-12.4-5.5
			c5.7,9.8,10.8,18.4,15.8,27c-1.6,0-3.2,0-4.8,0c-4.5-5.7-9-11.4-14-17.7c-1.4,3.8-2.6,7.1-4.2,11.2c-5.3-4.5-5.4-8.9-4.4-13.4
			c1.2-5.4,2.9-10.8,3.4-16.3c0.2-2.2-1.7-5.5-4-6.8c-6.5-3.7-10.4-8.2-11.7-14.6c-1.4-7.1-8-10.8-17.5-10.4c1.5,8,2.8,16.1,4.7,24
			c1.8,7.9,4.2,15.7,6.3,23.6c-8-2.5-19.6-19-20.3-27.9c4.5,7.1,9.2,14.6,14,22.2c0.5-0.2,0.9-0.4,1.4-0.6
			c-2.9-13.3-5.5-26.6-8.7-39.8c-1-4.3,0.8-4.9,5.3-4.2c10.6,1.7,16.1,5.7,17.9,14.8c1.2,6,5.7,9.2,12.8,11.9
			c-1.7-4.6-4.1-8.4-4.3-12.3c-0.3-5.6-3.8-9.2-8.7-12.2c-11.2-6.7-22.6-13-34.8-20c0,9.6,0,18.6,0,28.4
			c-5.6-14.6,1.2-29.3-4.6-43.8c-6.4,4.1-10.9,8.6-13.4,14.2c-2.5,5.7-3.7,11.9-7.3,17c-4.9,7-11.6,13.3-18.7,21.2
			c4.8,5.8,10,13.4,16.8,19.9c11.4,10.9,23.9,21,35.9,31.5c-2,0-4,0-6,0c-5-3.9-9.2-9.4-15.1-11.2c-6.3-1.8-11-4-14.7-8.3
			c-1.2-1.4-2.8-2.5-4.8-4.2c-1.3,7-2.1,12.9,2,18.6c1.1,1.5,1.6,3.3,2.3,5c-0.8,0-1.6,0-2.4,0c-2.2-6.3-5.5-11.6-13.2-14.9
			c-3-1.3-5.2-4-7.3-6.3c-6.8-7.6-14.7-14.1-24.4-19.3c-4.1-2.2-7.9-5.1-11.2-8.1c-4.2-3.8-3.9-4-9.7-1.7c1,1.8,2.4,3.5,2.9,5.3
			c2.7,9.3,5,18.7,7.7,28.1c1.7,5.7,3.8,11.3,5.8,16.9c-0.8,0-1.6,0-2.4,0c-1.3-3.4-2.7-6.8-3.7-10.2c-3.1-10.7-6.1-21.5-9.1-32.3
			c-0.9-3.1-2.1-6.5-6.6-6.7c-7.3-0.4-14.7-0.1-23.1-0.1c0.3,4,0.2,7.2,1,10.3c1.3,5.4,5.6,9.3,11.1,12.2
			c12.5,6.8,20.8,16.4,28,26.8c-0.8,0-1.6,0-2.4,0c-9.1-13.6-23.1-23.4-38-33c-9.3,7.9-19,15.9-28.3,24.2c-2.7,2.4-4.1,5.8-6.1,8.8
			c-1.2,0-2.4,0-3.6,0c3.4-4.2,6.3-8.7,10.3-12.5c7.1-6.7,14.9-12.8,22.2-19.3c1.8-1.6,2.7-4,3.7-5.6c-3.8-1.8-7.5-2.5-8.9-4.4
			c-3.3-4.4-7-3.5-11-1.5c-3.9,2-7.5,4.3-11.4,6.4c-5.1,2.8-10.1,5.9-15.6,8.2c-5.9,2.5-12,4.1-19,2.2c-3.7-1-8.1-0.2-12.8-0.2
			c2.4,5.2,4.2,9.3,6.2,13.3c0.4,0.8,1.6,1.3,2.5,1.9c5.7,3.8,11.3,7.6,17,11.4c-1.2,0-2.4,0-3.6,0c-4.6-3.2-9.4-6.2-13.9-9.6
			c-2.1-1.6-3.9-3.7-5.3-5.8c-1.9-2.8-3.4-5.9-5-8.8c-0.6,0-1.2,0.1-1.8,0.1c-5,8-10,16.1-15,24.1c-2.4,0-4.8,0-7.2,0
			c2.4-4.6,5.7-9,7.1-13.8c2.4-8.3,6.6-15.6,13.6-21.9c6.7-6,13.4-12.1,20.1-18.2c5.6-5.2,9.3-11.1,11.1-17.3c-24.7,0-49,0-73.7,0
			c2.7,5.8,5.5,11.3,7.9,16.9c2.6,6,1.6,11.5-3.9,16.3c-2,1.8-4.4,3.9-4.8,6.1c-2.1,10.6-8,20.9-3.9,32c-0.8,0-1.6,0-2.4,0
			c-1.4-7.4-2.8-14.9-4.2-22.4c-5.1,1.3-6.2,4.6-6.3,8.3c-0.2,4.7-0.2,9.4-0.3,14.1c-0.8,0-1.6,0-2.4,0c0-3.2,0-6.5,0-9.7
			c-0.4-0.1-0.9-0.1-1.3-0.2c-2.4,3.3-4.8,6.6-7.1,9.9c-1.2,0-2.4,0-3.6,0c4.6-7.3,9.1-14.7,13.9-22c3.3-5,6.7-9.9,10.5-14.7
			c2.6-3.2,6.2-6,9.1-9.1c5.2-5.6,4.5-10.2-1.5-15.2c-3.2-2.7-6.5-5.4-8.7-8.6c-2.6-3.7-5.1-8,1.1-11.6c1.2-0.7,1.7-2.5,2.2-3.9
			c1.6-4.3,2.8-8.7,4.8-12.8c1.3-2.7,1.2-4.4-2.2-6c-4.8-2.3-9.5-4.9-13.9-7.7c-9.2-5.8-12-5.4-17.4,3.3c-1.3,2-2,4.3-2.6,6.5
			c-1,4-1.5,8.1-2.6,12c-0.9,3.2-2.4,6.2-3.6,9.3c-0.7,0-1.4,0-2.1,0c-2.1-4.6-4.1-9.1-6.5-14.4c-4.5,0.8-9.7,1.8-15.4,2.8
			c2.5,4.3,3.5,8.9,6.8,11.3c10.6,7.6,22.1,14.4,33.1,21.6c1.7,1.1,4.1,3.1,3.8,4.3c-3.1,11.6-5.6,23.4-16,32.7
			c-5.5,4.9-8.1,10.7-7.8,17.4c0.1,1.6-0.5,3.2-0.7,4.8c-0.8,0-1.6,0-2.4,0c-0.2-10.5,4.2-19.3,12.6-27.6c5-5,7-12,10.3-18.1
			c-1-0.5-1.9-1-2.9-1.4c-4.6,4.7-10.9,8.9-13.4,14.2c-2.6,5.6-5.4,10.6-10.5,15c-6.6,5.8-12.8,12-19.1,18c-1.2,0-2.4,0-3.6,0
			c7.3-6.7,14.7-13.3,21.7-20.1c3-2.9,6.6-6.3,7.2-9.8c1.1-6.5,6-10.3,11.4-14.3c3.9-2.9,7.2-6.5,10.2-9.3
			c-12.7-5-24.1-9.6-35.6-14.2c3.5,19.8-11.4,33.1-26.2,45.6c2,3.1,4.3,5.5,5.4,8.3c1.6,4.5,2.4,9.2,3.5,13.8c-0.8,0-1.6,0-2.4,0
			c-3.6-5.8-0.5-13.6-8.3-19.4c-1.9,7.3-3.4,13.3-5,19.4c-0.8,0-1.6,0-2.4,0c0.7-2,1.1-4.1,2-6.1c4.8-10.6,2.6-19.3-8.5-26.8
			c-3.9-2.7-7.6-7.8-7.4-11.7c0.3-7.4-4.2-10.4-11.2-13.1c-2.6-1-4.8-2.8-7.9-4.6c-0.4,4.5-0.6,8.5-1,12.5
			c-0.6,6.9-3.7,12.5-12.6,14.9c-2.4,0.7-4.6,2.1-6.5,3.5c-6,4.4-10.3,9-8.3,16.6c1.2,4.7-0.8,9.9-1.4,14.9c-1.2,0-2.4,0-3.6,0
			c3.5-6.2,3.2-12.2-0.4-19.2c-5.1,7-9.6,13.1-14.1,19.2c-0.8,0-1.6,0-2.4,0c3.8-5.3,7.7-10.6,11.2-16c1-1.6,2.1-3.8,1.5-5.4
			c-3.8-10.6-8.1-21.1-12.1-31.6c-1.3-3.4-3.5-3.5-6.7-1.9c-5.3,2.5-7.2,6.2-6.5,11.1c0.3,2.7,0.7,5.7-0.4,8.1
			c-0.8,1.7-4.4,3.6-6.5,3.4c-1.9-0.2-5-3.4-4.6-4.8c1.2-5,3.4-9.9,5.7-14.7c1.2-2.4,3.3-4.6,5.8-7.9c-9.2,3.6-14.4,8.2-16.7,14.8
			c-2.7,8.1-5.4,16.3-8.1,24.4c0-3.3,0-6.5,0-9.8c0.7-1.5,1.8-2.9,2.2-4.4c2.7-10.8,7.7-20.2,20-26.5c8.8-4.5,11.7-11.7,8.4-20
			c-2.3,0.8-4.3,1.8-6.6,2.4c-5.6,1.3-8.7,3.8-11,8.5c-3.1,6.3-8.5,11.8-12.9,17.6c0-1,0-2,0-2.9c3.8-5.4,8.5-10.5,11.3-16.3
			c2.1-4.5,5.2-7,10.5-8.4c7-1.8,9.2-4.6,9.2-11.5c-9.7,3.2-18.3,7-22.3,15.6c-1.7,3.6-5.7,6.5-8.6,9.7c0-1,0-2,0-2.9
			c2.3-2.6,5.5-4.9,6.9-7.7c3.5-7,9.7-11.2,17.9-14.3c3.8-1.4,7.8-3.9,9.9-6.8c5.2-7.1,9.1-14.5,7.5-23.4
			c-1.9-10.9-1.5-21.8,5.7-31.7c3-4.1,0.6-5.8-4.6-7c-1.1,1.9-2.4,3.7-3.3,5.6c-4.8,9.6-9,19.5-14.6,28.9
			c-5.7,9.5-12.6,18.5-25.3,23.2c0-2.3,0-4.6,0-6.8c2.1-0.9,4.2-1.9,6.4-2.7c9.9-3.9,11.7-6.7,9.8-16c-5.3,3.6-10.8,7.2-16.2,10.9
			c0-1,0-2,0-2.9c4.5-3.4,9-6.8,13.6-10.1c1-0.7,3-1.6,3.9-1.3c1.1,0.4,1.9,2,2.1,3.1c0.3,2-0.1,4-0.2,5.9c0.6,0.1,1.1,0.2,1.7,0.3
			c5.5-11,10.9-22,16.9-34C24.6,91.4,12.4,100.2,0.2,109C0.2,107.7,0.2,106.4,0.2,105.1z M428.2,204.5c-1.4-6.5-4.4-13.2-3.8-19.6
			c0.6-6.3,5-12.4,7.7-18.5c-0.3-0.3-0.6-0.6-0.9-0.9c-4.1,1.7-8.3,3.5-12.4,5.2c-2.5,1-4.9,2-7.5,2.8c-6,1.7-12.4,2.8-18,5.1
			c-9.1,3.8-9.4,7.4-2.1,13c1.6,1.2,3.3,2.5,5.1,3.4c11.5,5.7,20.7,13.3,28.4,22.2c1.3,1.6,3.4,2.7,5.6,4.5
			c-0.8-6.4-1.5-11.9-2.2-17.3c2,6.4,3.9,12.7,5.9,19.1c0.8-0.1,1.5-0.2,2.3-0.3c0.4-3.8,0.7-7.6,1.1-11.4c0.7-0.2,1.4-0.4,2.1-0.6
			c3.3,3.1,6.1,6.7,10,9.2c3.7,2.4,8.5,3.5,12.8,5.2c0.1-0.4,0.3-0.7,0.4-1.1c-11.6-10.3-23.3-20.6-34.5-30.6
			C428.2,196.8,428.2,200.6,428.2,204.5z M84.3,162.5c3,1.3,5.9,2.7,9,3.9c16.3,6.3,25.7,16.6,28,31.3c0.9,5.5,3,10.9,4.5,16.3
			c1.3-0.2,1.8-0.1,2.1-0.3c13.6-7.8,20.9-19.1,26-31.5c0.4-1-0.2-2.5-0.9-3.6c-4.8-7.9-7.9-15.8-5.8-24.9c1.5-6.6,0.5-6.8-7.4-8.7
			c-6.3-1.5-12.8-2.9-18.4-5.6c-3.8-1.8-7-3.3-11.5-3c-6.8,0.3-12.9-0.8-16.1-6.5c-1.1-1.9-2.4-3.7-3.6-5.7
			c-2.8-4.9-7.7-7.5-14.2-7.8c-4.2-0.2-8.4,0.8-12.6,0.7c-10.1-0.4-13.8,5.1-17.2,11.3c-3.3,6,2.7,8.4,6.4,11.2
			c10.3,7.9,21.2,15.3,31.8,23c-4-2-8.3-3.7-12-6.1c-6.8-4.5-13.1-9.4-19.6-14.1c2.1,5.6,4.7,10.7,7.7,15.8
			c3.7,6.3,7.6,12.5,11.8,18.6c1.3,1.9,3.7,3.5,6.1,4.5c3.3,1.4,6,0.7,5.8-3c-0.1-2.5-0.5-5-0.8-7.8c1.5,0.3,2.6,0.3,3.3,0.7
			c6.2,3.8,12.2,7.6,18.4,11.4c3.1,1.9,4.8,3.9,4,7.4c-1.2,5.7,3.9,12.6,10.9,15.5c-1-4.2-2-8-2.8-11.8c-2.1-10.7-9.3-18.4-20.5-24
			C92.5,167.5,88.5,164.9,84.3,162.5z M441.1,89c0.6,0.4,1.3,0.9,1.9,1.3c3.2-0.9,6.9-1.3,9.4-2.8c9.5-5.8,18.8-4.1,28.3-0.4
			c3.6,1.4,7.3,2.8,10.9,4.2c9.1,3.5,18.1,7.1,27.3,10.4c2.6,0.9,6.9,1.7,8.4,0.7c8.3-5.5,16.8-4.1,25.7-1.9
			c1.6,0.4,4.6,0.2,5.2-0.6c4.7-5.9,12.2-8.8,18.5-12.9c3.8-2.5,6.6-6.7,7.9-10.5c0.5-1.6-3.7-4.6-6.3-6.5
			c-6.6-5-13.5-9.7-19.3-13.9c3.7,6.1,8.1,13.2,12.4,20.4c-12.4-5.9-17.7-16.4-25.8-26.1c-0.2,7.7,5.6,13.9,3.3,22.3
			c-2.1-2.3-3-3.2-3.9-4.3c-6.7-7.7-9.3-16.4-10.8-25.6c-0.9-5.7-2.1-11.6-7.1-17.9c-2.3,8.9-8.2,13.6-16.3,16.6
			c-0.7-0.4-1.3-0.7-2-1.1c2.5-3.8,5.1-7.7,8.6-12.9c-4.6,1.8-8.4,2.5-10.7,4.4c-6.1,4.9-11.7,10.2-17.2,15.5
			c-4,3.8-7.7,7.9-11.7,11.7c-1.3,1.2-3.2,1.9-4.8,2.9c-0.6-1.8-0.2-2.8,0.4-3.8c3.5-6.2,7.7-12.2,10.5-18.6
			c3.2-7.2-5.5-14.3-16.4-12.7c3.7,2.4,6.7,4.4,9.7,6.4c4.4,2.8,4.1,5.4-1,7.2c-2.9,1.1-6.3,1.5-8.9,2.9c-1.8,1-3.9,3.4-3.6,4.8
			c1.4,5.9-2,10.2-5.5,14.9C452.1,71.5,446.8,80.4,441.1,89z M111.9,125c0.3-0.3,0.7-0.6,1-1c3.7,2.4,7.5,4.7,11.1,7.2
			c1.5,1,2.6,2.5,4.1,3.6c16.3,12,24.8,11.3,38.7,0.6c6.4-4.9,13.2-9.5,19.7-14.4c3.6-2.7,6.5-2.4,10.5,0.1
			c7.4,4.6,15.2,9.1,23.4,12.7c8.3,3.7,13.9,1.3,18.7-5.2c4.4-6.1,10-11.7,15.1-17.4c1.5-1.7,3.8-3.1,4.8-5c3-5.4,8.5-7.1,15.1-8.4
			c10.1-2,20-4.8,31.1-7.6c-4.1-2.5-6.6-4.4-9.4-5.8c-6.3-3.1-12.6-6.3-19.3-8.8c-5.6-2.1-7.9-0.8-9.6,4c-0.8,2.2-1.3,4.6-2.9,6.4
			c-1.4,1.6-4,2.6-6.1,3.9c-1.2-2-3.4-4-3.3-6.1c0.1-6.3,3.7-11.5,9.2-15.9c1-0.8,1.4-3.1,0.7-4c-0.8-1-4.4-2-4.7-1.7
			c-5.3,5.3-14.3,8.2-15.1,16.3c-0.3,3.3-1.7,6.7-3.4,9.8c-4,7.6-8.4,15.1-12.9,22.6c-0.8,1.3-2.3,2.3-4.3,4.2
			c0.5-7.1,0.9-12.9,1.4-19.1c-2.2,1.2-3.8,2.4-5.8,3.1c-1.6,0.6-3.5,0.8-5.2,1.2c0.5-1.6,0.5-3.5,1.6-4.6c4.4-4,9.5-7.5,13.6-11.7
			c2.8-2.8,5.2-6.1,6.4-9.4c1.8-5.3,3.7-10.2,8.6-14.2c1.4-1.1,2.8-4.2,2-4.8c-2.3-2.1-5.5-3.8-8.7-4.8c-0.8-0.3-4.1,2.4-4.6,4.1
			c-1.7,5.3-2.3,10.9-4.2,16.2c-0.9,2.5-3.5,6-6,6.5c-9,1.6-13.1,6.7-17.3,12.5c-8,11.2-18.8,20.3-34.6,24c-13,3-25.9,6-36.7,13
			c-0.4,0.2-1.1,0-2,0c-0.1-0.6-0.5-1.3-0.3-1.8c2.3-6.8,12.2-17.7,25.6-17.1c4.2,0.2,8.5,0,12.6-0.4c3.6-0.4,7-1.3,10.5-2
			c0-0.5,0-1,0-1.6c-14.8-4.4-29.6-8.9-44.5-13c-1.4-0.4-4.6,1.3-5.5,2.6c-6.6,10.1-12.9,20.4-19.3,30.7
			C111.8,124.7,111.9,124.9,111.9,125z M384.8,159.3c6.1,1.2,12.4,1.3,17.2,3.5c7.4,3.3,12.8,1.5,19.2-1.5
			c12.9-6.1,25.8-11.6,34.7-22c3.7-4.4,9.1-8.3,17.2-8.4c-0.3-7.4,1.7-13.9,8.5-18.6c-12.7-5.2-24.8-10.1-36.9-15.1
			c-7.6,7.6-9.9,12-11.7,21.7c-0.8,4.4-2.4,8.5-7.5,11.7c-4.4-9.6,1.3-17.2,4.1-26.1c-3,1.6-5.3,2.4-7,3.8
			c-9.8,8-22.2,11.9-34.7,16.1c-5.9,2-11.2,5.4-16.3,8.7c-3.7,2.4-7,3.9-12,2.6c-3.6-1-7.7-0.8-12.2-1.3c0.6,3.1,1,5.4,1.5,7.5
			c1.6,6.6,6.1,9.6,14.4,9c4.1-0.3,8.2-1.5,12.2-2.5c6.3-1.6,12.5-3.6,18.9-4.9c3.4-0.7,7.5-1.7,10.4,2.2
			C398.4,150.5,387.7,151.2,384.8,159.3z M56.6,81.7c0,3.1,0.6,6-0.1,8.7c-1.2,4.2-3.5,8.3-4.9,12.5c-0.5,1.4-0.1,3.3,0.8,4.6
			c3.6,5.5,7.2,6.6,13.6,3.2c6.4-3.4,11.9-3.7,17.9,0.4c2.5,1.7,5.7,3.3,8.9,3.9c7.9,1.6,15.2-3.3,18.5-10.9
			c1.2-2.8,4.1-5.3,6.7-7.6c2.2-1.9,5.4-2.9,7.7-4.6c3.9-2.9,8.2-4.2,13.2-3c8.1,1.8,13-2.7,17.4-6.5c1.6-1.4-0.3-5.5-0.7-8.3
			c-0.1-1-0.4-1.9-0.5-2.9c-0.6-9.1-1.3-18.1-1.8-27.2c-0.3-5.3-4.3-9.9-10.9-10.6c-6.3-0.7-8.3,3.6-10.4,7.3c-1,1.8-1.5,3.7-2,5.6
			c-4.9,16.7-14.7,31.6-26.8,45.5c-0.7,0.8-1.7,1.5-2.6,2.3c-0.3-0.1-0.6-0.3-1-0.4c3.6-10.3,7.1-20.7,10.7-31
			C92.6,75,80,91.1,59.1,100.6c-1.9-5.3-0.6-8.8,4.2-11.4c2.3-1.3,4.5-2.8,6.4-4.4c0.9-0.8,1.2-2.3,1.1-3.4c0-0.3-2.3-0.9-3.5-0.8
			C63.6,80.8,60.1,81.3,56.6,81.7z M397.6,63c-17-10.6-34.7-21.3-44.9-38.2c-9.6,8.9-9.4,8.9-11.4,17.8c-0.9,4-2.5,7.8-4,11.7
			c-0.3,0.8-1.4,1.4-2.6,2.6c-0.4-1.2-0.7-1.7-0.7-2.1c0.1-8.1,0.2-16.3,0.2-24.4c0-0.6-0.2-1.4-0.7-1.8c-8.2-7.6-18-13.5-27.3-18.8
			c-1.9,4.6-4.1,8.5-5.1,12.7c-1.1,4.6-1.2,9.5-1.6,14.2c-0.4,4.3,0,8.8-1.2,12.9c-1.4,5-3.6,10-6.3,14.7
			c-5.8,10.5-1.2,15.1,11.4,21c6.9,3.2,10,2.1,14.1-3.5c5.1-6.8,9.7-13.8,20.4-16.3c9.4-2.2,15.1-7.2,14.4-15.6
			c7.2-1.2,13.5,1,17.3,5.4c2.9,3.3,5.8,6.8,9.8,9c4.3,2.4,9.8,3.5,14.9,4.7c1.4,0.3,4.1-0.2,4.8-1.1c3.6-4.6,6.8-9.4,10.5-14.6
			C400.1,53.1,404.6,61.8,397.6,63z M352.6,132.3c2.7,0.5,6.2,1.6,9.7,1.8c2.1,0.1,5.2-0.6,6.2-1.9c10.3-12.7,27.1-19.1,40.9-28.3
			c3.2-2.1,7.4-3.2,11.1-4.8c4.5-1.8,9-3.5,13.4-5.5c1.4-0.7,3.1-1.9,3.5-3.1c2.7-9.6,5.9-19.3,7.5-29c1.6-10.1,5.1-19.3,11.9-27.8
			c1.8-2.3,2-5.5,2.2-8.3c0-0.6-3.8-2.3-4.4-1.9c-9.4,5.5-18.8,11.2-24.3,19.9c-0.7,1.1-1.2,2.9-0.6,3.6c4.4,4.6,0.4,6.9-3.2,9.7
			c-20.1,15.4-40.1,30.8-59.9,46.4c-2.6,2.1-4.7,5-5.9,7.8C357.7,117.9,355.3,125.1,352.6,132.3z M366,166.3
			c-0.3-0.7-0.5-1.4-0.8-2.1c-3.6-0.9-7.2-1.7-10.8-2.7c-9.6-2.6-17-7-19.6-15.6c-1.5-4.9-3.5-9.7-5.5-14.5c-3.1-7.5-8.7-8.5-15-2.5
			c-3.6,3.5-6.4,7.6-10.4,10.8c-4,3.2-8.7,6.3-13.7,8.2c-5,1.9-10.7,2.7-16.3,3.4c-11.9,1.5-23.9,2.4-35.8,3.9
			c-5.8,0.7-11.4,2.3-17.2,3.5c10.7,0.2,21-0.2,31.3-0.2c5.8,0,11.7,1.7,17.2,0.8c8.8-1.3,16.1-2.3,24.7,2.5
			c6.3,3.5,10.5,7.4,14.1,12.4c1.2,1.6,2.7,3.3,4.6,4.2c7,3.3,14.1,7.2,22,1.2c0.5-0.4,1.5-0.4,2.2-0.8
			C346.7,174.7,356.4,170.5,366,166.3z M367.1,57.5c-4.3,1.2-4.4,3.3-3.3,6.2c2.7,6.9,2.3,7.5-5.8,10.3c-2.4,0.8-4.8,1.8-7.2,2.4
			c-15,3.9-26.5,12-37.5,20.6c-1.5,1.2-2.6,2.6-4.2,4.2c12.2,3.4,23,1.4,33.8-1.6c3-0.9,5.3-1,8.8,0.1c5.6,1.8,12.6,2.3,17.3-2.2
			c8.2-7.7,15.8-15.8,23.6-23.7c0-0.5,0-1.1-0.1-1.6C379.7,72.2,373.8,64.9,367.1,57.5z M84.2,183.8c-7.9,0-12.2-4-15.4-8.8
			c-4.1-6.3-8-12.7-11.6-19.2c-3.9-6.9-7.3-14-15.3-19.5c-0.7,2.5-1.2,4.4-1.7,6.4c-2.6,11.3,0.5,22.1,6.3,32.2
			c5.6,9.9,9,20.1,10.1,30.9c0.1,1.2,0.4,2.3,0.7,3.5c6-3.6,12-6.6,17.2-10.3C79.7,195.2,84.2,190.6,84.2,183.8z M256.4,140.2
			c2.6,0.3,6.5,0.9,10.4,1.3c4.7,0.4,8.8-0.4,11.5-3.9c5.6-7.2,13.9-11,24-12.6c5.9-0.9,11.7-2.3,17.6-3.3c1.4-0.2,3.2-0.1,4.5,0.4
			c7.2,2.8,14.2,5.8,22.9,9.3c4.2-9.1,8.6-18.5,13-27.9c-10.1-2.9-12.7-2.5-19.1,3.4c-1.1,1-2.3,1.9-3.2,2.9c-2.7,3.1-6.4,4-10.6,3
			c-14.8-3.7-27.7,1.9-39.4,7.1C276.2,125.1,266.5,133.5,256.4,140.2z M206.4,75.6c-9.6-4.8-17.9-8.9-26-12.9
			c-0.5,0.7-1.8,3.2-2.5,3.2c-2.1-0.3-4.5-1.3-6-2.6c-2.9-2.7-5.2-5.7-7.7-8.6c-1.2,4.6-1.2,8.6-1.3,12.6
			c-0.1,8.4-0.5,16.6-11.3,21.3c-0.4,0.2-0.6,0.8-1,1.4c8.4,2,16.5,4.2,24.7,5.8c2.6,0.5,6.5,0.2,8.2-1.1
			C191.6,88.4,199.1,81.8,206.4,75.6z M239.4,142.9c16.5-5.9,32.6-13.4,45.3-25c6.2-5.6,10.6-12.4,19.2-16.5c4.3-2,6.7-6.7,10-10.1
			c-0.5-0.4-1-0.7-1.5-1.1c-14.3,6.5-29.7,11.6-39.9,23.1c-2.3,2.6-6.9,4-10.7,5.6c-2.4,1-6,0.8-7.8,2.3c-4.9,3.8-9.8,7.9-13.5,12.5
			C238.9,136,239.8,139.7,239.4,142.9z M312.8,126c-13.3,0.2-24.2,4.2-31.6,12.3c-4.5,4.9-10,6.1-16.8,4.9
			c-6.6-1.1-12.5-0.2-18.4,2.7c-4.9,2.4-10.5,3.9-15.9,5.7c-1,0.3-2.4,0-5,0c4.9-5.3,9-9.6,13-14c-11.4,4.5-19.7,11.1-24.9,21.5
			c19.3-7.2,39-7.6,58.4-9.3C291.1,148.2,304.3,139.8,312.8,126z M550.7,102.8c-7.7-2.8-13.8-3.3-19.2,0.2
			c-3.8,2.5-7.5,2.7-11.7,1.1c-3.6-1.4-7.3-2.7-10.9-4c-11.7-4.3-23.2-8.9-35-12.9c-9.2-3.1-17.1-1.2-24.8,5.1
			c4.3-0.6,8-1.2,11.7-1.7c7.8-0.9,16-1.8,22.2,3.2c10.8,8.8,23.9,16,30.3,28c1.2,2.2,4.4,3.8,6.6,5.6c0.6-0.4,1.2-0.8,1.9-1.1
			c-0.6-2.7-1.3-5.3-1.7-8c-1.1-6.9,0.5-8.2,9-7.4c4.5,0.4,8.9,1,14.4,1.6C540.4,106.7,542.6,103.8,550.7,102.8z M329.7,126.6
			c2.7,6.9,5.4,13,7.5,19.2c2,6,6.6,10.6,13.4,12.3c14.9,3.8,30.1,6.6,45.2,9.6c2.7,0.5,5.9-0.4,8.9-0.7c0-0.7,0.1-1.4,0.1-2.1
			c-8.1-1.1-16.2-2.3-24.2-3.4c1.8-8.4,10.2-11.5,17.5-15.6c-1.4-0.3-2.6-0.4-3.6-0.1c-6.8,1.9-13.6,3.8-20.4,5.8
			c-14.4,4.3-26.5,2.3-28.2-12.2C345,131.9,338.5,128.5,329.7,126.6z M111.4,58.7c1.6,9.2-5.9,17.1-6,26.9
			c13.7-14.8,20.7-30.9,25.3-47.8c-0.5-0.3-0.9-0.6-1.4-1c-5.6,5-11.1,10-16.8,15.2c-1.2,0.4-3.6,0.6-5,1.7
			c-11.2,8.7-22.3,17.6-33.9,26.9c1.8,3.4-2.3,5.5-5.8,8c-3.1,2.2-7.4,3.8-6.5,9C81.2,86.8,94.1,71.2,111.4,58.7z M260.3,54.6
			c2.9,2.6,5.5,4.9,9,8.1c1.4-2.9,2.9-5.1,3.3-7.3c0.9-4.8,4-8.1,9.4-10c5.5-1.9,9.1,0.7,12.6,3.6c0.2,0.1,0.7,0,2.3,0
			c0.3-3.6,1.8-7.4,0.7-10.8c-2.3-7.3-0.9-13.8,3.4-20.2c2.6-3.9,1.9-7.7-1-12C291,24.8,277,40,260.3,54.6z M462.9,23.9
			c-1.7,4.1-3.3,8.1-5.1,12c-3.1,7-6.7,13.8-9.5,20.9c-2.2,5.6-3.3,11.4-5,17.1c-0.5,1.7-1.1,3.5-1.6,5.2c-0.5,1.7-0.8,3.4-1.4,5.8
			c7.1-9.9,13.8-18.9,20-28.1c1.3-2,1.9-4.9,1.2-7.1c-1.8-5.4,1.7-7.5,6.8-9.2c3.2-1,6.4-2.2,9.8-3.3
			C472.3,32.1,467.2,27.6,462.9,23.9z M323.1,185.1c-10.2-3-17.5-7.9-20.7-15.7c-5.8,12.3-11.2,23.9-16.6,35.5
			c0.6,0.3,1.2,0.5,1.9,0.8C300.7,200.8,312.5,194.6,323.1,185.1z M34.9,152.2c0,4-0.1,8.9,0,13.7c0.2,4.3-0.8,7.9-4.7,11.5
			c-5,4.5-8.6,10.1-12.2,15.5c-1.5,2.2-2,5-2.1,7.5c0,1.4,1.7,2.8,2.7,4.3c1.4-1.2,3.5-2.2,4-3.6c0.7-1.9,0.2-4.2,0-6.3
			c-0.7-6.6,1.8-10.6,8.9-13.6c3.6-1.5,7.1-1.8,8.7,2.2c3.2,7.9,6.3,15.7,9.3,23.6c1,2.6,1.8,5.3,2.7,7.9c1.6-1.5,2.4-3,2.1-4.3
			c-1.8-8.9-3-18-5.9-26.7C44.6,172.9,39.3,162.4,34.9,152.2z M365.9,187c0-0.2,0-0.4,0-0.6c-7.1-2.4-14.1-4.9-21.2-7.2
			c-1.1-0.4-2.9-0.1-4.1,0.4c-6.6,3-13.7,5.5-19.4,9.4c-10.7,7.5-21.6,14.5-34.8,18.9c-1.2,0.4-2.1,1.2-3.5,2.1
			c1.1,0.4,1.7,0.7,2.2,0.7c1,0,2.1,0.1,3-0.3c8.1-3.3,16.3-6.6,24.3-10.2c5.4-2.5,10.3-5.6,15.6-8.2c3.5-1.7,6.6-1.6,9,1.9
			c1.1,1.6,3.7,2.4,6.7,4.3c0-2.8,0.1-3.9,0-5c-0.9-6.1-0.1-6.6,7.5-6.3C356,187.2,360.9,187,365.9,187z M347,177.7
			c8.6,5,17.2,6.3,25.3,7c12,1.2,17-8,25.8-12.9C379.2,164.8,364.3,172.9,347,177.7z M319.1,88.7c0.2,0.2,0.5,0.4,0.7,0.6
			c1.8-1.1,3.5-2.4,5.5-3.3c8.1-3.8,16.2-7.6,24.3-11.3c3.1-1.4,6.5-2.4,9.8-3.6c3.1-1.1,4.4-2.9,2.8-5.5c-2.4-3.9-2.4-7.4,2.3-11.1
			c-3-0.9-5.3-1.6-8.6-2.5c-0.5,7.1-3.8,12.1-11.9,14.2c-3,0.8-6.1,1.8-8.8,3.1c-2.5,1.2-5.4,2.6-6.8,4.5
			C324.9,78.5,322.2,83.7,319.1,88.7z M389.5,82.7c12.2-9.4,23.6-18.3,35.1-27.1c2.9-2.2,6-4,3.2-8.1c-1-1.4,0.7-4.3,1.8-6.3
			c1.1-2.1,3-4,5.2-6.7c-8.6,4.3-16.2,8.1-23.7,12c-4.1,2.1-8.1,4.2-12,6.4c-3.4,1.9-2.6,3.5,1.1,5.1c0.2-1.1,0-2.4,0.7-2.9
			c2.3-1.6,4.8-3,7.4-4.1c0.9-0.4,2.5,0.3,3.8,0.5c-0.8,1.9-1.1,4-2.4,5.7C403.2,65.5,396.5,73.8,389.5,82.7z M286,74.6
			c2-5.1,4.5-11.4,6.8-17.6c1.5-3.9,1.1-7.5-4.1-9.5c-5-2-9,0.1-11.3,3.2c-2.8,3.8-4.2,8.3-6.1,12.5c-0.2,0.5,0.2,1.4,0.7,1.7
			C277,68.5,282.2,72,286,74.6z M210.5,162.1c-0.6,0.7-1.1,1.3-1.7,2c3,3.6,5.9,7.3,8.9,10.9c0.4-0.2,0.9-0.5,1.3-0.7
			c-1.2-3.2-2.5-6.4-3.9-10.1c13.8,0.6,26.2,1.6,38.6,1.7c12.2,0,24.4-0.9,37.9-1.4c-4.6-4.8-8.7-6-14-4.7c-0.4,0.1-0.8,0.2-1.2,0.2
			c-7.5,0.2-15,0.3-22.5,0.6C239.5,161,225,161.6,210.5,162.1z M404.8,171.2c0,0.1-0.1,0.3,0,0.4c0.1,0.1,0.4,0.3,0.5,0.2
			c3.8-0.8,7.8-1.2,11.4-2.4c4.2-1.4,8.1-3.5,12.2-5c1.6-0.6,3.7-0.2,5.6-0.3c-0.1,1.5,0.2,3.2-0.5,4.6c-1.8,3.8-4,7.5-6.1,11.3
			c15.5-6.9,18.3-19.2,22.3-30.5C435.1,156.7,419.9,163.9,404.8,171.2z M64.2,114.9c2.1-0.1,3.1-0.1,4.1-0.2
			c13.9-1.2,20,1.3,25.6,11.8c3.3,6.3,8.8,8,16.6,8c3.8,0,7.7,1.8,11.4,3.1c3.9,1.4,7.7,3.1,11.5,4.7c-3.9-4.5-7.9-8.4-12.5-11.6
			c-2.1-1.4-6-2.8-8.2-2.2c-4.8,1.4-7.3-0.2-10.5-2.6c-6.1-4.6-12.4-9.2-19.2-13.1C75,108.3,73.2,108.8,64.2,114.9z M226.8,104.7
			c0.5,0.1,1,0.2,1.6,0.2c4.4-7.4,10.2-14.5,12.6-22.3c2.3-7.3,4.9-13.5,12.4-18.1c1.6-1,2.6-2.7,4.2-4.4c-2.3-1.4-4.1-2.5-5.8-3.5
			c-1.7,1.9-3.3,3.4-4.4,5c-3,4.5-7.2,8.8-8.3,13.6c-1.2,5-4.1,8.1-8.4,11.2c-4.4,3.2-8.5,6.7-12.8,10c0.3,0.3,0.7,0.5,1,0.8
			c3.2-1.7,6.5-3.5,11.1-5.9C228.7,96.6,227.7,100.7,226.8,104.7z M522.5,25.9c-2.4,2.7-4,4.3-5.4,6c-1.5,1.8-2.8,3.6-5,6.4
			c8.8-3.5,12.8-8,12.9-13.7c0.1-4.4-1.2-5.1-5.9-3.4c-3.8,1.4-7.6,2.9-11.5,4.3c-11.1,3.8-21.6,8-23.5,19.3c-0.4,2.1-2.5,4-3.7,6.1
			c-0.8,1.3-1.4,2.6-2,3.9c6.9-5.8,12.2-12.3,18.8-17.9C503.5,31.4,510,25.2,522.5,25.9z M189.8,101.9c0.8,0.4,1.6,0.8,2.4,1.1
			c4.4-5.1,9.3-10,13.1-15.4c3.8-5.4,7.9-9.9,16.2-11.2c2.4-0.4,5.3-3.1,6.1-5.2c1.6-4.2,1.8-8.8,2.9-14.7
			c-5.9,4.4-10.4,7.9-15.8,11.9c5.1-0.7,6.1,0.6,4.1,3.2c-0.8,1.1-2.1,2-3.2,2.9c-4.7,3.7-9.6,7.4-14.2,11.2
			C195.7,90.3,191.9,95.7,189.8,101.9z M541.6,46.8c0.9-0.4,1.9-0.7,2.8-1.1c6.1,7.9,12.2,15.8,18.3,23.8c0.4-0.2,0.8-0.5,1.3-0.7
			c-6.8-13.5-14.4-26.6-29.4-35.6c0,12.5,6,28.4,12.8,32.9C545.3,59.4,543.5,53.1,541.6,46.8z M284.7,99.1c-10,0.7-20,1.1-25,10.3
			c-1.1,2.1-4.1,3.5-6.1,5.3c-1.9,1.7-3.8,3.5-6.4,6c4.6-1.1,7.9-1.6,11-2.7c3.8-1.3,8.1-2.3,11-4.6
			C274.8,109.1,279.5,104,284.7,99.1z M107.3,127.5c6.9-11.4,13.2-22,20.3-33.7c-7.5,3.4-12,6.6-14.4,12.2
			c-2.5,5.7-6.7,11.2-16.6,12.2C100.3,121.6,103.3,124.2,107.3,127.5z M436.3,96.6c-20.4,4.5-36,15.2-52.7,25.8
			C406.1,119.1,420.1,106.4,436.3,96.6z M152.6,172.5c1-2,2-3.9,2.9-5.8c2.2,1.2,4.4,2.4,6.7,3.5c6.3,3,12.6,5.9,18.9,8.8
			c0.4-0.5,0.8-1,1.2-1.4c-10.8-8.1-21.5-16.1-32.1-24C148.3,159.7,147.9,166.3,152.6,172.5z M299,170.3c-0.7-0.2-1.5-0.5-2.2-0.7
			c-2.6,9.4-9.9,16.5-16.9,23.8c-4,4.1-6.5,9.2-9.7,13.9c9.3,1.3,12.3-0.3,14.9-6.5c2.4-5.8,5.7-11.4,8.3-17.2
			C295.4,179.2,297.1,174.7,299,170.3z M56.1,113.9c-1.7-1.5-4-2.7-4.8-4.4c-1.2-2.5-2.5-5.5-2-8c0.9-4.3,3.4-8.3,4.7-12.5
			c0.6-1.8,0.1-3.9,0.1-5.8c-13.2,12.3-10,26.4-9.2,41C49.1,120.4,52.5,117.3,56.1,113.9z M158.7,74.2c0.5,0,0.9,0,1.4,0.1
			c0.2-0.7,0.6-1.5,0.6-2.2c-0.2-4.9-0.7-9.7-0.7-14.6c0-1.6,1.4-3.1,2.1-4.7c1.8,0.8,3.9,1.4,5.3,2.6c2,1.8,3.4,4,5.3,5.9
			c1.1,1.1,2.5,2,4.7,3.6c-1.5-8.2-12.4-20.1-21.9-23.8C156.5,52.5,157.6,63.3,158.7,74.2z M295.2,114.1c2.6-0.7,5.2-1.3,7.7-2.1
			c6.8-2,13.6-3.6,21.1-2c8.6,1.8,12.1,0.2,15.9-6.4c-7.5,0.4-15.6,2.3-22.8,1C305.8,102.6,301,108.4,295.2,114.1z M161.2,141.8
			c2.9-0.1,4-0.1,5.2-0.2c4.1-0.6,5.2,0.2,4.3,3.9c-0.6,2.4,1.5,5.3,2.4,7.9c0.6,0,1.2-0.1,1.9-0.1c2.3-8.6,4.7-17.3,7.1-26.3
			c-3.8,2.6-7.4,4.9-10.9,7.3C168.3,136.4,165.4,138.6,161.2,141.8z M488.8,113.9c-0.6,0.3-1.2,0.7-1.7,1
			c-1.7,12.5,8.6,18,22.2,19.8C502.4,127.8,495.6,120.9,488.8,113.9z M209.8,221.6c0.6,0.1,1.1,0.1,1.7,0.2c0.7-2.5,1.7-4.9,1.9-7.4
			c0.6-6.2,2.5-11.7,8.1-16.4c2.5-2.1,3.3-5.5,4.9-8.3c-0.6-0.3-1.3-0.6-1.9-0.8c-6.3,8.9-17.8,15-22.1,26.8c3-1.9,4.7-2.9,7.5-4.6
			C209.8,215.2,209.8,218.4,209.8,221.6z M269.8,65.5c-4,4-7.8,7-10.4,10.6c-2.7,3.6-4.5,7.8-0.7,12.3c2.5-2.7,4.5-5.6,5.6-8.7
			c2.3-6.2,3.8-7,11.6-5.7c1.1,0.2,2.3,0.4,3.4,0.7c0.4-0.3,0.7-0.7,1.1-1C277,70.9,273.6,68.3,269.8,65.5z M136.9,121.8
			c13.9-4,27.1-7.7,40.3-11.5c-6.7-0.4-13.3,0-19.8,0C147.4,110.5,142.2,115.9,136.9,121.8z M533,228.5c0.6-0.3,1.3-0.6,1.9-0.9
			c-4.1-5.7-8.3-11.4-13.1-18c4.2,0.3,7.5,0.5,11.9,0.8c-4.1-3.3-7.4-6-12-9.8c-0.2,9.4-6.7,16.7-3.1,25.1c1.2-1.3,1.4-2.8,2.2-4
			c0.9-1.3,2.3-2.4,3.4-3.6c1.4,1,3.1,1.9,4.1,3.2C530.1,223.6,531.5,226.1,533,228.5z M249.9,227.3c9.2-11.7,17.8-22.8,26.5-33.8
			c-0.5-0.3-1.1-0.5-1.6-0.8C264.1,202.9,251,211.9,249.9,227.3z M191.5,93.9c-0.3-0.3-0.6-0.7-0.9-1c-6.6,6-14,6.6-22.3,3.3
			c-2.7-1.1-5.6-1.8-8.5-2.4c-2.4-0.6-4.9-0.9-7.4-1.3c-0.1,0.4-0.3,0.8-0.4,1.2c11.2,3.2,22.4,6.4,34,9.8
			C187.9,100.2,189.7,97.1,191.5,93.9z M336.5,43.8c0.8,0,1.6,0.1,2.4,0.1c0.6-3.7,0.3-7.6,2-10.9c1.6-3.2,5.3-5.6,8.4-8.7
			c-9.1-1.2-11.4-0.5-12.6,5.4C335.7,34.3,336.5,39.1,336.5,43.8z M587.3,106.3c-7.6-6-16.2-7.1-24.3-2.9
			C572,104.4,579.7,105.4,587.3,106.3z M215.5,148.2c4.4-3.8,9-7.7,13.5-11.6c0.5,0.3,0.9,0.6,1.4,0.8c-3.1-0.1-6.1-0.2-8.9-0.4
			C219.2,141.3,217.2,145,215.5,148.2z M425.3,124.5c1.1,0.2,2.2,0.5,3.3,0.7c1.5-5.8,2.9-11.6,4.4-17.5c-0.5-0.1-1.1-0.2-1.6-0.4
			C429.3,113.1,427.3,118.8,425.3,124.5z"/>
		<path class="st0" d="M480.2,238c-12-10.5-24.5-20.6-35.9-31.5c-6.8-6.5-12-14.1-16.8-19.9c7.1-7.9,13.8-14.1,18.7-21.2
			c3.6-5.1,4.8-11.3,7.3-17c2.5-5.6,7-10.1,13.4-14.2c5.9,14.5-1,29.2,4.6,43.8c0-9.8,0-18.8,0-28.4c12.2,7,23.6,13.4,34.8,20
			c4.9,2.9,8.4,6.6,8.7,12.2c0.2,3.9,2.6,7.7,4.3,12.3c-7.1-2.8-11.6-5.9-12.8-11.9c-1.9-9-7.3-13.1-17.9-14.8
			c-4.5-0.7-6.3-0.1-5.3,4.2c3.1,13.2,5.8,26.5,8.7,39.8c-0.5,0.2-0.9,0.4-1.4,0.6c-4.7-7.5-9.5-15.1-14-22.2
			c0.7,8.9,12.3,25.4,20.3,27.9c-2.2-8-4.5-15.8-6.3-23.6c-1.8-8-3.1-16-4.7-24c9.5-0.4,16.1,3.3,17.5,10.4
			c1.3,6.4,5.2,10.9,11.7,14.6c2.3,1.3,4.1,4.5,4,6.8c-0.4,5.5-2.2,10.9-3.4,16.3c-1,4.6-1,8.9,4.4,13.4c1.6-4.2,2.8-7.4,4.2-11.2
			c5,6.3,9.5,12,14,17.7C518.8,238,499.5,238,480.2,238z"/>
		<path class="st0" d="M603.2,153.9c-0.2,0-0.4,0.2-0.6,0.1c-16.7-4.8-33.2-2.2-49.8,0.6c-1,0.2-2,0-3.1,0c0.1-0.3,0.1-0.5,0.3-0.6
			c2.5-1.3,5-2.6,7.5-3.9c-2.7-1.4-5.4-3.7-8.3-3.8c-5.2-0.2-11,0-15.8,1.6c-11.5,3.9-22.2,2.9-33-1.5c-7.3-3-14.9-5.6-22.3-8.5
			c-2.8-1.1-4.9-2.5-2.9-5.7c1-1.7,0.4-4.2,0.4-6.3c0-4.8,2.4-8.4,7.8-11.2c0.4,1.1,1.1,2,1.1,2.8c0,8.6,5.4,14.2,14.6,17.8
			c5.9,2.3,11.8,4.5,18.7,7.1c-4.1-5-7.4-9.5-11.2-13.6c-6-6.4-12.4-12.6-18.8-18.8c-0.8-0.8-2.8-1.1-4.2-1.2
			c-14.4-0.7-25-7.4-37.5-14.2c7.6-1,13.5-1.7,19.4-2.4c8.3-1.1,14.9,1.4,20.6,6.1c5.2,4.3,10.7,8.4,15.6,12.9
			c3.3,3,5.8,6.5,8.6,9.8c1,1.2,1.4,3,2.7,3.8c2.9,1.7,6.2,3,9.3,4.4c0.2-2.5,0.6-4.9,0.7-7.4c0-1.1-0.6-2.2-0.7-3.4
			c-0.7-5.1,0.5-6.1,6.9-5.4c5.4,0.5,10.9,1,15.9,1.5c0.7-1.3,1-1.7,0.9-1.9c-2.1-6.3-1.7-7.3,6.2-7.4c7.8-0.1,15.7,1,23.9,1.6
			c-4.8,4.9-8.8,8.9-12.7,12.9c0.6,0.5,1.2,0.9,1.8,1.4c8-0.3,11.9-5.6,17.1-10.7c1.3,3,2.4,5.3,3.4,7.7c0.3,0,0.5-0.1,0.8-0.1
			c-0.4-2.2-0.7-4.4-1.1-6.7c0.4-0.2,0.7-0.5,1.1-0.7c5.6,4.9,11.2,9.9,16.8,14.8c0,0.7,0,1.3,0,2c-4.1-1.8-8.1-3.6-13.6-6.1
			c2.4,5.4,4.4,9.6,6.4,14.2c-1.6-0.4-2.4-0.6-3.3-0.9c-0.2,0.3-0.4,0.6-0.6,0.9c2.5,1.9,5,3.8,7.5,5.6c0.5-0.3,0.9-0.5,1.4-0.8
			c-2.2-4.5-4.4-9-7.2-14.6c4.1,1.5,6.7,2.5,9.3,3.5C603.2,137.6,603.2,145.8,603.2,153.9z"/>
		<path class="st0" d="M170.3,238c0.3-1.6,0.8-3.2,0.7-4.8c-0.3-6.7,2.3-12.5,7.8-17.4c10.4-9.3,12.9-21.1,16-32.7
			c0.3-1.2-2.1-3.2-3.8-4.3c-11-7.2-22.6-13.9-33.1-21.6c-3.4-2.4-4.4-7-6.8-11.3c5.7-1.1,10.9-2,15.4-2.8c2.4,5.2,4.4,9.8,6.5,14.4
			c0.7,0,1.4,0,2.1,0c1.2-3.1,2.7-6.2,3.6-9.3c1.1-4,1.6-8,2.6-12c0.6-2.2,1.3-4.5,2.6-6.5c5.5-8.7,8.2-9.1,17.4-3.3
			c4.4,2.8,9.1,5.4,13.9,7.7c3.4,1.6,3.5,3.3,2.2,6c-1.9,4.2-3.1,8.6-4.8,12.8c-0.5,1.4-1,3.1-2.2,3.9c-6.2,3.6-3.7,7.8-1.1,11.6
			c2.2,3.2,5.5,5.9,8.7,8.6c6,5,6.6,9.6,1.5,15.2c-2.9,3.1-6.5,5.8-9.1,9.1c-3.8,4.7-7.2,9.7-10.5,14.7c-4.8,7.3-9.3,14.7-13.9,22
			C180.7,238,175.5,238,170.3,238z"/>
		<path class="st0" d="M603.2,208.7c-7.6-2.3-15.1-4.7-22.7-7c0-0.3,0.1-0.6,0.1-0.9c5.1-0.3,10.2-0.5,16.4-0.8
			c-1.5-1.3-1.9-2-2.4-2.1c-11.4-2.4-23.1-5.6-34.6-1.2c-11,4.2-21.9,3.5-32.9,1c-2-0.4-4.3-2.3-5-4c-2-5.2-3.1-10.7-5.1-15.9
			c-0.8-2.1-2.4-4.2-4.4-5.7c-8.2-6.1-15.8-12.8-26.8-16.1c-6-1.8-10.7-5.5-13.5-12.2c5.2,3,9.3,5.1,13.1,7.5
			c11,7.2,22.7,12.5,37.5,12.5c12.1,0,23.7-0.1,35.6-2.8c8.3-1.9,17.8-0.7,26.7-0.5c6,0.1,11.9,0.9,17.9,1.3
			C603.2,177.4,603.2,193,603.2,208.7z"/>
		<path class="st0" d="M213.7,238c-4.1-11.1,1.8-21.4,3.9-32c0.4-2.2,2.8-4.3,4.8-6.1c5.4-4.9,6.5-10.3,3.9-16.3
			c-2.4-5.6-5.2-11.1-7.9-16.9c24.8,0,49,0,73.7,0c-1.8,6.2-5.4,12.2-11.1,17.3c-6.6,6.1-13.3,12.1-20.1,18.2
			c-7,6.3-11.2,13.6-13.6,21.9c-1.4,4.8-4.6,9.2-7.1,13.8C231.4,238,222.5,238,213.7,238z"/>
		<path class="st0" d="M58.1,238c0.6-5,2.6-10.2,1.4-14.9c-2-7.6,2.3-12.2,8.3-16.6c1.9-1.4,4.1-2.8,6.5-3.5c8.9-2.5,12-8,12.6-14.9
			c0.4-4,0.6-8,1-12.5c3.1,1.8,5.2,3.6,7.9,4.6c6.9,2.6,11.4,5.7,11.2,13.1c-0.2,3.9,3.5,9,7.4,11.7c11.1,7.6,13.3,16.3,8.5,26.8
			c-0.9,2-1.3,4.1-2,6.1C99.9,238,79,238,58.1,238z"/>
		<path class="st0" d="M0.2,217.5c2.7-8.1,5.3-16.3,8.1-24.4c2.2-6.7,7.5-11.2,16.7-14.8c-2.5,3.3-4.6,5.5-5.8,7.9
			c-2.3,4.8-4.5,9.7-5.7,14.7c-0.3,1.4,2.7,4.6,4.6,4.8c2,0.2,5.7-1.7,6.5-3.4c1.2-2.4,0.8-5.4,0.4-8.1c-0.6-4.9,1.3-8.6,6.5-11.1
			c3.2-1.5,5.4-1.5,6.7,1.9c3.9,10.6,8.3,21,12.1,31.6c0.6,1.6-0.4,3.8-1.5,5.4c-3.5,5.4-7.4,10.7-11.2,16c-12.5,0-24.9,0-37.4,0
			C0.2,231.2,0.2,224.3,0.2,217.5z"/>
		<path class="st0" d="M292.1,238c-5.7-3.8-11.3-7.6-17-11.4c-0.9-0.6-2.1-1.1-2.5-1.9c-2-4-3.8-8-6.2-13.3c4.7,0,9.1-0.8,12.8,0.2
			c7.1,2,13.2,0.3,19-2.2c5.5-2.3,10.5-5.4,15.6-8.2c3.8-2.1,7.4-4.4,11.4-6.4c4-2,7.7-2.9,11,1.5c1.4,1.9,5.2,2.6,8.9,4.4
			c-1,1.6-1.9,3.9-3.7,5.6c-7.3,6.5-15.1,12.6-22.2,19.3c-4,3.8-6.9,8.3-10.3,12.5C303.3,238,297.7,238,292.1,238z"/>
		<path class="st0" d="M138.9,238c-1.1-4.6-1.9-9.3-3.5-13.8c-1-2.8-3.3-5.2-5.4-8.3c14.8-12.5,29.6-25.8,26.2-45.6
			c11.5,4.6,23,9.1,35.6,14.2c-3,2.8-6.3,6.3-10.2,9.3c-5.3,4-10.2,7.8-11.4,14.3c-0.6,3.5-4.2,6.9-7.2,9.8
			c-7,6.9-14.4,13.4-21.7,20.1C140.5,238,139.7,238,138.9,238z"/>
		<path class="st0" d="M392.2,238c-1.9-5.6-4.1-11.2-5.8-16.9c-2.7-9.3-5.1-18.7-7.7-28.1c-0.5-1.8-1.9-3.5-2.9-5.3
			c5.8-2.3,5.5-2.1,9.7,1.7c3.3,3,7.1,5.9,11.2,8.1c9.8,5.2,17.7,11.7,24.4,19.3c2.1,2.3,4.3,5.1,7.3,6.3
			c7.7,3.2,11.1,8.6,13.2,14.9C425.1,238,408.6,238,392.2,238z"/>
		<path class="st0" d="M0.2,135.4c12.7-4.7,19.7-13.7,25.3-23.2c5.6-9.3,9.7-19.2,14.6-28.9c1-1.9,2.2-3.7,3.3-5.6
			c5.3,1.2,7.6,2.9,4.6,7c-7.2,9.9-7.6,20.8-5.7,31.7c1.6,8.9-2.3,16.3-7.5,23.4c-2.1,2.9-6.1,5.3-9.9,6.8
			c-8.2,3.1-14.4,7.3-17.9,14.3c-1.4,2.9-4.5,5.2-6.9,7.7C0.2,157.5,0.2,146.4,0.2,135.4z"/>
		<path class="st0" d="M312.6,238c2-2.9,3.4-6.3,6.1-8.8c9.3-8.3,19-16.3,28.3-24.2c14.9,9.5,29,19.4,38,33
			C360.8,238,336.7,238,312.6,238z"/>
		<path class="st0" d="M570.6,238c-4-5.7-7.2-12-12.3-17c-3.6-3.6-9.9-5.3-14.8-8.1c-5-2.9-9.8-6-14.6-9c0.3-0.4,0.5-0.7,0.8-1.1
			c2.7,0.7,5.3,1.7,8.1,2c7.7,0.9,15.4,1.5,23.1,2.3c4.9,0.5,10.1,0.5,14.8,1.8c9.3,2.5,18.4,5.7,27.5,8.6c0,6.8,0,13.7,0,20.5
			C592.4,238,581.5,238,570.6,238z"/>
		<path class="st0" d="M603.2,159.8c-6.4-0.5-12.8-0.7-19.1-1.5c-11.3-1.4-22-0.2-33.2,2c-20.7,4-41.4,4-59.6-7.5
			c-4.4-2.8-9.3-5.2-13.5-8.2c-2.9-2.1-5.1-4.8-7-7.7c13,6.3,26.5,11,40.7,14.5c8.1,2,15.4,0.5,22.8-2c6.8-2.3,13.5-2.3,21.4,1.1
			c-3.3,0.8-5.5,1.1-7.3,1.8c-2,0.7-3.7,1.9-5.5,2.9c2.2,0.5,4.4,1.7,6.5,1.5c5.8-0.4,11.6-1,17.2-2.2c12.6-2.8,24.6-1.4,36.5,2.3
			C603.2,157.8,603.2,158.8,603.2,159.8z"/>
		<path class="st0" d="M387.3,238c-7.2-10.4-15.5-20-28-26.8c-5.5-3-9.8-6.9-11.1-12.2c-0.7-3.1-0.6-6.3-1-10.3
			c8.4,0,15.8-0.3,23.1,0.1c4.5,0.2,5.8,3.6,6.6,6.7c3,10.8,5.9,21.5,9.1,32.3c1,3.5,2.5,6.8,3.7,10.2
			C388.9,238,388.1,238,387.3,238z"/>
		<path class="st0" d="M603.2,107c-6,0.1-11.1-1.8-15.8-4.7c-7.1-4.4-15.3-3.9-25-3.1c7.9-8.7,23.1-10.3,24.4-22.3
			c0.7,0.3,1.3,0.5,2,0.8c0.2,0.9,0.7,1.9,0.4,2.7c-0.5,1.5-1.8,2.9-2.3,4.5c-0.6,2.2-0.8,4.5-1.1,6.7c3-1,6.7-1.4,8.7-3.1
			c2.5-2.3,3.6-5.6,5.3-8.5c1.1-1.8,2.3-3.5,3.4-5.2C603.2,85.5,603.2,96.3,603.2,107z"/>
		<path class="st0" d="M542.9,238c-5-8.6-10-17.1-15.8-27c4.7,2.1,8.8,3.5,12.4,5.5c4.9,2.8,8.6,7.5,16.1,5.4
			c0.8-0.2,2.7,0.9,3.3,1.8c3.3,4.7,6.3,9.5,9.4,14.3C559.8,238,551.3,238,542.9,238z"/>
		<path class="st0" d="M144.9,238c6.3-6,12.5-12.2,19.1-18c5-4.4,7.9-9.3,10.5-15c2.5-5.3,8.8-9.5,13.4-14.2c1,0.5,1.9,1,2.9,1.4
			c-3.3,6.1-5.3,13.1-10.3,18.1c-8.4,8.3-12.8,17-12.6,27.6C160.2,238,152.6,238,144.9,238z"/>
		<path class="st0" d="M0.2,185.2c4.4-5.8,9.8-11.3,12.9-17.6c2.3-4.7,5.4-7.2,11-8.5c2.2-0.5,4.3-1.5,6.6-2.4
			c3.3,8.3,0.4,15.5-8.4,20C10,183.2,5,192.5,2.4,203.3c-0.4,1.5-1.4,2.9-2.2,4.4C0.2,200.2,0.2,192.7,0.2,185.2z"/>
		<path class="st0" d="M247.4,238c5-8,10-16.1,15-24.1c0.6,0,1.2-0.1,1.8-0.1c1.6,3,3.1,6,5,8.8c1.4,2.1,3.2,4.2,5.3,5.8
			c4.4,3.4,9.2,6.4,13.9,9.6C274.8,238,261.1,238,247.4,238z"/>
		<path class="st0" d="M603.2,215.5c-1.5-0.4-3.1-0.6-4.6-1.1c-16.2-5.9-33-9.5-51-9.6c-4.2,0-8.4-1.6-12.6-3.2
			c11.5,1.6,21.2-3.1,31.7-4.9c7.3-1.3,15.3,0.4,22.9,0.7c0,0.6,0,1.2,0,1.8c-4.9,0-9.7,0-14.6,0c-0.2,0.6-0.4,1.3-0.5,1.9
			c9.6,3.1,19.1,6.3,28.7,9.4C603.2,212.3,603.2,213.9,603.2,215.5z"/>
		<path class="st0" d="M444,238c-0.8-1.7-1.3-3.5-2.3-5c-4.1-5.7-3.3-11.7-2-18.6c2,1.7,3.6,2.8,4.8,4.2c3.7,4.2,8.4,6.4,14.7,8.3
			c5.9,1.7,10.1,7.3,15.1,11.2C464.1,238,454.1,238,444,238z"/>
		<path class="st0" d="M0.2,109c12.2-8.8,24.4-17.6,37.8-27.2c-5.9,11.9-11.4,23-16.9,34c-0.6-0.1-1.1-0.2-1.7-0.3
			c0.1-2,0.5-4,0.2-5.9c-0.1-1.1-1-2.7-2.1-3.1c-0.9-0.3-2.8,0.6-3.9,1.3c-4.6,3.3-9.1,6.7-13.6,10.1C0.2,114.8,0.2,111.9,0.2,109z"
			/>
		<path class="st0" d="M0.2,171.5c2.9-3.2,6.9-6.1,8.6-9.7c4.1-8.7,12.6-12.4,22.3-15.6c0,6.9-2.2,9.7-9.2,11.5
			c-5.3,1.4-8.3,3.9-10.5,8.4c-2.8,5.7-7.4,10.9-11.3,16.3C0.2,178.7,0.2,175.1,0.2,171.5z"/>
		<path class="st0" d="M200.4,238c0.1-4.7,0.2-9.4,0.3-14.1c0.1-3.7,1.2-7.1,6.3-8.3c1.4,7.5,2.8,15,4.2,22.4
			C207.6,238,204,238,200.4,238z"/>
		<path class="st0" d="M40,238c4.5-6.1,9-12.2,14.1-19.2c3.6,6.9,4,13,0.4,19.2C49.7,238,44.8,238,40,238z"/>
		<path class="st0" d="M0.2,120.7c5.4-3.6,10.9-7.3,16.2-10.9c1.9,9.2,0.1,12.1-9.8,16c-2.2,0.8-4.3,1.8-6.4,2.7
			C0.2,125.9,0.2,123.3,0.2,120.7z"/>
		<path class="st0" d="M123.2,238c1.6-6.1,3.1-12.2,5-19.4c7.7,5.8,4.6,13.6,8.3,19.4C132.1,238,127.6,238,123.2,238z"/>
		<path class="st0" d="M603.2,71.8c-1.8,2.5-4.3,4.9-5.1,7.6c-1.5,4.9-3.8,8.7-11.4,10.4c1.1-2.4,1.8-4.2,2.6-5.9
			c0.9-2,2.9-4,2.7-5.8c-0.8-6.9,5.3-8.4,11.2-10.2C603.2,69.2,603.2,70.5,603.2,71.8z"/>
		<path class="st0" d="M603.2,123.6c-4.4-4.3-8.8-8.5-13.2-12.8c0.3-0.4,0.6-0.9,0.9-1.3c4.1,0.8,8.2,1.6,12.3,2.3
			C603.2,115.8,603.2,119.7,603.2,123.6z"/>
		<path d="M603.2,129.5c-2.6-1-5.2-2-9.3-3.5c2.7,5.6,5,10.1,7.2,14.6c-0.5,0.3-0.9,0.5-1.4,0.8c-2.5-1.9-5-3.8-7.5-5.6
			c0.2-0.3,0.4-0.6,0.6-0.9c0.9,0.2,1.7,0.5,3.3,0.9c-2.1-4.6-4-8.9-6.4-14.2c5.5,2.5,9.5,4.3,13.6,6.1
			C603.2,128.2,603.2,128.8,603.2,129.5z"/>
		<path class="st0" d="M189.5,238c2.4-3.3,4.8-6.6,7.1-9.9c0.4,0.1,0.9,0.1,1.3,0.2c0,3.2,0,6.5,0,9.7
			C195.2,238,192.4,238,189.5,238z"/>
		<path class="st0" d="M441.1,89c5.7-8.7,11.1-17.5,17.4-25.9c3.5-4.7,6.9-9,5.5-14.9c-0.3-1.4,1.8-3.8,3.6-4.8
			c2.6-1.4,6-1.8,8.9-2.9c5.1-1.8,5.4-4.4,1-7.2c-3.1-1.9-6.1-4-9.7-6.4c10.8-1.6,19.5,5.5,16.4,12.7c-2.8,6.4-7,12.4-10.5,18.6
			c-0.5,0.9-0.9,1.9-0.4,3.8c1.6-1,3.5-1.7,4.8-2.9c4-3.8,7.7-7.9,11.7-11.7c5.6-5.3,11.2-10.6,17.2-15.5c2.3-1.9,6.1-2.6,10.7-4.4
			c-3.5,5.2-6,9.1-8.6,12.9c0.7,0.4,1.3,0.7,2,1.1c8.1-3,13.9-7.7,16.3-16.6c5,6.3,6.2,12.1,7.1,17.9c1.5,9.1,4.1,17.9,10.8,25.6
			c0.9,1,1.8,2,3.9,4.3c2.2-8.4-3.5-14.6-3.3-22.3c8.1,9.7,13.3,20.2,25.8,26.1c-4.4-7.2-8.7-14.4-12.4-20.4
			c5.8,4.2,12.7,8.9,19.3,13.9c2.6,1.9,6.8,4.9,6.3,6.5c-1.3,3.8-4.1,8-7.9,10.5c-6.3,4.2-13.9,7.1-18.5,12.9
			c-0.6,0.8-3.7,1-5.2,0.6c-8.9-2.2-17.4-3.6-25.7,1.9c-1.6,1-5.9,0.2-8.4-0.7c-9.2-3.2-18.2-6.9-27.3-10.4
			c-3.6-1.4-7.3-2.8-10.9-4.2c-9.5-3.7-18.8-5.4-28.3,0.4c-2.6,1.6-6.3,1.9-9.4,2.8C442.4,89.9,441.7,89.5,441.1,89z"/>
		<path class="st0" d="M111.9,125c0-0.2-0.1-0.4,0-0.5c6.4-10.2,12.6-20.5,19.3-30.7c0.9-1.4,4.2-3,5.5-2.6
			c14.9,4.1,29.7,8.6,44.5,13c0,0.5,0,1,0,1.6c-3.5,0.7-7,1.7-10.5,2c-4.2,0.4-8.4,0.6-12.6,0.4c-13.4-0.6-23.2,10.3-25.6,17.1
			c-0.2,0.5,0.2,1.2,0.3,1.8c0.8,0,1.6,0.2,2,0c10.8-7,23.7-9.9,36.7-13c15.8-3.7,26.6-12.8,34.6-24c4.2-5.8,8.3-10.9,17.3-12.5
			c2.5-0.5,5.1-4,6-6.5c1.9-5.3,2.4-10.9,4.2-16.2c0.5-1.7,3.8-4.3,4.6-4.1c3.2,1,6.3,2.7,8.7,4.8c0.7,0.6-0.6,3.7-2,4.8
			c-4.9,4-6.8,9-8.6,14.2c-1.2,3.4-3.6,6.7-6.4,9.4c-4.2,4.1-9.3,7.7-13.6,11.7c-1.2,1.1-1.1,3-1.6,4.6c1.7-0.4,3.6-0.6,5.2-1.2
			c1.9-0.8,3.6-1.9,5.8-3.1c-0.4,6.2-0.9,11.9-1.4,19.1c2-1.9,3.5-2.9,4.3-4.2c4.4-7.5,8.8-15,12.9-22.6c1.6-3.1,3.1-6.5,3.4-9.8
			c0.8-8.2,9.9-11.1,15.1-16.3c0.3-0.3,3.9,0.7,4.7,1.7c0.7,0.9,0.3,3.2-0.7,4c-5.5,4.4-9.2,9.6-9.2,15.9c0,2,2.2,4,3.3,6.1
			c2.1-1.3,4.7-2.2,6.1-3.9c1.5-1.8,2.1-4.2,2.9-6.4c1.7-4.8,4-6.1,9.6-4c6.7,2.5,13,5.7,19.3,8.8c2.9,1.4,5.4,3.3,9.4,5.8
			c-11.1,2.7-21,5.6-31.1,7.6c-6.6,1.3-12.1,2.9-15.1,8.4c-1,1.9-3.3,3.2-4.8,5c-5.1,5.8-10.7,11.3-15.1,17.4
			c-4.7,6.5-10.4,8.9-18.7,5.2c-8.2-3.7-15.9-8.1-23.4-12.7c-4-2.5-6.8-2.8-10.5-0.1c-6.5,4.8-13.3,9.4-19.7,14.4
			c-13.9,10.7-22.4,11.4-38.7-0.6c-1.5-1.1-2.5-2.6-4.1-3.6c-3.6-2.5-7.4-4.8-11.1-7.2C112.6,124.4,112.3,124.7,111.9,125z"/>
		<path class="st0" d="M84.5,162.6c-10.6-7.6-21.5-15.1-31.8-23c-3.7-2.8-9.7-5.3-6.4-11.2c3.4-6.2,7.1-11.7,17.2-11.3
			c4.2,0.2,8.4-0.8,12.6-0.7c6.5,0.2,11.3,2.9,14.2,7.8c1.1,1.9,2.5,3.7,3.6,5.7c3.2,5.7,9.3,6.8,16.1,6.5c4.5-0.2,7.7,1.2,11.5,3
			c5.6,2.6,12.1,4,18.4,5.6c7.9,1.9,8.9,2.1,7.4,8.7c-2,9.1,1.1,17,5.8,24.9c0.7,1.1,1.3,2.6,0.9,3.6c-5.1,12.4-12.4,23.7-26,31.5
			c-0.3,0.2-0.8,0.1-2.1,0.3c-1.5-5.4-3.7-10.8-4.5-16.3c-2.3-14.7-11.7-24.9-28-31.3c-3.1-1.2-6-2.6-9-3.9
			C84.3,162.5,84.5,162.6,84.5,162.6z"/>
		<path class="st0" d="M384.8,159.3c2.9-8.1,13.6-8.9,20-13.7c-2.9-3.8-7-2.9-10.4-2.2c-6.4,1.3-12.6,3.4-18.9,4.9
			c-4,1-8.1,2.1-12.2,2.5c-8.3,0.7-12.8-2.3-14.4-9c-0.5-2.2-0.9-4.4-1.5-7.5c4.5,0.4,8.6,0.3,12.2,1.3c5,1.3,8.2-0.2,12-2.6
			c5.1-3.3,10.4-6.7,16.3-8.7c12.5-4.2,24.9-8.1,34.7-16.1c1.6-1.3,3.9-2.2,7-3.8c-2.8,8.9-8.5,16.5-4.1,26.1
			c5-3.1,6.7-7.3,7.5-11.7c1.7-9.7,4.1-14.2,11.7-21.7c12.1,5,24.2,9.9,36.9,15.1c-6.8,4.7-8.8,11.3-8.5,18.6
			c-8,0.1-13.4,4-17.2,8.4c-8.9,10.4-21.8,16-34.7,22c-6.4,3-11.8,4.8-19.2,1.5C397.2,160.7,390.9,160.5,384.8,159.3z"/>
		<path class="st0" d="M56.6,81.7c3.5-0.4,7-0.9,10.6-1.2c1.2-0.1,3.4,0.4,3.5,0.8c0.1,1.1-0.2,2.6-1.1,3.4
			c-1.9,1.7-4.1,3.1-6.4,4.4c-4.7,2.7-6.1,6.2-4.2,11.4C80,91.1,92.6,75,110.3,62.7c-3.6,10.3-7.1,20.7-10.7,31
			c0.3,0.1,0.6,0.3,1,0.4c0.9-0.8,1.9-1.5,2.6-2.3C115.3,77.8,125.1,63,130,46.2c0.6-1.9,1.1-3.8,2-5.6c2.1-3.7,4.2-8,10.4-7.3
			c6.6,0.7,10.7,5.3,10.9,10.6c0.5,9.1,1.1,18.1,1.8,27.2c0.1,1,0.4,1.9,0.5,2.9c0.3,2.9,2.3,7,0.7,8.3c-4.5,3.8-9.4,8.3-17.4,6.5
			c-5.1-1.1-9.4,0.2-13.2,3c-2.4,1.7-5.5,2.8-7.7,4.6c-2.6,2.2-5.5,4.8-6.7,7.6c-3.4,7.6-10.7,12.5-18.5,10.9
			c-3.2-0.6-6.4-2.1-8.9-3.9c-6-4.2-11.5-3.9-17.9-0.4c-6.3,3.4-10,2.3-13.6-3.2c-0.8-1.3-1.2-3.2-0.8-4.6c1.4-4.2,3.7-8.3,4.9-12.5
			C57.2,87.7,56.6,84.8,56.6,81.7z"/>
		<path class="st0" d="M397.6,63c7-1.2,2.5-10,12.1-9.7c-3.7,5.2-6.9,10-10.5,14.6c-0.7,0.9-3.4,1.5-4.8,1.1
			c-5.1-1.3-10.6-2.4-14.9-4.7c-4-2.2-6.9-5.7-9.8-9c-3.8-4.4-10.1-6.6-17.3-5.4c0.7,8.5-5,13.4-14.4,15.6
			c-10.6,2.5-15.2,9.5-20.4,16.3c-4.2,5.6-7.3,6.7-14.1,3.5c-12.6-5.9-17.2-10.5-11.4-21c2.6-4.7,4.9-9.7,6.3-14.7
			c1.2-4.2,0.8-8.6,1.2-12.9c0.4-4.7,0.5-9.6,1.6-14.2c1-4.2,3.2-8.1,5.1-12.7c9.3,5.3,19.1,11.2,27.3,18.8c0.5,0.4,0.7,1.2,0.7,1.8
			c0,8.1-0.2,16.3-0.2,24.4c0,0.4,0.3,0.9,0.7,2.1c1.2-1.1,2.3-1.7,2.6-2.6c1.5-3.9,3.1-7.7,4-11.7c2-8.9,1.9-8.9,11.4-17.8
			C362.9,41.7,380.5,52.4,397.6,63z"/>
		<path class="st0" d="M352.6,132.3c2.7-7.2,5.1-14.4,8.2-21.3c1.2-2.8,3.3-5.7,5.9-7.8c19.8-15.6,39.9-31,59.9-46.4
			c3.6-2.8,7.6-5.1,3.2-9.7c-0.7-0.7-0.1-2.6,0.6-3.6c5.4-8.7,14.9-14.4,24.3-19.9c0.6-0.4,4.5,1.3,4.4,1.9c-0.2,2.8-0.5,6-2.2,8.3
			c-6.8,8.6-10.3,17.7-11.9,27.8c-1.6,9.8-4.8,19.4-7.5,29c-0.3,1.2-2,2.4-3.5,3.1c-4.4,2-8.9,3.7-13.4,5.5c-3.8,1.5-8,2.6-11.1,4.8
			c-13.8,9.2-30.6,15.7-40.9,28.3c-1,1.2-4.2,2-6.2,1.9C358.8,133.8,355.3,132.8,352.6,132.3z"/>
		<path class="st0" d="M366,166.3c-9.6,4.2-19.2,8.4-28.8,12.5c-0.7,0.3-1.7,0.3-2.2,0.8c-7.9,5.9-15,2.1-22-1.2
			c-1.9-0.9-3.4-2.6-4.6-4.2c-3.6-5-7.8-8.9-14.1-12.4c-8.6-4.8-15.9-3.8-24.7-2.5c-5.5,0.8-11.5-0.8-17.2-0.8
			c-10.3,0-20.7,0.4-31.3,0.2c5.7-1.2,11.4-2.8,17.2-3.5c11.9-1.5,23.9-2.4,35.8-3.9c5.5-0.7,11.3-1.5,16.3-3.4
			c5.1-2,9.7-5,13.7-8.2c4-3.2,6.7-7.3,10.4-10.8c6.2-5.9,11.8-5,15,2.5c2,4.8,4,9.6,5.5,14.5c2.6,8.6,10,13,19.6,15.6
			c3.6,1,7.2,1.8,10.8,2.7C365.4,164.9,365.7,165.6,366,166.3z"/>
		<path class="st0" d="M367.1,57.5c6.7,7.4,12.6,14.7,25.5,14.7c0,0.5,0,1.1,0.1,1.6c-7.9,7.9-15.5,16-23.6,23.7
			c-4.7,4.4-11.7,4-17.3,2.2c-3.5-1.1-5.8-0.9-8.8-0.1c-10.7,3-21.6,5-33.8,1.6c1.6-1.6,2.7-3,4.2-4.2c11-8.6,22.5-16.7,37.5-20.6
			c2.5-0.6,4.8-1.6,7.2-2.4c8-2.8,8.4-3.4,5.8-10.3C362.7,60.9,362.8,58.7,367.1,57.5z"/>
		<path class="st0" d="M84.2,183.8c0,6.8-4.5,11.4-9.9,15.2c-5.2,3.7-11.1,6.8-17.2,10.3c-0.2-1.2-0.6-2.3-0.7-3.5
			c-1-10.8-4.4-21-10.1-30.9c-5.8-10.1-8.9-20.9-6.3-32.2c0.5-2,1-4,1.7-6.4c8.1,5.5,11.4,12.6,15.3,19.5
			c3.7,6.5,7.5,12.9,11.6,19.2C72,179.9,76.3,183.9,84.2,183.8z"/>
		<path class="st0" d="M256.4,140.2c10.1-6.7,19.8-15,31.6-20.3c11.7-5.2,24.6-10.8,39.4-7.1c4.2,1.1,7.9,0.1,10.6-3
			c0.9-1.1,2.1-2,3.2-2.9c6.4-5.9,8.9-6.4,19.1-3.4c-4.4,9.4-8.8,18.8-13,27.9c-8.6-3.5-15.7-6.5-22.9-9.3c-1.3-0.5-3.1-0.6-4.5-0.4
			c-5.9,1-11.7,2.4-17.6,3.3c-10.2,1.6-18.5,5.4-24,12.6c-2.7,3.5-6.8,4.4-11.5,3.9C262.9,141.1,259,140.5,256.4,140.2z"/>
		<path class="st0" d="M428.1,204.3c0.7,5.5,1.4,10.9,2.2,17.3c-2.2-1.7-4.3-2.9-5.6-4.5c-7.7-8.9-16.9-16.5-28.4-22.2
			c-1.9-0.9-3.5-2.2-5.1-3.4c-7.3-5.6-7-9.2,2.1-13c5.6-2.3,12-3.4,18-5.1c2.6-0.8,5-1.8,7.5-2.8c4.2-1.7,8.3-3.5,12.4-5.2
			c0.3,0.3,0.6,0.6,0.9,0.9c-2.7,6.2-7.1,12.2-7.7,18.5c-0.7,6.4,2.4,13.1,3.8,19.6L428.1,204.3z"/>
		<path class="st0" d="M206.4,75.6c-7.3,6.2-14.8,12.8-22.8,18.9c-1.7,1.3-5.7,1.6-8.2,1.1c-8.3-1.6-16.4-3.8-24.7-5.8
			c0.4-0.6,0.6-1.2,1-1.4c10.9-4.6,11.2-12.9,11.3-21.3c0.1-4,0-8,1.3-12.6c2.5,2.9,4.8,6,7.7,8.6c1.4,1.3,3.8,2.3,6,2.6
			c0.7,0.1,2-2.5,2.5-3.2C188.4,66.7,196.7,70.8,206.4,75.6z"/>
		<path class="st0" d="M239.4,142.9c0.3-3.3-0.6-6.9,1.2-9.1c3.7-4.6,8.5-8.7,13.5-12.5c1.8-1.4,5.4-1.2,7.8-2.3
			c3.8-1.6,8.4-3,10.7-5.6c10.2-11.5,25.6-16.6,39.9-23.1c0.5,0.4,1,0.7,1.5,1.1c-3.3,3.5-5.7,8.1-10,10.1
			c-8.7,4-13.1,10.8-19.2,16.5C272,129.6,255.9,137,239.4,142.9z"/>
		<path class="st0" d="M84.3,162.5c4.2,2.4,8.2,5.1,12.5,7.2c11.2,5.6,18.5,13.3,20.5,24c0.7,3.8,1.8,7.6,2.8,11.8
			c-7-2.9-12-9.8-10.9-15.5c0.7-3.5-0.9-5.5-4-7.4c-6.2-3.8-12.2-7.6-18.4-11.4c-0.7-0.4-1.8-0.4-3.3-0.7c0.3,2.8,0.6,5.3,0.8,7.8
			c0.2,3.6-2.5,4.4-5.8,3c-2.4-1-4.8-2.6-6.1-4.5c-4.2-6.1-8.1-12.3-11.8-18.6c-3-5-5.6-10.2-7.7-15.8c6.5,4.7,12.9,9.6,19.6,14.1
			c3.6,2.4,7.9,4.1,12,6.1C84.5,162.6,84.3,162.5,84.3,162.5z"/>
		<path class="st0" d="M312.8,126c-8.5,13.9-21.7,22.2-41.2,23.9c-19.4,1.6-39.2,2.1-58.4,9.3c5.2-10.4,13.4-17,24.9-21.5
			c-4.1,4.4-8.1,8.8-13,14c2.6,0,4,0.3,5,0c5.4-1.8,11-3.3,15.9-5.7c5.9-2.9,11.7-3.9,18.4-2.7c6.8,1.2,12.3,0,16.8-4.9
			C288.6,130.1,299.5,126.2,312.8,126z"/>
		<path class="st0" d="M550.7,102.8c-8.2,1-10.4,3.9-7.2,9.7c-5.5-0.6-9.9-1.1-14.4-1.6c-8.5-0.8-10.1,0.5-9,7.4
			c0.4,2.7,1.1,5.3,1.7,8c-0.6,0.4-1.2,0.8-1.9,1.1c-2.3-1.9-5.4-3.4-6.6-5.6c-6.4-12-19.5-19.2-30.3-28c-6.2-5.1-14.4-4.1-22.2-3.2
			c-3.7,0.4-7.5,1.1-11.7,1.7c7.8-6.4,15.6-8.2,24.8-5.1c11.8,4,23.4,8.6,35,12.9c3.6,1.4,7.3,2.7,10.9,4c4.2,1.6,7.9,1.4,11.7-1.1
			C536.9,99.5,543,100,550.7,102.8z"/>
		<path class="st0" d="M329.7,126.6c8.9,1.9,15.4,5.3,16.2,12.8c1.7,14.6,13.8,16.5,28.2,12.2c6.8-2,13.6-3.9,20.4-5.8
			c1-0.3,2.2-0.2,3.6,0.1c-7.3,4-15.6,7.1-17.5,15.6c7.9,1.1,16,2.2,24.2,3.4c0,0.7-0.1,1.4-0.1,2.1c-3,0.3-6.1,1.2-8.9,0.7
			c-15.2-2.9-30.4-5.8-45.2-9.6c-6.8-1.7-11.4-6.3-13.4-12.3C335.1,139.6,332.4,133.5,329.7,126.6z"/>
		<path class="st0" d="M111.4,58.7C94.1,71.2,81.2,86.8,61.3,97.6c-0.9-5.2,3.4-6.8,6.5-9c3.5-2.5,7.6-4.6,5.8-8
			c11.6-9.3,22.7-18.2,33.9-26.9c1.4-1.1,3.8-1.3,5-1.7c5.7-5.1,11.3-10.2,16.8-15.2c0.5,0.3,0.9,0.6,1.4,1
			c-4.6,16.9-11.6,33-25.3,47.8C105.6,75.9,113,68,111.4,58.7z"/>
		<path class="st0" d="M260.3,54.6C277,40,291,24.8,300,6c3,4.3,3.7,8.1,1,12c-4.3,6.4-5.7,12.9-3.4,20.2c1,3.3-0.4,7.2-0.7,10.8
			c-1.6,0-2.1,0.1-2.3,0c-3.5-2.9-7.2-5.5-12.6-3.6c-5.4,1.9-8.5,5.1-9.4,10c-0.4,2.3-1.9,4.4-3.3,7.3
			C265.8,59.5,263.2,57.2,260.3,54.6z"/>
		<path class="st0" d="M462.9,23.9c4.2,3.7,9.4,8.2,15.3,13.3c-3.4,1.2-6.6,2.3-9.8,3.3c-5.1,1.7-8.6,3.8-6.8,9.2
			c0.7,2.1,0.1,5.1-1.2,7.1c-6.2,9.2-12.9,18.2-20,28.1c0.6-2.4,0.9-4.1,1.4-5.8c0.5-1.7,1.1-3.5,1.6-5.2c1.6-5.7,2.8-11.5,5-17.1
			c2.7-7.1,6.3-13.9,9.5-20.9C459.6,32,461.2,28,462.9,23.9z"/>
		<path class="st0" d="M323.1,185.1c-10.5,9.4-22.4,15.6-35.4,20.6c-0.6-0.3-1.2-0.5-1.9-0.8c5.4-11.6,10.8-23.2,16.6-35.5
			C305.6,177.2,312.9,182.2,323.1,185.1z"/>
		<path class="st0" d="M34.9,152.2c4.4,10.3,9.7,20.8,13.4,31.6c3,8.7,4.2,17.8,5.9,26.7c0.3,1.3-0.5,2.8-2.1,4.3
			c-0.9-2.6-1.7-5.3-2.7-7.9c-3.1-7.9-6.2-15.8-9.3-23.6c-1.6-3.9-5.1-3.7-8.7-2.2c-7.1,3-9.6,7-8.9,13.6c0.2,2.1,0.7,4.3,0,6.3
			c-0.5,1.4-2.6,2.4-4,3.6c-0.9-1.4-2.7-2.9-2.7-4.3c0.1-2.5,0.6-5.3,2.1-7.5c3.7-5.4,7.3-11,12.2-15.5c4-3.6,4.9-7.1,4.7-11.5
			C34.7,161,34.9,156.2,34.9,152.2z"/>
		<path class="st0" d="M365.9,187c-4.9,0-9.9,0.2-14.8,0c-7.6-0.4-8.4,0.2-7.5,6.3c0.2,1.1,0,2.2,0,5c-3-1.8-5.6-2.7-6.7-4.3
			c-2.4-3.5-5.4-3.6-9-1.9c-5.3,2.6-10.2,5.7-15.6,8.2c-7.9,3.6-16.2,6.9-24.3,10.2c-0.8,0.3-2,0.3-3,0.3c-0.5,0-1-0.3-2.2-0.7
			c1.4-0.9,2.3-1.7,3.5-2.1c13.2-4.4,24-11.5,34.8-18.9c5.6-3.9,12.8-6.4,19.4-9.4c1.1-0.5,2.9-0.8,4.1-0.4
			c7.1,2.3,14.2,4.7,21.2,7.2C365.9,186.6,365.9,186.8,365.9,187z"/>
		<path class="st0" d="M347,177.7c17.4-4.8,32.2-12.9,51-5.8c-8.8,4.8-13.7,14.1-25.8,12.9C364.2,184,355.6,182.8,347,177.7z"/>
		<path class="st0" d="M389.5,82.7c7-9,13.7-17.2,20.1-25.6c1.3-1.7,1.6-3.8,2.4-5.7c-1.3-0.2-2.9-0.9-3.8-0.5
			c-2.6,1.1-5.1,2.5-7.4,4.1c-0.7,0.4-0.4,1.7-0.7,2.9c-3.7-1.5-4.5-3.1-1.1-5.1c3.9-2.2,8-4.4,12-6.4c7.5-3.8,15.1-7.6,23.7-12
			c-2.2,2.7-4,4.6-5.2,6.7c-1.1,2-2.8,4.9-1.8,6.3c2.8,4.1-0.3,5.9-3.2,8.1C413.1,64.5,401.7,73.3,389.5,82.7z"/>
		<path class="st0" d="M286,74.6c-3.8-2.6-8.9-6.1-14-9.7c-0.5-0.4-0.9-1.3-0.7-1.7c1.9-4.2,3.4-8.7,6.1-12.5
			c2.2-3.1,6.3-5.2,11.3-3.2c5.2,2.1,5.5,5.6,4.1,9.5C290.5,63.3,288,69.5,286,74.6z"/>
		<path class="st0" d="M210.5,162.1c14.5-0.5,29-1,43.5-1.5c7.5-0.2,15-0.4,22.5-0.6c0.4,0,0.8-0.1,1.2-0.2c5.2-1.3,9.3-0.1,14,4.7
			c-13.5,0.5-25.7,1.5-37.9,1.4c-12.4,0-24.7-1-38.6-1.7c1.4,3.7,2.7,6.9,3.9,10.1c-0.4,0.2-0.9,0.5-1.3,0.7
			c-3-3.6-5.9-7.3-8.9-10.9C209.4,163.4,209.9,162.8,210.5,162.1z"/>
		<path class="st0" d="M404.8,171.2c15.1-7.2,30.3-14.4,45.3-21.6c-4,11.3-6.8,23.5-22.3,30.5c2.1-3.7,4.3-7.4,6.1-11.3
			c0.7-1.4,0.4-3,0.5-4.6c-1.9,0.1-3.9-0.2-5.6,0.3c-4.2,1.5-8,3.6-12.2,5c-3.6,1.2-7.6,1.6-11.4,2.4c-0.1,0-0.4-0.1-0.5-0.2
			C404.7,171.5,404.8,171.3,404.8,171.2z"/>
		<path class="st0" d="M64.2,114.9c9-6.1,10.9-6.5,18.6-2c6.8,3.9,13.1,8.5,19.2,13.1c3.2,2.4,5.7,4,10.5,2.6
			c2.2-0.6,6.1,0.7,8.2,2.2c4.7,3.3,8.7,7.1,12.5,11.6c-3.8-1.6-7.5-3.3-11.5-4.7c-3.7-1.3-7.6-3.1-11.4-3.1c-7.8,0-13.2-1.7-16.6-8
			c-5.6-10.5-11.6-13-25.6-11.8C67.3,114.8,66.3,114.8,64.2,114.9z"/>
		<path class="st0" d="M428.2,204.5c0-3.8,0-7.7,0-10.7c11.3,10,22.9,20.3,34.5,30.6c-0.1,0.4-0.3,0.7-0.4,1.1
			c-4.3-1.7-9.1-2.9-12.8-5.2c-3.9-2.5-6.7-6.1-10-9.2c-0.7,0.2-1.4,0.4-2.1,0.6c-0.4,3.8-0.7,7.6-1.1,11.4
			c-0.8,0.1-1.5,0.2-2.3,0.3c-2-6.4-3.9-12.7-5.9-19.1C428.1,204.3,428.2,204.5,428.2,204.5z"/>
		<path class="st0" d="M226.8,104.7c0.9-4,1.9-8,3.1-13.3c-4.6,2.5-7.8,4.2-11.1,5.9c-0.3-0.3-0.7-0.5-1-0.8
			c4.2-3.4,8.3-6.9,12.8-10c4.3-3.1,7.2-6.2,8.4-11.2c1.1-4.8,5.3-9.1,8.3-13.6c1.1-1.7,2.7-3.1,4.4-5c1.7,1,3.5,2.1,5.8,3.5
			c-1.6,1.7-2.5,3.4-4.2,4.4c-7.5,4.6-10.2,10.8-12.4,18.1c-2.5,7.8-8.3,14.9-12.6,22.3C227.8,104.8,227.3,104.7,226.8,104.7z"/>
		<path class="st0" d="M522.5,25.9c-12.5-0.7-19,5.5-25.4,11c-6.6,5.6-11.9,12.1-18.8,17.9c0.7-1.3,1.3-2.6,2-3.9
			c1.2-2,3.3-4,3.7-6.1c1.9-11.3,12.4-15.5,23.5-19.3c3.9-1.3,7.6-2.9,11.5-4.3c4.8-1.7,6-1,5.9,3.4c-0.1,5.7-4,10.3-12.9,13.7
			c2.2-2.8,3.5-4.6,5-6.4C518.5,30.2,520.1,28.6,522.5,25.9z"/>
		<path class="st0" d="M189.8,101.9c2-6.2,5.9-11.6,11.5-16.3c4.6-3.8,9.5-7.5,14.2-11.2c1.1-0.9,2.4-1.8,3.2-2.9
			c2-2.6,1.1-3.9-4.1-3.2c5.4-4.1,9.9-7.5,15.8-11.9c-1.1,5.9-1.3,10.5-2.9,14.7c-0.8,2.1-3.7,4.8-6.1,5.2
			c-8.2,1.4-12.3,5.8-16.2,11.2c-3.8,5.4-8.7,10.3-13.1,15.4C191.4,102.7,190.6,102.3,189.8,101.9z"/>
		<path class="st0" d="M541.6,46.8c1.9,6.3,3.8,12.7,5.7,19.3c-6.8-4.5-12.8-20.3-12.8-32.9c15.1,9,22.7,22.1,29.4,35.6
			c-0.4,0.2-0.8,0.5-1.3,0.7c-6.1-7.9-12.2-15.8-18.3-23.8C543.5,46,542.5,46.4,541.6,46.8z"/>
		<path class="st0" d="M284.7,99.1c-5.2,5-10,10.1-15.6,14.5c-2.8,2.2-7.1,3.3-11,4.6c-3.1,1-6.4,1.6-11,2.7c2.7-2.5,4.5-4.3,6.4-6
			c2-1.8,4.9-3.2,6.1-5.3C264.7,100.2,274.8,99.8,284.7,99.1z"/>
		<path class="st0" d="M107.3,127.5c-4-3.4-7-6-10.8-9.2c9.9-1,14.1-6.5,16.6-12.2c2.5-5.6,7-8.9,14.4-12.2
			C120.5,105.6,114.2,116.1,107.3,127.5z"/>
		<path class="st0" d="M436.3,96.6c-16.2,9.8-30.2,22.6-52.7,25.8C400.3,111.8,415.8,101.1,436.3,96.6z"/>
		<path class="st0" d="M152.6,172.5c-4.7-6.2-4.4-12.7-2.4-18.9c10.5,7.9,21.3,15.9,32.1,24c-0.4,0.5-0.8,1-1.2,1.4
			c-6.3-2.9-12.6-5.9-18.9-8.8c-2.3-1.1-4.5-2.3-6.7-3.5C154.6,168.6,153.6,170.5,152.6,172.5z"/>
		<path class="st0" d="M299,170.3c-1.9,4.4-3.6,8.9-5.6,13.3c-2.7,5.8-5.9,11.3-8.3,17.2c-2.6,6.2-5.5,7.8-14.9,6.5
			c3.2-4.7,5.7-9.8,9.7-13.9c7-7.3,14.3-14.3,16.9-23.8C297.5,169.8,298.3,170,299,170.3z"/>
		<path class="st0" d="M56.1,113.9c-3.6,3.4-7,6.5-11.1,10.3c-0.8-14.7-4-28.7,9.2-41c0,2,0.5,4-0.1,5.8c-1.4,4.2-3.8,8.2-4.7,12.5
			c-0.5,2.5,0.7,5.5,2,8C52.1,111.2,54.4,112.4,56.1,113.9z"/>
		<path class="st0" d="M158.7,74.2c-1.1-10.8-2.2-21.7-3.3-33.2c9.4,3.7,20.4,15.6,21.9,23.8c-2.2-1.6-3.6-2.5-4.7-3.6
			c-1.9-1.9-3.2-4.2-5.3-5.9c-1.4-1.2-3.5-1.7-5.3-2.6c-0.7,1.6-2.1,3.1-2.1,4.7c0,4.9,0.5,9.7,0.7,14.6c0,0.7-0.4,1.5-0.6,2.2
			C159.6,74.2,159.1,74.2,158.7,74.2z"/>
		<path class="st0" d="M295.2,114.1c5.8-5.7,10.6-11.5,22-9.5c7.2,1.3,15.4-0.6,22.8-1c-3.9,6.6-7.3,8.2-15.9,6.4
			c-7.5-1.6-14.3,0-21.1,2C300.4,112.8,297.8,113.4,295.2,114.1z"/>
		<path class="st0" d="M161.2,141.8c4.2-3.2,7-5.5,10-7.6c3.4-2.4,7-4.7,10.9-7.3c-2.5,9.1-4.8,17.7-7.1,26.3
			c-0.6,0-1.2,0.1-1.9,0.1c-0.9-2.6-2.9-5.5-2.4-7.9c0.9-3.7-0.3-4.5-4.3-3.9C165.3,141.7,164.1,141.7,161.2,141.8z"/>
		<path class="st0" d="M488.8,113.9c6.8,6.9,13.6,13.9,20.5,20.8c-13.6-1.8-23.9-7.3-22.2-19.8C487.6,114.6,488.2,114.3,488.8,113.9
			z"/>
		<path class="st0" d="M209.8,221.6c0-3.2,0-6.4,0-10.5c-2.8,1.7-4.4,2.7-7.5,4.6c4.3-11.8,15.8-17.9,22.1-26.8
			c0.6,0.3,1.3,0.6,1.9,0.8c-1.6,2.8-2.4,6.2-4.9,8.3c-5.6,4.7-7.4,10.2-8.1,16.4c-0.3,2.5-1.3,4.9-1.9,7.4
			C210.9,221.7,210.3,221.6,209.8,221.6z"/>
		<path class="st0" d="M269.8,65.5c3.8,2.9,7.2,5.4,10.6,8c-0.4,0.3-0.7,0.7-1.1,1c-1.1-0.2-2.3-0.5-3.4-0.7
			c-7.8-1.3-9.3-0.5-11.6,5.7c-1.2,3.1-3.1,6-5.6,8.7c-3.9-4.5-2-8.6,0.7-12.3C262,72.5,265.7,69.5,269.8,65.5z"/>
		<path class="st0" d="M136.9,121.8c5.3-5.9,10.5-11.3,20.5-11.4c6.5-0.1,13.1-0.4,19.8,0C164,114.1,150.8,117.9,136.9,121.8z"/>
		<path class="st0" d="M533,228.5c-1.5-2.4-2.8-4.9-4.6-7.2c-1-1.3-2.7-2.1-4.1-3.2c-1.2,1.2-2.6,2.3-3.4,3.6c-0.8,1.2-1,2.7-2.2,4
			c-3.6-8.4,2.9-15.8,3.1-25.1c4.6,3.8,7.9,6.5,12,9.8c-4.4-0.3-7.7-0.5-11.9-0.8c4.8,6.6,9,12.3,13.1,18
			C534.3,227.9,533.6,228.2,533,228.5z"/>
		<path class="st0" d="M249.9,227.3c1.1-15.4,14.2-24.4,24.9-34.6c0.5,0.3,1.1,0.5,1.6,0.8C267.7,204.5,259.1,215.6,249.9,227.3z"/>
		<path class="st0" d="M191.5,93.9c-1.8,3.2-3.6,6.3-5.4,9.5c-11.7-3.3-22.9-6.6-34-9.8c0.1-0.4,0.3-0.8,0.4-1.2
			c2.5,0.4,5,0.8,7.4,1.3c2.9,0.7,5.8,1.4,8.5,2.4c8.3,3.3,15.7,2.7,22.3-3.3C190.9,93.2,191.2,93.6,191.5,93.9z"/>
		<path class="st0" d="M336.5,43.8c0-4.7-0.8-9.6,0.2-14.1c1.2-5.9,3.5-6.6,12.6-5.4c-3.1,3.1-6.8,5.6-8.4,8.7
			c-1.7,3.3-1.4,7.3-2,10.9C338.1,43.9,337.3,43.9,336.5,43.8z"/>
		<path class="st0" d="M587.3,106.3c-7.7-0.9-15.3-1.8-24.3-2.9C571.2,99.2,579.8,100.2,587.3,106.3z"/>
		<path class="st0" d="M215.5,148.2c1.7-3.2,3.7-7,6-11.1c2.8,0.1,5.9,0.2,8.9,0.4c-0.5-0.3-0.9-0.6-1.4-0.8
			C224.4,140.5,219.9,144.5,215.5,148.2z"/>
		<path class="st0" d="M425.3,124.5c2-5.7,4-11.4,6.1-17.1c0.5,0.1,1.1,0.2,1.6,0.4c-1.5,5.8-2.9,11.6-4.4,17.5
			C427.5,125,426.4,124.7,425.3,124.5z"/>
	</g>
</g>
</svg>
