<svg version="1.1" id="mountains" xmlns="http://www.w3.org/2000/svg" xmlns:xlink="http://www.w3.org/1999/xlink">
<g id="TvAMOC.tif">
	<g>
		<g>
			<path class="st0" d="M0.8,138.2c0-45.9,0-91.9,0-137.8c244.4,0,488.7,0,733.3,0c0,101.7,0,203.5,0,305.2c-13.3,0-26.9,0-40.4,0
				c-0.9-1.5-2.1-2.9-2.7-4.5c-3.8-10.6-11.2-17.2-21.4-22c-9.5-4.4-18.1-10.7-27.1-16.2c11.6,0.9,22.5,4,33.3,3.8
				c12.8-0.2,24.7,2.1,36.6,6.4c6.5,2.4,13.3,4,19.9,6c0.1-0.5,0.3-1.1,0.4-1.6c-19-4.7-36.8-14.1-57.4-12.8
				c-8.4,0.5-17-2.3-26.2-3.7c10.8-1.8,20.9-2,29.9-5.2c13-4.6,25.2-1.9,37.7-0.3c0,0.6,0,1.1,0.1,1.7c-6.2,0-12.4,0-18.5,0
				c-0.1,0.8-0.3,1.6-0.4,2.5c11.6,3.6,23.2,7.3,34.8,10.9c0.2-0.7,0.5-1.4,0.7-2.1c-9.4-2.8-18.9-5.7-28.3-8.5
				c0.1-0.4,0.2-0.9,0.4-1.3c6.3-0.3,12.6-0.6,19-0.9c0-0.7,0-1.5,0-2.2c-14-3.6-28.4-7.7-42.7-2.4c-14.4,5.4-28.5,4.7-42.9,1.4
				c-1.3-0.3-3.1-0.9-3.6-1.9c-2.4-5.3-6-10.7-6.4-16.2c-0.5-8.1-3.8-13.4-10.3-17.5c-9-5.7-16.8-13.3-27.7-16.3
				c-7-1.9-12.9-6.9-16.2-14.2c4.6,1.7,9.2,3.4,12.8,6.4c24.5,19.8,53,20.7,81.6,15.5c15.2-2.8,29.8-4.4,45-2
				c6.1,1,12.3,1.2,18.4,1.8c0.1-0.7,0.2-1.4,0.3-2.2c-4.1-0.4-8.2-0.6-12.2-1.3c-18.4-3-36.3-2.9-54.8,1.8c-12.2,3-25.6,1.4-38.5,1
				c-5.5-0.2-11.4-1.7-16.4-4.2c-10.4-5.1-20.3-11.1-30.3-17.1c-3.8-2.3-8.3-4.5-8-9.3c11.4,4.6,22.9,9.1,34.4,13.7
				c14.6,5.9,29.1,7,44.1,0.9c7.2-2.9,15-2.2,22.1,2c-3.5,1.5-7.1,2-10.5,3.2c-1.4,0.5-2.3,2.1-3.5,3.2c1.4,0.6,2.8,1.9,4.1,1.8
				c6.1-0.5,12.2-1.1,18.3-2.1c14.4-2.4,28.7-4.7,43.2-0.4c2.5,0.8,5.2,1.1,7.8,1.6c-21.4-11.3-43.4-3.9-65.2-2.1
				c2.3-1.1,4.7-1.6,7-2.5c1.3-0.6,2.4-1.9,3.5-2.8c-1.1-1-2-2.4-3.3-3c-7.8-3.8-16.2-4.2-23.9-1.1c-15.1,6.1-29.5,4.8-44.1-1.4
				c-10.4-4.4-21-8.4-31.5-12.6c0.6-0.5,1.2-1,1.7-1.5c0.5-3.6,1.3-7.2,1.5-10.8c0.2-6.7,2.4-11.8,8.6-13.9c2.3,5.8,3.8,11.8,7,16.7
				c2.2,3.4,6.7,5.6,10.5,7.4c7.7,3.6,15.7,6.6,24.6,10.3c-4.9-6.5-8.8-11.8-12.8-17c-2.7-3.5-5.4-7-8.5-10.2
				c-4.5-4.6-9.3-8.9-14.1-13.2c-1.1-1-2.7-1.8-4.2-2.1c-7.3-1.6-14.9-2.3-21.8-4.8c-8.4-3.1-16.3-7.7-24.4-11.6
				c0.2-0.5,0.4-1.1,0.6-1.6c7.7-0.9,15.3-2.5,23-2.6c5.3-0.1,11.3,0.5,15.9,2.9c6.4,3.2,12.3,7.9,17.5,12.8
				c7.3,6.8,16.9,11.5,20.7,21.9c0.9,2.6,3.6,5,6.1,6.6c2,1.4,4.9,1.6,7.4,2.3c0.5-2.5,1.6-5,1.3-7.3c-2.1-14.4-2.2-14.3,12.5-12.5
				c5.1,0.6,10.3,0.7,16.9,1.1c-1.9-4.1-2.9-6.4-4.1-9c13.1-5.6,25.7-2.3,38.7,0.5c-4.6,5.9-13.5,7.8-12.9,17.1
				c9.5-0.9,15.1-7.2,21.2-14.4c1.6,4.4,2.7,7.5,3.8,10.6c0.2-0.1,0.5-0.1,0.7-0.2c-0.3-2.9-0.7-5.9-1.2-10.8
				c7.8,7.5,14.4,13.7,20.9,20c0.4-0.4,0.8-0.8,1.2-1.2c-5.3-5.7-10.7-11.4-16-17.1c0.3-0.5,0.6-1,0.9-1.5c4.9,0.8,9.7,1.6,14.6,2.4
				c1.5-4.7-0.6-6.4-5.1-6.4c-2,0-4.4,0-5.9-1c-11.2-7.5-23.3-10.6-36.7-8.4c-0.2,0-0.4-0.5-1.3-1.6c4.6-2.9,9-6.2,13.8-8.6
				c6.4-3.2,11.8-7.1,14.5-14.1c0.5-1.2,2.5-1.8,3.8-2.6c-0.7,4.4-2.5,7.4-3.6,10.6c-0.7,2.1-0.4,4.5-0.5,6.8
				c2.5-0.5,5.1-0.6,7.5-1.5c10.5-3.9,7.2-16,13.8-22.4c-5.2,1.8-5.2,1.8-6.4,8.5c-1.4,7.5-6.5,12.3-12.4,12.3
				c1.8-6.7,3.6-13.5,5.7-20.3c0.3-0.9,1.7-1.6,2.8-2.2c2.5-1.3,5.3-2.3,7.7-3.8c1.3-0.8,2.1-2.5,3.2-3.7c-2.1-0.6-3.4-0.5-4.4,0
				c-17.6,8.8-20.8,6.6-34.5-6c-5.7-5.2-11-10.8-16.5-16.2c-12.4-12.2-24.8-24.4-37.4-36.5c-1.4-1.3-4.2-2.4-5.9-1.9
				c-8.1,2.2-16,4.8-23.9,7.7c-8.7,3.2-16.9,8.8-26.9,4.5c-8.6-3.6-17.3-7.2-26.2-10.3c-2.4-0.8-5.9-0.5-8.1,0.7
				c-10.9,6.3-21.3,13.5-32.3,19.7c-9.9,5.6-20,11-30.5,15.3c-6.4,2.6-13.4,5.2-20.8,1.8c-13.2-6.2-23.7-15.6-31.6-27.8
				c-4.1-6.3-9.5-9.8-17.1-7.5c-10,3.1-17.9,0-25.8-6.1c-7.8-6-16.6-10.8-24.8-16.4c-4.4-2.9-6.7-0.7-8.7,2.8
				c-2.6,4.6-5.3,9.2-7.6,13.9c-6.8,14.2-16.9,25.8-28.3,36.4C310.2,73.7,310,73.5,294.8,66c-3.7-1.8-7.2-2.2-10.7,1.2
				c-6.5,6.3-13,12.8-20.1,18.4c-4.1,3.3-9.3,6.6-14.3,7.1c-10.3,1.2-18.4-4.9-25.6-11.7c-4-3.7-7.5-7.9-11.7-11.4
				c-9-7.6-17.9-15.3-27.5-22.1c-4.2-3-10.1-5.6-15-5.1c-5.5,0.5-10.5,5.1-16,7.2c-9.1,3.4-13.4,12.3-21.3,17.3
				c-10.7,6.7-20.1,15.7-29.5,24.3c-12,10.9-25.5,13.7-40.9,9.2c-3.6-1-8.3-2.1-11.2-0.6c-7.5,3.9-14.6,8.8-21.3,14.1
				C19.8,121.7,10.4,130,0.8,138.2z M720.1,175.7c-0.2,0.4-0.5,0.7-0.7,1.1c3,2.3,6,4.7,9,7c0.5-0.4,1.1-0.7,1.6-1.1
				c-2.6-5.8-5.2-11.5-8.4-18.5c4.4,1.9,7.6,3.3,10.7,4.6c0.2-0.4,0.4-0.9,0.6-1.3c-4.9-2.7-9.7-5.4-14.6-8.2
				c-0.4,0.3-0.8,0.6-1.2,1c2.3,5.4,4.6,10.9,7.1,17C722.6,176.6,721.3,176.2,720.1,175.7z"/>
			<path d="M0.8,138.2c9.6-8.1,19-16.5,28.9-24.2c6.7-5.2,13.8-10.2,21.3-14.1c2.9-1.5,7.6-0.4,11.2,0.6c15.4,4.5,28.8,1.7,40.9-9.2
				c9.5-8.6,18.8-17.6,29.5-24.3c8-5,12.3-13.9,21.3-17.3c5.5-2.1,10.5-6.7,16-7.2c4.8-0.5,10.8,2.1,15,5.1
				c9.6,6.8,18.5,14.5,27.5,22.1c4.1,3.5,7.7,7.7,11.7,11.4c7.2,6.8,15.3,12.9,25.6,11.7c5-0.6,10.2-3.9,14.3-7.1
				c7.1-5.6,13.6-12.1,20.1-18.4c3.4-3.4,7-3,10.7-1.2c15.2,7.5,15.3,7.8,27.6-3.7c11.3-10.6,21.5-22.2,28.3-36.4
				c2.3-4.8,4.9-9.3,7.6-13.9c2-3.5,4.3-5.8,8.7-2.8c8.2,5.5,17,10.3,24.8,16.4c7.9,6.1,15.8,9.2,25.8,6.1
				c7.5-2.3,12.9,1.2,17.1,7.5c7.9,12.2,18.3,21.5,31.6,27.8c7.3,3.4,14.4,0.9,20.8-1.8c10.5-4.3,20.6-9.7,30.5-15.3
				c11-6.2,21.4-13.4,32.3-19.7c2.1-1.2,5.7-1.5,8.1-0.7c8.8,3.1,17.5,6.7,26.2,10.3c10,4.2,18.2-1.4,26.9-4.5
				c7.9-2.9,15.8-5.4,23.9-7.7c1.7-0.5,4.5,0.6,5.9,1.9c12.6,12,24.9,24.3,37.4,36.5c5.5,5.4,10.8,11,16.5,16.2
				c13.7,12.5,16.9,14.8,34.5,6c1-0.5,2.3-0.6,4.4,0c-1,1.3-1.9,2.9-3.2,3.7c-2.4,1.5-5.2,2.5-7.7,3.8c-1.1,0.5-2.5,1.2-2.8,2.2
				c-2.1,6.8-3.9,13.6-5.7,20.3c6,0.1,11.1-4.7,12.4-12.3c1.2-6.7,1.2-6.7,6.4-8.5c-6.6,6.3-3.2,18.5-13.8,22.4
				c-2.3,0.9-5,1-7.5,1.5c0.1-2.3-0.2-4.7,0.5-6.8c1.1-3.2,2.9-6.1,3.6-10.6c-1.3,0.9-3.3,1.4-3.8,2.6c-2.7,7-8.1,10.9-14.5,14.1
				c-4.8,2.4-9.1,5.6-13.8,8.6c0.8,1.1,1.1,1.6,1.3,1.6c13.4-2.2,25.5,0.9,36.7,8.4c1.5,1,3.9,1,5.9,1c4.5,0.1,6.5,1.8,5.1,6.4
				c-4.9-0.8-9.7-1.6-14.6-2.4c-0.3,0.5-0.6,1-0.9,1.5c5.3,5.7,10.7,11.4,16,17.1c-0.4,0.4-0.8,0.8-1.2,1.2
				c-6.5-6.3-13.1-12.5-20.9-20c0.6,5,0.9,7.9,1.2,10.8c-0.2,0.1-0.5,0.1-0.7,0.2c-1.1-3.1-2.2-6.2-3.8-10.6
				c-6.1,7.2-11.7,13.4-21.2,14.4c-0.6-9.3,8.2-11.2,12.9-17.1c-13-2.8-25.6-6.1-38.7-0.5c1.2,2.6,2.3,4.9,4.1,9
				c-6.6-0.4-11.7-0.5-16.9-1.1c-14.7-1.8-14.6-1.9-12.5,12.5c0.3,2.3-0.8,4.9-1.3,7.3c-2.5-0.7-5.3-0.9-7.4-2.3
				c-2.4-1.7-5.1-4-6.1-6.6c-3.8-10.4-13.4-15.1-20.7-21.9c-5.3-4.9-11.2-9.6-17.5-12.8c-4.6-2.3-10.6-3-15.9-2.9
				c-7.7,0.2-15.3,1.7-23,2.6c-0.2,0.5-0.4,1.1-0.6,1.6c8.1,3.9,16,8.6,24.4,11.6c6.9,2.5,14.5,3.2,21.8,4.8
				c1.5,0.3,3.1,1.1,4.2,2.1c4.8,4.3,9.6,8.6,14.1,13.2c3.1,3.2,5.8,6.7,8.5,10.2c4,5.2,7.9,10.5,12.8,17c-9-3.7-16.9-6.7-24.6-10.3
				c-3.9-1.8-8.3-4.1-10.5-7.4c-3.2-4.9-4.7-10.9-7-16.7c-6.1,2.1-8.4,7.2-8.6,13.9c-0.1,3.6-0.9,7.2-1.5,10.8
				c-0.6,0.5-1.2,1-1.7,1.5c10.5,4.2,21.1,8.2,31.5,12.6c14.6,6.2,29,7.5,44.1,1.4c7.8-3.1,16.1-2.8,23.9,1.1c1.3,0.6,2.2,2,3.3,3
				c-1.2,1-2.2,2.3-3.5,2.8c-2.2,0.9-4.6,1.4-7,2.5c21.8-1.8,43.8-9.2,65.2,2.1c-2.6-0.5-5.2-0.9-7.8-1.6c-14.5-4.4-28.8-2-43.2,0.4
				c-6.1,1-12.2,1.6-18.3,2.1c-1.3,0.1-2.7-1.2-4.1-1.8c1.2-1.1,2.1-2.8,3.5-3.2c3.4-1.1,7-1.7,10.5-3.2c-7.1-4.2-14.9-4.9-22.1-2
				c-15,6.1-29.5,5-44.1-0.9c-11.5-4.6-23-9.2-34.4-13.7c-0.3,4.7,4.2,7,8,9.3c9.9,6,19.9,12,30.3,17.1c5,2.5,10.9,4,16.4,4.2
				c12.9,0.4,26.3,2.1,38.5-1c18.5-4.6,36.4-4.7,54.8-1.8c4,0.7,8.1,0.9,12.2,1.3c-0.1,0.7-0.2,1.4-0.3,2.2
				c-6.1-0.6-12.3-0.9-18.4-1.8c-15.2-2.4-29.8-0.8-45,2c-28.7,5.2-57.1,4.2-81.6-15.5c-3.6-2.9-8.3-4.7-12.8-6.4
				c3.3,7.3,9.2,12.3,16.2,14.2c10.9,3,18.7,10.6,27.7,16.3c6.5,4.1,9.8,9.4,10.3,17.5c0.4,5.5,3.9,10.9,6.4,16.2
				c0.5,1,2.3,1.6,3.6,1.9c14.4,3.3,28.4,4,42.9-1.4c14.3-5.3,28.7-1.2,42.7,2.4c0,0.7,0,1.5,0,2.2c-6.3,0.3-12.6,0.6-19,0.9
				c-0.1,0.4-0.2,0.9-0.4,1.3c9.4,2.8,18.9,5.7,28.3,8.5c-0.2,0.7-0.5,1.4-0.7,2.1c-11.6-3.6-23.2-7.3-34.8-10.9
				c0.1-0.8,0.3-1.6,0.4-2.5c6.2,0,12.4,0,18.5,0c0-0.6,0-1.1-0.1-1.7c-12.5-1.6-24.7-4.3-37.7,0.3c-9,3.2-19.1,3.4-29.9,5.2
				c9.2,1.4,17.8,4.2,26.2,3.7c20.6-1.3,38.4,8.1,57.4,12.8c-0.1,0.5-0.3,1.1-0.4,1.6c-6.6-2-13.4-3.6-19.9-6
				c-11.8-4.3-23.7-6.6-36.6-6.4c-10.8,0.1-21.7-2.9-33.3-3.8c9,5.5,17.6,11.8,27.1,16.2c10.3,4.7,17.6,11.4,21.4,22
				c0.6,1.6,1.8,3,2.7,4.5c-1.2,0-2.5,0-3.7,0c-0.3-8.7-6.5-13.7-12-19.1c-0.8-0.8-2.4-1.5-3.3-1.2c-7.9,2.6-12.9-2.4-18.6-6.2
				c-4.4-2.9-9.6-4.6-15.9-7.5c4.1,7.2,7,12.4,10,17.7c3,5.4,6,10.9,9,16.4c-1.6,0-3.3,0-4.9,0c-5.8-7.3-11.6-14.6-18.1-22.7
				c-1,3.9-1.4,6.7-2.4,9.3c-0.5,1.5-2,2.6-3,3.9c-1.2-1.2-3.3-2.2-3.6-3.5c-0.6-4.2-1.1-8.5-0.7-12.6c0.7-6.1,2.1-12.1,3.3-18.1
				c1.2-6-1.5-9.8-6.7-12.3c-6.7-3.2-10.5-8.4-11.8-15.9c-1.6-9.3-11.8-15.5-22-13.5c4.5,19.9,9,39.7,13.8,60.9
				c-14.1-9.3-20.1-22.7-25.7-37.8c6.5,10.5,12.4,19.9,18.3,29.4c0.5-0.3,1-0.7,1.5-1c-3.4-16.6-6.9-33.1-10.1-49.8
				c-0.3-1.7,1.1-5.1,2.2-5.3c8-1.7,21.4,6.4,24,14.1c2.8,8.3,5.5,16.7,15.8,19c-1.6-7.1-3.1-14.2-4.8-21.2
				c-0.3-1.2-1.8-2.1-2.8-3.1c-10.8-10.6-23.5-17.8-37.5-23.4c-3.9-1.5-7.1-4.7-11.6-7.8c0,12.5,0,23.8,0,35.1
				c-1.6-8.7-1.9-17.5-2.2-26.2c-0.3-7.4-0.2-14.7-0.9-22.1c-0.5-6-2-6.3-6.8-3c-10.1,6.9-14.1,17.9-17.6,28.4
				c-4.3,13.2-11.9,22.8-23.7,29.6c-1.1,0.6-1.9,3.9-1.2,4.8c5.6,7.9,10.5,16.6,17.6,23c15.1,13.8,32.3,25.3,45.1,41.7
				c-2.5,0-4.9,0-7.4,0c-5.1-7.3-10.9-13.9-20.3-14.9c-6-0.7-10.2-3.4-13.7-8c-1.9-2.4-4.4-4.3-6.7-6.4c-0.8,0.3-1.5,0.7-2.3,1
				c1.1,6.8,1.8,13.6,3.3,20.3c0.6,2.8,2.7,5.3,4.1,8c-1.2,0-2.5,0-3.7,0c-2.3-6-3.8-12-10.3-15.9c-6.3-3.7-11.4-9.5-17-14.3
				c-6-5.1-11.8-10.4-18.1-15.2c-7.3-5.5-15.5-9.9-22.2-15.9c-4.2-3.7-7.4-4.7-11.7-2.6c1.7,4.3,3.9,8.4,5.1,12.7
				c4,14.7,7.5,29.6,11.4,44.4c0.6,2.4,2.4,4.5,3.7,6.8c-1.2,0-2.5,0-3.7,0c-2.8-9.7-5.6-19.5-8.4-29.2c-2.7-9.1-5.1-18.4-8.2-27.4
				c-0.8-2.2-3.8-4.9-6-5c-9-0.6-18.1-0.2-27-0.2c-2.9,13.2,1.4,21.8,14,28.8c14.2,7.9,24,20.1,33.2,33c-1.2,0-2.5,0-3.7,0
				c-9.2-15.3-23.1-25.6-37.2-36c-6.5-4.8-9.5-5.5-15.4,0.7c-7.9,8.3-17.6,14.9-25.9,22.7c-3.7,3.4-6,8.3-8.9,12.5
				c-1.2,0-2.5,0-3.7,0c2.3-3.8,3.8-8.4,6.9-11.4c10.5-9.8,21.6-19,32.2-28.7c2-1.8,2.7-5.1,3.8-7.2c-4.3-2-8-2.6-9.8-4.8
				c-4.9-5.8-10-4.9-15.5-1.7c-7.7,4.5-15,9.7-22.9,13.8c-9.9,5.2-20,10-32.1,6.5c-4.3-1.2-9.5,0.2-15.1,0.5
				c2.8,5.6,5,10.1,7.3,14.5c0.7,1.4,1.6,2.9,2.8,3.8c7.1,5,14.3,9.8,21.4,14.6c-1.6,0-3.3,0-4.9,0c-5.1-3.8-9.9-8.1-15.3-11.2
				c-4-2.3-7.5-4-8.5-9.3c-0.7-3.7-3.4-7-6-12.1c-7.2,12-13.3,22.3-19.4,32.6c-2.9,0-5.7,0-8.6,0c4-7.9,9.7-15.1,10.2-24.6
				c0.1-1.7,1.2-3.5,2.1-5.1c8.5-13.6,20.8-23.7,32.5-34.2c8.3-7.4,14.3-16.1,17.8-26c-30.2,0-59.9,0-90,0c0.4,1.4,0.4,2.4,0.9,3.3
				c3.2,6.3,6.7,12.4,9.5,18.8c2,4.7,2.9,9.6-1.2,14.3c-6.6,7.5-13.1,15.1-12.6,26.1c0.1,1.8-0.3,3.9-1.2,5.3
				c-4.8,7.3-3.1,14.6-0.2,21.9c-1.2,0-2.5,0-3.7,0c-1.5-9.5-2.9-19-4.4-28.9c-5.9,2.3-8.4,6.6-8.7,12.4c-0.3,5.5-0.3,11-0.4,16.5
				c-0.8,0-1.6,0-2.5,0c0-4.1,0-8.2,0-12.2c-0.4-0.1-0.9-0.1-1.3-0.2c-2.8,4.1-5.7,8.3-8.5,12.4c-1.6,0-3.3,0-4.9,0
				c6.9-7.8,13.5-15.7,16.1-26.1c0.5-1.9,1.9-3.5,2.6-5.4c4.6-11.4,15.3-17.7,22.7-26.9c4.7-5.9,4.9-11.9-0.9-16.8
				c-6.4-5.4-12.5-11-15.4-19.1c-0.4-1.2,0.5-3.1,1.3-4.4c1.7-2.7,4.3-4.9,5.5-7.8c2.2-4.9,3-10.4,5.4-15.1c2.5-4.9,1.9-7.6-3-10.3
				c-7.5-4.1-14.5-9-22-13.1c-1.7-1-5.2-0.8-6.8,0.3c-8,5.5-11.5,13.8-13,23.2c-0.8,4.8-1.6,9.7-2.9,14.4c-0.6,2.2-2.6,3.9-4.7,6.8
				c-3.2-7.1-5.7-12.7-8.7-19.2c-5.4,1.1-11.5,2.3-19.8,3.9c5,6.7,7.9,12.9,12.8,16.5c12.5,9.2,25.9,17.3,39,25.7
				c2.4,1.6,4.4,2.5,2.9,6.1c-1.7,4.1-2.3,8.7-4.1,12.7c-3.5,7.7-6.2,16.4-11.8,22.4c-7.8,8.5-14.4,16.5-13.1,28.7
				c0.1,1.1-0.4,2.4-0.7,3.6c-1.2,0-2.5,0-3.7,0c1.3-6.3,1.4-13.3,4.2-18.9c3.1-6.4,9.1-11.3,13-17.3c4.4-6.7,8.9-13.6,10-22.4
				c-10.7,4.3-17.6,12-20.5,21.4c-1,3.2-2.5,6.7-4.9,9c-5.4,5.2-11.6,9.4-17.1,14.6c-4.3,4.1-8,9-11.9,13.6c-1.6,0-3.3,0-4.9,0
				c6.4-6.1,13-12.2,19.2-18.5c7.4-7.5,17.7-12.8,18.1-25.5c0.1-1.9,2-4.1,3.7-5.5c2.9-2.5,6.5-4.2,9.4-6.7
				c4.1-3.6,7.8-7.7,12.6-12.6c-16.3-3.8-30-7.9-41.9-16.8c-3.2-2.4-4.7,1.8-3.5,3.8c4.5,7.3,0.7,13.4-2.5,19.2
				c-4.1,7.4-8.7,14.6-14.1,21.1c-4.5,5.5-10.4,9.8-15.1,14.2c2.3,2.6,5.2,4.7,6.2,7.4c2.3,6.4,3.7,13.2,5.5,19.9
				c-1.2,0-2.5,0-3.7,0c-1.2-5.8-2.5-11.5-3.6-17.3c-0.7-3.6-2.4-5.9-5.9-5.6c-2.3,7.9-4.4,15.4-6.6,22.9c-0.8,0-1.6,0-2.5,0
				c1.6-4.8,3.2-9.6,4.9-14.3c3-8.3-1.3-19.1-8.6-23.7c-8.2-5.2-14-12.2-13.8-22.9c0-2.2-1.7-5.4-3.6-6.6
				c-5.9-3.8-12.2-6.8-18.7-10.3c-0.3,4.7,0.1,9.4-1.1,13.6c-1.7,5.6-3.2,13-7.4,15.8c-7.9,5.4-17.7,8-23.9,16.2
				c-1.4,1.8-2.8,4-3,6.1c-0.7,8.7-0.9,17.4-1.2,26.1c-1.2,0-2.5,0-3.7,0c3.6-8,3.4-15.8-0.8-24.4c-6.3,8.7-12,16.6-17.7,24.4
				c-0.8,0-1.6,0-2.5,0c0.7-1.4,1.1-3.1,2-4.3c3.5-4.7,7.1-9.2,10.6-13.9c2.5-3.4,3.9-6.7,2-11.2c-4.6-10.9-8.6-22.1-12.8-33.2
				c-3.5-9.1-6.8-10.3-13.8-3.5c-2.3,2.2-2.7,6.9-3.3,10.5c-0.5,3,0.6,6.2,0.1,9.1c-0.8,5.3-4.4,6.7-9.4,6.2c-5.2-0.6-6-4.2-5.1-7.9
				c1-4.4,2.7-8.8,4.8-12.8c2.3-4.5,5.5-8.7,8.8-13.7c-10.8,3.5-17.1,10.5-20.5,20c-3.4,9.5-6,19.3-9,29c0-4.1,0-8.2,0-12.3
				c2.4-6.4,5-12.8,7.3-19.2c2.5-6.8,7.3-11.4,13.2-15.4c17-11.3,19.7-13,17.2-29.3c-4,1.2-8.1,2.3-12.1,3.7
				c-4.7,1.7-8.3,4.1-9.7,9.7c-2.4,9.2-7.8,16.8-15.9,22.2c0-1.2,0-2.5,0-3.7c4.6-6.3,10.6-12,13.3-19.1c2.8-7.4,7.2-10.7,14.2-12.2
				c7.4-1.6,10.5-6.2,10.1-14.5c-9.7,4.7-20.5,6.6-25.6,18.2c-2.4,5.4-7.9,9.4-12,14.1c0-1.2,0-2.5,0-3.7c2.1-1.9,5.1-3.3,6.1-5.7
				c5.2-12.2,14.7-18.8,26.8-23.2c10.9-3.9,14.2-14.8,18.3-23.9c2.4-5.4,1.4-13.2-0.1-19.4c-2.8-11.6,1-21.7,5.8-31.5
				c4.1-8.4,4.8-8-4.1-10.4c-1.3,1.7-3,3.2-3.9,5.2C44,121,38.8,132.9,32.9,144.5c-7.2,14-16.8,25.8-32,31.9c0-2.9,0-5.7,0-8.6
				c3.6-1.5,7.2-3,10.7-4.6c9.9-4.6,11.7-9.7,9.3-19.2c-6.5,4.6-13.2,9.3-19.9,13.9c0-1.2,0-2.5,0-3.7c5.2-4,10.4-8.2,15.8-12.1
				c1.6-1.2,3.7-1.7,5.6-2.6c0.8,1.9,1.8,3.8,2.2,5.8c0.3,1.9-0.1,3.9-0.2,5.8c0.7,0.2,1.3,0.5,2,0.7c6.7-13.9,13.4-27.9,20.1-41.8
				c-2.8,0.4-4.7,1.7-6.4,3.1c-13,10-26,20-38.9,30C0.8,141.4,0.8,139.8,0.8,138.2z M520.1,263.3c-1.4-8.4-4.6-17-3.8-25.2
				c0.8-7.9,5.7-15.3,9.2-23.9c-3.7,1.2-6.5,1.8-9.1,2.9c-5.6,2.3-10.9,5.1-16.6,7.1c-7.4,2.6-15.4,3.9-22.6,7.1
				c-10,4.5-10,10.1-0.9,16.3c13,8.9,27.6,15.8,37.2,29.1c2.3,3.3,5.9,5.6,9.5,8.9c-1.1-8.3-2.1-15.4-3-22.4
				c2,6.8,3.9,13.6,6.2,20.3c0.5,1.4,2.3,2.3,3.5,3.4c0.6-1.4,1.5-2.7,1.6-4.2c0.2-3.4,0.1-6.9,0.1-10.3c0.8-0.3,1.6-0.5,2.4-0.8
				c2.7,2.3,5.9,4.2,7.8,7c5.3,7.6,12.5,10.1,22.3,9.8c-15.3-13.2-32.5-23.2-42.5-40.8c-0.5,0.4-0.9,0.8-1.4,1.2
				C520.1,253.6,520.1,258.5,520.1,263.3z M102.7,210.4c5.5,2.6,11.1,5.1,16.6,7.7c14.6,6.9,24.8,17.2,27.9,33.7
				c1.5,8,4.1,15.8,6.5,24.7c4.4-3.2,7.5-5.5,10.6-7.7c9.3-6.5,14.3-16.5,20-25.7c2.9-4.7,4.7-10,0.5-15.4
				c-6.5-8.5-7.6-18.2-5.6-28.5c1.2-5.9-0.5-9.4-7.4-10.5c-8-1.3-16.2-3.2-23.3-6.8c-4.9-2.5-9.3-4.8-14.8-4.2
				c-10.7,1.2-18.2-3.9-22.6-13.1c-5.2-10.9-14.3-12.9-24.9-12.1c-3.3,0.2-6.6,1.2-9.8,0.9c-10.9-1-17.2,7.7-20.4,16
				c-0.7,1.7,0.2,5.1,1.6,6.3c8,6.9,16.2,13.5,24.6,20c6.7,5.2,13.7,9.9,20.6,14.9c-8.2-5.1-16.5-10.1-24.6-15.4
				c-4.8-3.1-9.1-6.8-13.7-10.3c2.3,6.5,5,12.3,8.1,17.8c4.8,8.4,9.6,16.9,15,24.9c1.9,2.8,5.4,5,8.6,6.4c3.9,1.7,6.9,0.4,6.4-4.8
				c-0.3-2.8-0.6-5.5-1-9.2c2.3,0.8,4.7,0.8,5.4,1.9c4.9,7.6,13.5,9.6,20.8,13.5c4.2,2.3,5.9,4.7,5.2,9.7c-1.2,7.9,5.5,17.1,14,19.1
				c-1.6-5.3-3.7-10-4.5-14.9c-2.4-14.8-12.1-23.3-24.5-29.8C112.9,216.9,107.8,213.5,102.7,210.4z M621,58.1
				c-0.8-0.5-1.6-0.9-2.5-1.4c3.1-4.8,6.1-9.7,9.2-14.5c-0.4-0.4-0.8-0.9-1.2-1.3c-4.5,2.2-9.8,3.6-13.3,6.9
				c-8.9,8.2-16.9,17.4-25.5,25.9c-4,3.9-7.4,9-15.5,10.2c4.6-7.5,8.1-13.8,12.3-19.6c3.7-5.1,5.7-13.7,3.2-17.7
				c-2.5-4-12.4-8-18.7-6.7c3.1,2.4,5.8,4.2,8,6.3c2.2,2.1,4.1,4.5,6.1,6.8c-2.6,1.7-5.1,3.5-7.8,4.9c-2,1-4.2,1.6-6.4,2.2
				c-4.2,1.2-5.5,3.4-5.2,8.1c0.3,4.1-0.6,9.5-3.2,12.3c-10.4,11.4-17.5,24.4-23.7,39.5c5.1-1.5,9.8-2.1,13.5-4.3
				c10.1-5.9,20.1-5.5,30.5-1.3c15.3,6.2,30.7,12.4,46.2,18.2c4.3,1.6,10.6,4,13.3,2.1c10.8-7.2,21.4-4.8,32.5-2.3
				c2.2,0.5,5.3-1.5,7.6-3c4.5-3,8.6-6.6,12.9-9.8c4.7-3.5,10-6.4,14-10.5c2.4-2.4,6.2-6.6,1.6-10.5c-9.7-8.3-19.5-16.3-29.3-24.4
				c-0.4,0.2-0.8,0.5-1.2,0.7c5.3,9,10.6,18.1,16.6,28.1c-8.7-2.6-12.8-9.1-17.4-15c-4.6-5.9-9.2-11.8-14.3-18.5
				c0.4,9.4,5.7,17.1,4.1,25.9c-1.2-0.2-1.7-0.2-2-0.4c-0.5-0.3-0.9-0.8-1.3-1.3c-8.5-9.8-13-21.2-14.8-34.1
				c-1-7.2-4.1-14.2-6.2-21.2c-0.6,0.1-1.2,0.1-1.8,0.2C637.1,47.9,630.6,54.7,621,58.1z M272.4,151.3c0.5-9.3,0.8-16.5,1.2-24
				c-3.2,1.8-5.6,3.4-8.2,4.6c-1.2,0.6-2.8,0.3-4.3,0.4c0.3-1.5,0-3.5,0.9-4.4c4.3-4.3,8.8-8.4,13.4-12.3c5.7-4.8,11.2-9,12.8-17.5
				c1.1-6,6.3-11.4,10.5-16.5c2.7-3.3,3.9-5.1-0.6-7.4c-1.8-0.9-3.2-2.6-5-3.5c-3.3-1.7-6.6-1.8-7.9,2.5c-2.1,6.5-4.4,13.1-5.4,19.8
				c-1.1,7.6-5.3,10.6-12.2,12.3c-3.9,1-8.2,3.1-10.9,6c-5.4,5.7-9.8,12.4-14.8,18.4c-7.7,9.3-17.9,15-29.1,18.7
				c-9.7,3.2-19.9,4.8-29.6,8c-7.2,2.4-13.9,6.5-21.3,10.1c-0.1-1.5-0.5-2.5-0.2-3.3c4-11.1,12.2-17.8,23.4-20.1
				c6.5-1.4,13.5-0.6,20.2-1.3c4.9-0.5,9.7-1.6,14.6-2.4c0-0.6,0-1.2,0-1.8c-1.6-0.8-3-1.8-4.7-2.3c-14.4-4.6-28.8-9.2-43.3-13.6
				c-8.3-2.5-10.8-1.7-15.3,5.6c-6.6,10.8-12.8,22-19.1,33c-0.5,0.9-0.8,2-1.4,3.6c9-1,13,5.7,18.4,10.2c18,15.4,30.9,16.8,47.8,2.8
				c8-6.6,16.3-12.7,24.7-18.8c4.3-3.2,8.2-2.8,13.3,0.6c9.8,6.5,20.3,12,31,16.9c6.5,3,13.7,0.4,17.5-5.6
				c6.2-9.8,14-18.1,22.1-26.4c7.8-8,15.1-14.1,26.9-15.4c10.9-1.2,21.4-5.6,33-8.8c-6-3.9-10.7-7.6-15.9-10.1
				c-6.9-3.4-14.2-6.2-21.5-8.7c-4.6-1.6-7.6,0.4-8.9,5.5c-1,3.8-3.1,7.4-5.5,10.5c-1.2,1.5-4.8,2.8-6.2,2.1c-1.8-1-3.3-4.1-3.4-6.3
				c-0.4-9,4.9-15.1,11.1-20.7c1.2-1.1,1.6-3.1,2.3-4.6c-2.3-1-5.8-3.4-6.7-2.6c-7.9,6.8-18.9,11.1-19.9,23.9
				c-0.3,3.9-2.2,7.9-4,11.5c-4.6,8.9-9.5,17.7-14.5,26.5C276.7,147.9,274.8,149,272.4,151.3z M540.4,128.4
				c-7.3,7.8-14,16.4-14.4,28.6c-0.2,5.6-3.3,10.1-8.8,12.7c-4.4-11.3,1.6-21,4.2-31.7c-1.7,0.9-2.6,1.2-3.4,1.8
				c-14,10.1-29.3,17.5-45.8,22.5c-7,2.1-13.7,6.1-19.6,10.5c-5.5,4.1-10.5,5.3-17,3.5c-3.8-1.1-7.9-0.8-12-1.2
				c0,14.7,4.4,21.1,16.3,20.7c5.6-0.2,11.2-1.8,16.8-3.2c8.3-2,16.5-4.8,24.9-6.4c2.8-0.5,6.1,1.5,9.2,2.3c-2.3,1.7-4.5,3.8-7,5.1
				c-6.3,3.1-13,5.5-16,11.9c10.3,2.9,20.4,5.9,30.6,8.6c1.2,0.3,2.8-0.4,4-1c8-3.7,15.7-7.9,23.8-11.2c8.9-3.6,16.3-8.9,22.8-15.9
				c6.9-7.5,14.4-14.4,25.1-15.6c0.7-4.7,0.6-9.5,2.4-13.4c1.9-4,5.8-6.9,8.6-10C570.4,141.1,555.8,134.9,540.4,128.4z M70.9,108.6
				c-1.2,5.8-2.1,10.8-3.4,15.7c-0.8,2.9-2.1,5.6-3.4,8.4c-1.8,3.7-2.5,7.6,1.1,10c3.8,2.6,6.9,8.6,13.5,3.7
				c8.2-6,16.5-6.1,25.3,0.3c7.8,5.7,16.8,7,24.6-0.4c3.1-2.9,4.3-7.6,6.9-11.1c6.8-9.1,16.9-13.5,26.9-17.9c0.7-0.3,1.7-0.2,2.4,0
				c9.6,2.5,17.3-1.1,24.9-6.6c3.4-2.5,3.3-4.3,2-7.6c-1.5-3.7-2.9-7.5-3.3-11.4c-0.9-10.8-1.1-21.6-1.8-32.4
				c-0.4-7.4-11.5-13.6-18.4-10.6c-7.2,3.2-8.8,10.4-10.4,16.3c-5.1,19.4-15.8,35.5-27.7,51c-2.2,2.9-4.9,5.4-7.3,8.1
				c-0.4-0.2-0.8-0.5-1.2-0.7c4.2-12.9,8.4-25.8,12.6-38.7c-21.3,15.6-37.6,36.7-62.4,47.8c-1.6-6.9-0.7-11.3,4.9-14.1
				c3.1-1.5,5.8-3.7,8.4-6c0.9-0.8,1.2-2.8,1.1-4.2c-0.1-0.5-2.3-1.1-3.6-1C78.3,107.6,73.8,108.2,70.9,108.6z M497.8,72.9
				c-5.3,0.4-8,0.9-8.7,5.7c-0.9,6.6-3.9,7.7-9.3,4.1c-6.4-4.3-12.1-9.6-18.8-13.4c-12.5-7.1-22.3-16.7-29.7-28.9
				c-0.7-1.2-3.9-2.4-4-2.2c-4.2,5.3-11.6,7.7-11.8,16.7c-0.2,6.8-3.7,13.6-6,20.3c-0.3,0.9-1.9,1.4-2.9,2.1c-0.5-0.3-1-0.5-1.5-0.8
				c0.6-3,1.1-6.1,2-9.1c1.4-4.7,2.7-9.2-0.7-13.9c-1.2-1.6-2-4.6-1.3-6.3c1.5-3.9-0.1-6.7-2.8-8.6c-10.1-7.4-20.4-14.5-30.6-21.7
				c-1.3,5.4-1.1,10.3-3.4,13.3c-4.9,6.7-5.8,13.3-4.6,21.2c0.9,5.4,0.7,11.6-1,16.8c-2.7,8.4-7.3,16.3-10.4,24.6
				c-0.9,2.5-0.8,7,0.8,8.4c5.4,4.7,11.3,9.3,17.7,12.4c7.3,3.5,11.2,1.5,15.7-5.6c6.3-9.9,14.1-17.5,26-20.6
				c11.8-3.1,14.7-7.3,15.5-18.8c8.5-2,16.4,1.2,21.8,7.9c3.2,4,7.1,7.9,11.5,10.2c5.5,2.9,11.8,4.3,17.8,6c1.8,0.5,5,0.3,5.8-0.8
				C489.4,86.2,493.2,80,497.8,72.9z M428.4,172c13.5,4.1,13,3.6,23.5-4.4c13.2-10,26.8-19.6,41-28.2c9.3-5.6,19.9-9.2,30-13.6
				c5.6-2.4,10.7-4.8,9.8-12.5c-0.3-2.5,0.7-5.3,1.4-7.8c2.4-9,5.9-17.8,7.3-26.9c1.7-11.1,6.2-20.3,13.1-29
				c2.3-2.9,3.3-7.5,3.5-11.3c0.2-3.2-2.8-5.4-6-3.1c-10.7,7.4-22.2,13.8-29,25.5c-0.8,1.3-0.6,4.2,0.3,5.3c2.7,3.3,2.5,5.4-1,8
				c-8.5,6.2-17,12.6-25.2,19.3c-16.7,13.6-33.2,27.3-49.6,41.1c-3,2.5-6.1,5.6-7.7,9.1C435.5,153,432.1,162.6,428.4,172z
				 M444.1,215.4c-0.2-1-0.3-1.9-0.5-2.9c-4.7-1.2-9.3-2.4-14-3.7c-7.8-2.1-15.4-5.6-19.4-12.7c-3.9-7-6.4-14.9-8.8-22.7
				c-3-9.7-10.4-12.6-18.3-6.5c-1.7,1.3-3.2,3.2-4.5,5c-9.6,13-21.6,21.7-38.3,23.3c-13.6,1.3-27.3,2.8-40.9,4.7
				c-10.4,1.4-20.7,3.5-31.1,5.3c0.1,0.7,0.2,1.4,0.3,2.1c2.5-0.2,5-0.6,7.6-0.7c11-0.4,22-0.8,33-1c8.5-0.2,17.1,0.7,25.5-0.5
				c6.9-1,12.5-0.7,19.1,2.6c8.6,4.4,16.1,8.9,21.5,17.4c2.7,4.3,9,6.3,13.7,9.2c5.6,3.5,10.6,2,15.8-1.4c2.3-1.5,5.5-1.6,8.1-2.8
				C423.4,225.3,433.7,220.3,444.1,215.4z M477.2,97.5c-3.9-0.9-6.8-1.7-9.8-2.2c-8.9-1.4-12.8-9.2-18.9-14.3
				c-1.2-1-2.8-1.7-4.2-2.5c-0.9,1.8-2.2,3.6-2.7,5.5c-0.3,1.2,0.8,2.7,1.2,4c1.8,5.3,0.2,8.5-5.4,10.2
				c-16.9,4.9-33.1,11.4-47.2,22.2c-4.8,3.7-9.3,7.9-14.7,12.5c11.6,3.8,21.4,2.5,31.3,0.8c7.9-1.3,15-5.3,23.9-2
				c10.7,4,19.2-2.7,26.2-10.2C463.7,114.2,469.9,106.2,477.2,97.5z M71.1,268.7c11.4-8.3,28.9-11.9,31.7-30.2
				c-4.2-1.7-8.1-2.6-11.1-4.7c-9.4-6.6-14.2-16.9-19.5-26.6c-3.7-6.7-6.9-13.8-10.9-20.3c-2.3-3.8-5.8-7-8.7-10.4
				c-0.7,0.5-1.3,0.9-2,1.4C48.1,190,45.9,202,52,214c3.8,7.4,7.5,14.9,10.1,22.7C65.7,247.2,68.2,258.1,71.1,268.7z M438.3,135.5
				c-2.9-0.3-5.3-0.4-7.7-0.9c-6.1-1.1-10.8-0.5-15.3,5.2c-3.5,4.5-8.2,10.4-15.8,8.3c-14.8-4.2-28.2,1.1-41.7,5.6
				c-3,1-6.3,1.8-9,3.5c-10.7,6.9-21.2,14.1-31.9,21.1c-2.1,1.4-4.6,2.2-7.9,3.8c5.2,0.7,9.2,1,13.1,1.7c7.8,1.4,13.3-1.3,18.9-7
				c4.7-4.9,11.2-9,17.6-11.1c10-3.3,20.7-4.8,31.1-6.9c1.1-0.2,2.5-0.2,3.6,0.2c8.9,3.8,17.8,7.7,26.8,11.6
				C432.5,162.8,430,146.7,438.3,135.5z M183.5,118.9c9.4,2.4,18.4,4.9,27.6,6.9c3.3,0.7,7.1,1.3,10.1,0.3
				c13.5-4.5,20.3-16.5,30.1-27.7c-13.3-1.6-23.2-7.1-31.2-15.2c-1.4,2.5-2.5,5.6-3.2,5.5c-2.4-0.2-5.3-1-7-2.6
				c-3.6-3.4-6.6-7.5-10.8-12.5c-0.8,3.1-1.9,5-1.5,6.6c3,14.7,2.5,28.1-12.4,36.8C184.5,117.3,184.1,118.1,183.5,118.9z
				 M290.8,186.5c4.6-2.1,9.7-5,15.2-7c17.9-6.3,32.5-17.3,45.4-30.8c5.1-5.3,9.9-10.7,17.2-14.1c5.3-2.4,8.8-8.7,13.1-13.3
				c-0.6-0.7-1.1-1.4-1.7-2.1c-10.3,5.1-20.8,9.8-30.9,15.3c-5.1,2.8-10.5,6-14.1,10.5c-4.8,5.9-10,10.2-17.5,11
				c-10.6,1.2-17.7,7.5-23.3,15.9c-0.7,1.1-1.1,2.5-1.3,3.8C292.1,179.2,291.5,182.6,290.8,186.5z M381.1,164
				c-3.3,0.5-5.7,0.6-8,1.1c-10.6,2.2-21.4,3.7-29.3,12.4c-2.3,2.5-4.5,6.1-7.4,7c-5.1,1.5-10.8,1.8-16.1,1.5
				c-7.1-0.4-13.6-0.2-20.1,3.3c-6.3,3.3-13.3,5.2-20,7.4c-1.5,0.5-3.3-0.2-5.8-0.3c5.5-6.3,10.2-11.6,14.8-16.9
				c-12.5,5.6-23.8,12.4-28.4,24.7c14.1-2.4,28.3-5.1,42.6-7.2c11.1-1.6,22.4-2.7,33.6-3.6C356.8,191.7,369.8,180.2,381.1,164z
				 M667,135.2c-8.1-4-15.4-3-23,0.9c-2.9,1.5-7.3,2.2-10.2,1.2c-15.3-5.6-30.5-11.6-45.6-17.8c-19.3-8-28.9-7.7-43.3,2.7
				c4.9-0.7,8.9-1.5,12.9-1.8c8.7-0.8,17.7-3.2,25.8,1.9c5.4,3.5,10.9,7.1,15.5,11.5c7.7,7.3,17.6,12.3,22.8,22.6
				c2,3.9,4.2,10.4,12.2,8.8c-0.6-3.5-1.3-6.8-1.7-10.2c-1.2-8.7,0.3-10.3,9.1-9.5c5.8,0.5,11.6,1.3,18.9,2.1
				C655.6,138.7,660.3,136.4,667,135.2z M400.7,165.6c3,7.4,6.7,14.2,8.5,21.5c2.8,11.3,10.7,16.4,20.7,19.1
				c11.8,3.2,23.7,6.1,35.7,8.5c8.6,1.7,17.4,4.5,26.2,0.7c0.1-0.7,0.2-1.3,0.3-2c-9.8-1.4-19.5-2.8-29.2-4.2
				c2-12.4,13.5-14.1,21.1-20.2c-4.2,0.3-8.2,1-12.1,2c-10,2.6-19.9,6.3-30.1,7.9c-12.4,1.9-18.7-5.2-21-15.6
				C418.6,173.8,416.9,169.2,400.7,165.6z M135.2,71.4c-15.8,12.4-30.6,23.9-45.5,35.6c0,0.8,0.8,3.4-0.2,4.6
				c-2,2.5-4.9,4.1-7.3,6.3c-3.1,2.8-6.1,5.7-9.1,8.5c0.4,0.5,0.8,1,1.1,1.5c0.9-0.1,2.1,0.1,2.8-0.4c8-5.8,16.3-11.3,23.8-17.8
				c10.2-8.6,19.7-18.1,29.6-27c1.5-1.4,4.1-1.5,6.2-2.3c-0.1,2.6,0.3,5.4-0.5,7.7c-2.7,8.3-5.8,16.4-8.7,24.6
				c17-16.9,26.8-37.3,32.1-62.3c-8.1,7.6-15.1,14.1-22.1,20.6c0.3,0.4,0.7,0.9,1,1.3C136.9,72,135.4,71.5,135.2,71.4z M364.5,14.1
				c-11.5,24.1-28.6,42.9-47.9,60.7c3.5,3.2,6.6,6,10.4,9.5c1.6-2.7,3.9-5,4.5-7.6c3.6-14.5,15.6-18.5,26.8-8.7
				c4.6-3.5,5.6-9.8,2.9-18.3c-0.5-1.7-1.7-3.6-1.2-5.1c1.6-5.4,3-11.2,5.9-15.9C369.6,22.9,368.5,18.8,364.5,14.1z M64,276
				c0.7,0.1,1.3,0.3,2,0.4c0.3-3.2,1.3-6.4,0.9-9.5c-0.8-6.2-2.1-12.4-3.6-18.5c-1.1-4.3-2.4-8.7-4.2-12.8
				c-3.3-7.6-7.5-14.8-10.4-22.5c-2.1-5.7-2.8-12-4.1-18c-0.7,0-1.4,0.1-2.2,0.1c0,6.4-0.1,12.7,0,19.1c0.1,4.9,0.6,10-4,13.5
				c-9.1,6.8-14.5,16.3-18.6,26.5c-0.8,2.1-0.2,5.1,0.5,7.5c0.2,0.8,3.7,1.6,4.2,1.1c1.8-2,3.3-4.4,4.3-6.9c0.5-1.1,0-2.9-0.4-4.2
				c-2.8-9,6.9-20.6,16.1-19c1.4,0.2,3.4,1.2,3.9,2.4c2.8,6,5.5,12.2,7.9,18.4C59.1,261.1,61.5,268.6,64,276z M560.3,34.1
				c0.5,3.9,1.7,6.5,1,8.4c-1.6,3.9-4.4,7.4-6.2,11.2c-3.8,8.1-7.9,16.2-10.9,24.6c-3.1,8.8-5.2,17.9-7.7,27
				c-0.6,2.2-0.9,4.5-1.4,6.7c0.5,0.2,1,0.4,1.5,0.6c1.2-1.8,2.3-3.5,3.5-5.3c5.2-8.1,10.6-16.2,15.6-24.5c3.2-5.3,9.2-10,4.5-17.5
				c-0.5-0.7,0.6-3.3,1.6-4c2.6-1.8,5.6-3.3,8.5-4.6c3.4-1.5,7-2.6,10.9-4C573.7,46.1,567.3,40.4,560.3,34.1z M392.5,239.5
				c-5.4-2.7-11.1-4.6-15.4-8c-4.1-3.3-6.9-8.3-9.7-11.8c-3.1,6.8-5.7,13.1-8.7,19.1c-4,8.3-9.8,15.9-9.7,26.2
				C365.2,259.2,379.5,251,392.5,239.5z M343.7,270.2c9.3,1.8,26.7-4.9,35.7-11.4c6.3-4.6,13.7-7.7,20.7-11.4
				c4.1-2.1,7.2-1.2,9.9,2.9c1.4,2.1,4.4,3.1,7.9,5.4c0-3.5,0.1-4.8,0-6.2c-0.9-8.3-0.1-8.8,8.5-8.2c6.2,0.4,12.4,0.1,20.3,0.1
				c-2.2-1.2-3-1.9-3.9-2.1c-7.9-2.6-15.8-5.2-23.7-7.6c-1.3-0.4-3-0.2-4.2,0.3c-7.1,3-14.4,5.6-21,9.5
				c-10.3,6.1-19.8,13.4-30.1,19.5C357.8,264.5,351.1,266.9,343.7,270.2z M483.7,222.3c-22.2-8.7-40.5,1.1-59.5,7.6
				c7.9,6.5,17.8,7.1,26.8,8.7C464.6,241,472.6,229.5,483.7,222.3z M432.8,71.4c0,12.8-8.9,15.8-17.7,19c-4.4,1.6-9.8,2.5-12.6,5.6
				c-5.8,6.4-10.2,14.1-15.1,21.2c0.4,0.4,0.8,0.7,1.2,1.1c6.2-3.8,12-8.3,18.5-11.3c9.8-4.5,20-8.2,30.2-11.9
				c3.5-1.3,4.9-3.3,3.4-6.4c-2.5-5.1-2.2-9.7,2.2-14.5C439.4,73.2,436.7,72.4,432.8,71.4z M473.3,110c2.3-1.5,4-2.4,5.5-3.7
				c7.7-6.6,15.3-13.4,23.1-19.8c5.3-4.4,11.1-8.2,16.4-12.7c1.4-1.2,2.2-4.3,1.7-6c-1.6-4.8-0.3-8.3,3.1-11.6
				c1.7-1.7,3-3.9,4.5-5.8c-0.3-0.1-0.5-0.3-0.8-0.4c-15.2,8.2-30.4,16.3-46.8,25.1c3.4,1.9,4.8,2.7,7.1,4c-1.3-8.8,5.2-8.2,9.9-9.3
				c1.3-0.3,3.7,0.5,4.1,1.4c0.5,1.1-0.3,3.2-1.2,4.3C491.3,86.8,482.6,97.9,473.3,110z M347.6,101.9c1.7-5.9,3.2-11.4,5-16.9
				c0.7-2.3,2.4-4.3,3.1-6.5c1.2-3.9,2.5-8.3-1.7-11.2c-4.5-3.2-9.1-3-14.3-0.1c-6.2,3.6-5.5,10.1-8.3,15.1c-1.8,3.2-1,5.3,1.5,7.4
				C338,93.8,342.9,97.9,347.6,101.9z M261.9,212.3c31.4,2.2,61.3,4.7,91.4-0.3c-5.3-6.8-11.7-5.6-18.6-4.5
				c-6.8,1.1-14.1,2.6-20.6,1.3c-19.8-4-38.9,1.4-58.5,2.1c0.1,8,5.6,11,10.4,14.4c-0.4-2.2-1.2-4.1-1.9-6
				C263.3,217.5,262.8,215.6,261.9,212.3z M490.9,222c11.1,0.1,10.9-0.2,19.2-4.8c4.4-2.4,9.4-3.7,14.3-5.1c3.3-1,4.8,0.9,3.6,4.1
				c-1.3,3.4-2.8,6.8-4.5,10.1c-1.1,2.1-2.5,4.1-4.3,7.2c12.8-3.8,25.8-23.5,27.7-39.1C528.7,203.2,510,212.5,490.9,222z
				 M78.8,150.5c2.6-0.2,4.4-0.3,6.2-0.4c11.1-0.8,21.7,0.4,27.2,11.7c5.6,11.5,14.5,14.7,26.4,13.3c2.8-0.3,6,1.9,8.9,3.3
				c5,2.3,10,4.8,15,7.2c0.2-0.5,0.5-1,0.7-1.4c-4.2-3.5-8.7-6.6-12.4-10.5c-5.1-5.4-10.1-8.4-17.8-5.4c-1.9,0.7-5.6-1.6-7.8-3.3
				c-5.7-4.2-10.7-9.4-16.7-13.2C99.5,146,90,139.5,78.8,150.5z M306.1,76.6c-2.1,2.8-3.5,5.8-5.9,7.4c-4.9,3.4-7,8-8.6,13.5
				c-2,6.9-4.2,13.5-11.6,17.5c-5.6,3-10.2,8.1-15.3,12.2c0.3,0.4,0.6,0.8,0.8,1.2c4.2-2.3,8.5-4.5,13.9-7.4
				c-1.3,6.7-2.2,11.6-3.2,16.6c3-3,5.1-6.1,6.9-9.4c4.7-8.4,11.7-15.6,12-26.2c0.1-2.5,2.4-5.4,4.4-7.4c4.1-4.3,8.7-8.1,13.6-12.7
				C310.2,79.6,308.2,78.1,306.1,76.6z M280.1,77.2c-6.9,5.3-12.3,9.6-18.8,14.5c7-0.4,6,2.7,3.6,5.2c-4.1,4.1-8.6,8-13.3,11.5
				c-8.3,6.1-15.3,13.3-19.5,22.8c-0.5,1-0.3,2.4-0.4,3.6c0.7,0.4,1.4,0.8,2.1,1.3c5-6.1,10.4-12,15-18.5c5.2-7.2,10.1-13.9,20-15.2
				c3-0.4,7.1-3.5,8.1-6.3C278.9,90.6,279,84.6,280.1,77.2z M635.9,31.5c-0.9,0.1-1.9,0-2.8,0.4c-11.7,4.6-23.5,9.3-35.2,14.1
				c-1.2,0.5-2.5,1.7-3.1,2.9c-4.6,8.6-9.1,17.3-13.6,26c5.2-3.8,9.4-8.5,13.5-13.3c8.7-10.2,18.6-18.7,31.6-22.7
				c2.2-0.7,4.7-0.4,8.2-0.7c-4.4,5.6-7.8,10-12.1,15.6C634.9,49.2,639.4,41.1,635.9,31.5z M685.2,93.8
				c-7.3-19.1-18.8-34.8-35.9-46.6c1,18.9,8.1,37.8,15.8,41.5c-2.5-8.1-5-15.8-7.4-23.6c0.8-0.5,1.6-1,2.4-1.5
				C671.2,71.1,674.3,85.9,685.2,93.8z M347.3,131.6c-0.1-0.4-0.2-0.8-0.4-1.1c-4.6,0.5-9.1,1.1-13.7,1.6
				c-5.7,0.6-10.4,2.9-14.2,7.4c-3.8,4.4-8.2,8.4-12.3,12.5c-1.6,1.6-3.4,3.2-6.3,6c5.1-1.3,8.4-2.4,11.8-2.9
				c7.5-1.1,14.9-3.3,18.8-9.9c3.3-5.6,8.4-7.9,13.1-11.3C345.1,133.1,346.2,132.3,347.3,131.6z M186.4,223.1c1.5-9.2,2.3-9,9.5-4.3
				c7.9,5,16.7,8.6,25.1,12.9c0.3-0.7,0.7-1.3,1-2c-13.1-10.3-26.3-20.6-39.6-31.1C180.5,206.6,179,215.2,186.4,223.1z M154.3,125.6
				c-6.8,2.6-13.9,4.9-15.6,13.3c-0.3,1.5-1.5,2.8-2.5,4c-4.5,6-9.3,11.6-18.5,11.9c2.4,2.1,3.9,3.2,5.1,4.4
				c7.1,7.1,7.1,7.1,11.9-1.2c0.2-0.4,0.3-0.9,0.6-1.1C145.7,149.1,146,135,154.3,125.6z M466,160c26.2-3.8,44.8-19.8,64.8-33
				C506.9,132.7,486.9,146.1,466,160z M327.9,266.9c12.6,2,16.6-0.7,19.9-11.7c1.4-4.7,4.2-9.1,6.2-13.7c3-7.1,9.4-13,8.6-21.1
				C351.3,235.7,339.8,251,327.9,266.9z M66.1,110.4c-15.8,15.4-11.5,33.4-11,51.9c5-4.6,9.2-8.6,14-13c-1.5-1.1-3.3-1.9-4.1-3.2
				c-1.9-3.3-5.1-7.3-4.6-10.4c1-6,4.5-11.5,6.3-17.5C67.4,115.8,66.4,113,66.1,110.4z M190.6,56.8c-4.4,15.5,4.5,28.5,3.9,42.5
				c0.9-6.8,0.2-13.4,0.2-20.1c0-2.4,1.4-4.7,2.2-7.1c2.1,0.9,4.6,1.5,6.2,2.9c2.7,2.4,4.6,5.6,7.2,8.2c1.4,1.4,3.3,2.4,5,3.5
				c0.4-0.6,0.8-1.1,1.3-1.7C210.9,73.3,201.7,64.8,190.6,56.8z M413.6,136.5c-9.7,0.5-20.2,2.7-29.9,1
				c-12.1-2.1-17.8,5.8-25.3,11.5c2.3,0.1,4.5-0.3,6.6-0.9c9.2-2.6,18.4-6.5,28.1-3.6C402.8,147.4,409.1,143.7,413.6,136.5z
				 M197.7,183.2c0.3,0.4,0.6,0.9,0.9,1.3c1.2-0.1,2.4-0.2,3.6-0.4c4.1-0.6,7.5-1.2,5.7,5.4c-0.7,2.7,1.6,6.3,2.6,9.5
				c0.8,0,1.6,0,2.3,0.1c2.8-11,5.7-22,8.7-33.8C213.6,171.3,205.6,177.3,197.7,183.2z M593.3,148.8c-0.7,0.5-1.4,0.9-2,1.4
				c-0.1,0.8-0.5,1.6-0.4,2.3c1.3,11.3,8.2,18.1,18.2,22.3c2.6,1.1,5.4,1.8,8.2,2.8c0.5-0.7,1-1.4,1.5-2.1
				C610.3,166.5,601.8,157.6,593.3,148.8z M275.1,245.1c-0.8-0.4-1.5-0.7-2.3-1.1c-7.6,11.3-21,18-26.2,32.8
				c3.5-1.9,5.8-3.1,9.3-4.9c0,5.3,0,9.1,0,13c0.5,0.1,1.1,0.1,1.6,0.2c1.3-5.6,2.2-11.4,4.2-16.7c1.6-4.2,4.6-7.8,6.9-11.7
				C270.7,252.8,272.8,248.9,275.1,245.1z M328.3,89c-3.1,2.6-6,4.1-7.6,6.4c-3.5,5.3-6.4,10.9-9.2,16.6c-0.5,1.1,1,3.2,1.6,4.8
				c1.6-1,3.3-1.8,4.8-2.9c0.7-0.6,1.1-1.7,1.4-2.7c3.3-10.1,8.2-17.4,21.4-10.4c-0.1-0.7-0.2-1.5-0.2-2.2
				C336.3,95.2,332,91.8,328.3,89z M647.1,271.1c0.3-0.4,0.5-0.9,0.8-1.3c-4.3-3.3-8.6-6.6-14.1-10.9c0.9,11.9-9.7,20.7-3.4,33.3
				c1.1-2.5,1.4-3.7,2.1-4.8c1.5-2.3,3.2-4.6,4.8-6.8c1.9,1.9,3.9,3.7,5.6,5.7c2,2.3,3.6,4.9,5.4,7.4c0.6-0.4,1.2-0.9,1.8-1.3
				c-5.1-7.2-10.3-14.4-15.9-22.4c3.1,0,5.1-0.2,7.1,0C643.2,270.1,645.1,270.7,647.1,271.1z M167.3,159.1
				c16.5-4.8,32.5-9.6,48-14.1c-8,0-16.5,0-25,0C179.7,145.1,173.2,151.6,167.3,159.1z M334.7,248.8c-12.9,12.3-28.4,22.8-30.5,42.8
				c2.1-1.7,3.7-3.9,5.1-6.1c3.5-5.2,6.2-11.2,10.6-15.4C326.3,263.9,331.7,257.3,334.7,248.8z M185.8,121.7
				c-0.2,0.7-0.3,1.4-0.5,2.2c13.5,4,27.1,8,41,12.1c2.3-3.9,4.5-7.8,7.7-13.3c-2.9,1.4-4.2,1.9-5.3,2.7c-7.1,5.4-14.5,4.9-22.5,2
				C199.7,124.9,192.7,123.5,185.8,121.7z M410.4,61.4c0.4,0,0.8,0,1.2,0c0.8-4.7,0.7-10,2.7-14.1c2.1-4.1,6.4-7.2,9.8-10.8
				c-10.3-2.3-13.5-0.9-15,8.4C408.3,50.2,409.9,55.9,410.4,61.4z M714.2,139.7c-7.1-7.3-19.9-9.1-30.7-3.8
				C694.6,137.3,704,138.5,714.2,139.7z M263,193.5c5.7-4.6,11.5-9.2,17.7-14.2C268.6,178.1,263.5,182.4,263,193.5z M526.5,141.5
				c-5.9,6.2-8.8,13.3-8.2,21.5c0.8,0.2,1.6,0.5,2.4,0.7C522.6,156.3,524.5,148.9,526.5,141.5z M702,147.3c-0.5-0.6-1-1.3-1.5-1.9
				c-3.4,2.6-6.8,5.3-10.2,7.9c0.4,0.6,0.9,1.2,1.3,1.8C695.1,152.6,698.5,149.9,702,147.3z"/>
			<path class="st0" d="M583,305.5c-12.8-16.4-30-27.9-45.1-41.7c-7-6.4-12-15.1-17.6-23c-0.7-0.9,0.2-4.2,1.2-4.8
				c11.8-6.8,19.4-16.4,23.7-29.6c3.4-10.5,7.5-21.5,17.6-28.4c4.8-3.3,6.3-3,6.8,3c0.7,7.3,0.6,14.7,0.9,22.1
				c0.3,8.7,0.6,17.5,2.2,26.2c0-11.3,0-22.6,0-35.1c4.5,3.1,7.8,6.3,11.6,7.8c13.9,5.6,26.7,12.8,37.5,23.4c1,1,2.5,1.9,2.8,3.1
				c1.8,7,3.3,14.1,4.8,21.2c-10.2-2.3-13-10.6-15.8-19c-2.6-7.7-16-15.9-24-14.1c-1.1,0.2-2.5,3.7-2.2,5.3
				c3.2,16.6,6.7,33.2,10.1,49.8c-0.5,0.3-1,0.7-1.5,1c-5.9-9.5-11.8-18.9-18.3-29.4c5.6,15.2,11.6,28.6,25.7,37.8
				c-4.8-21.2-9.3-41-13.8-60.9c10.1-2,20.4,4.2,22,13.5c1.3,7.5,5.1,12.7,11.8,15.9c5.2,2.5,7.9,6.3,6.7,12.3
				c-1.2,6-2.7,12-3.3,18.1c-0.4,4.2,0,8.5,0.7,12.6c0.2,1.3,2.3,2.4,3.6,3.5c1-1.3,2.4-2.5,3-3.9c1-2.6,1.4-5.5,2.4-9.3
				c6.5,8.1,12.3,15.4,18.1,22.7C630.6,305.5,606.8,305.5,583,305.5z"/>
			<path class="st0" d="M207.6,305.5c0.2-1.2,0.8-2.4,0.7-3.6c-1.3-12.2,5.3-20.3,13.1-28.7c5.5-6,8.2-14.7,11.8-22.4
				c1.8-4,2.4-8.6,4.1-12.7c1.5-3.5-0.5-4.5-2.9-6.1c-13.1-8.4-26.5-16.5-39-25.7c-4.9-3.6-7.8-9.8-12.8-16.5
				c8.3-1.6,14.5-2.8,19.8-3.9c3,6.6,5.5,12.2,8.7,19.2c2-2.9,4.1-4.6,4.7-6.8c1.4-4.7,2.2-9.6,2.9-14.4c1.5-9.4,4.9-17.7,13-23.2
				c1.6-1.1,5-1.3,6.8-0.3c7.5,4.1,14.5,9.1,22,13.1c4.9,2.7,5.5,5.4,3,10.3c-2.4,4.7-3.3,10.2-5.4,15.1c-1.2,2.8-3.8,5.1-5.5,7.8
				c-0.8,1.3-1.7,3.2-1.3,4.4c2.9,8.1,9,13.8,15.4,19.1c5.8,4.9,5.6,10.9,0.9,16.8c-7.4,9.1-18,15.5-22.7,26.9
				c-0.7,1.8-2.1,3.5-2.6,5.4c-2.6,10.5-9.3,18.4-16.1,26.1C219.9,305.5,213.8,305.5,207.6,305.5z"/>
			<path class="st0" d="M260.5,305.5c-3-7.3-4.7-14.6,0.2-21.9c0.9-1.4,1.3-3.6,1.2-5.3c-0.5-11,5.9-18.7,12.6-26.1
				c4.1-4.6,3.2-9.6,1.2-14.3c-2.8-6.5-6.3-12.6-9.5-18.8c-0.4-0.9-0.5-1.9-0.9-3.3c30.1,0,59.8,0,90,0c-3.4,9.9-9.4,18.6-17.8,26
				c-11.8,10.5-24.1,20.5-32.5,34.2c-1,1.5-2,3.3-2.1,5.1c-0.5,9.4-6.2,16.6-10.2,24.6C281.9,305.5,271.2,305.5,260.5,305.5z"/>
			<path class="st0" d="M71,305.5c0.4-8.7,0.6-17.4,1.2-26.1c0.2-2.1,1.6-4.3,3-6.1c6.1-8.1,15.9-10.8,23.9-16.2
				c4.2-2.8,5.7-10.2,7.4-15.8c1.2-4.2,0.8-8.9,1.1-13.6c6.5,3.5,12.8,6.6,18.7,10.3c1.9,1.2,3.6,4.4,3.6,6.6
				c-0.2,10.7,5.6,17.7,13.8,22.9c7.3,4.6,11.5,15.5,8.6,23.7c-1.7,4.8-3.3,9.6-4.9,14.3C121.9,305.5,96.4,305.5,71,305.5z"/>
			<path class="st0" d="M0.8,279.7c3-9.7,5.6-19.5,9-29c3.3-9.5,9.7-16.5,20.5-20c-3.3,5.1-6.4,9.2-8.8,13.7
				c-2.1,4-3.8,8.4-4.8,12.8c-0.9,3.8-0.1,7.4,5.1,7.9c5,0.5,8.7-0.9,9.4-6.2c0.4-3-0.6-6.2-0.1-9.1c0.6-3.7,0.9-8.3,3.3-10.5
				c7-6.7,10.3-5.6,13.8,3.5c4.2,11.1,8.2,22.3,12.8,33.2c1.9,4.6,0.5,7.9-2,11.2c-3.5,4.7-7.2,9.2-10.6,13.9
				c-0.9,1.3-1.4,2.9-2,4.3c-15.2,0-30.4,0-45.5,0C0.8,296.9,0.8,288.3,0.8,279.7z"/>
			<path class="st0" d="M355.3,305.5c-7.2-4.9-14.4-9.6-21.4-14.6c-1.2-0.9-2.1-2.4-2.8-3.8c-2.3-4.4-4.5-8.9-7.3-14.5
				c5.6-0.3,10.7-1.7,15.1-0.5c12.1,3.5,22.1-1.4,32.1-6.5c7.9-4.1,15.3-9.2,22.9-13.8c5.5-3.2,10.5-4.1,15.5,1.7
				c1.9,2.2,5.6,2.8,9.8,4.8c-1,2-1.7,5.3-3.8,7.2c-10.6,9.7-21.7,18.8-32.2,28.7c-3.1,2.9-4.7,7.5-6.9,11.4
				C369.3,305.5,362.3,305.5,355.3,305.5z"/>
			<path class="st0" d="M169.5,305.5c-1.8-6.6-3.1-13.4-5.5-19.9c-1-2.7-3.9-4.8-6.2-7.4c4.8-4.4,10.6-8.8,15.1-14.2
				c5.4-6.5,10-13.7,14.1-21.1c3.2-5.8,7-11.9,2.5-19.2c-1.2-2,0.3-6.1,3.5-3.8c11.9,8.8,25.7,13,41.9,16.8
				c-4.9,4.9-8.6,8.9-12.6,12.6c-2.9,2.5-6.4,4.3-9.4,6.7c-1.6,1.4-3.6,3.6-3.7,5.5c-0.3,12.7-10.7,18-18.1,25.5
				c-6.2,6.3-12.8,12.3-19.2,18.5C171.1,305.5,170.3,305.5,169.5,305.5z"/>
			<path class="st0" d="M477.2,305.5c-1.3-2.2-3.1-4.3-3.7-6.8c-3.9-14.8-7.4-29.6-11.4-44.4c-1.2-4.4-3.3-8.5-5.1-12.7
				c4.2-2.1,7.5-1.1,11.7,2.6c6.8,6,15,10.4,22.2,15.9c6.3,4.7,12.1,10.1,18.1,15.2c5.6,4.8,10.7,10.5,17,14.3
				c6.5,3.9,8,9.9,10.3,15.9C516.5,305.5,496.8,305.5,477.2,305.5z"/>
			<path class="st0" d="M0.8,176.3c15.2-6,24.8-17.9,32-31.9c5.9-11.5,11.1-23.5,16.8-35.2c0.9-1.9,2.7-3.5,3.9-5.2
				c8.9,2.4,8.1,2.1,4.1,10.4c-4.7,9.7-8.6,19.8-5.8,31.5c1.5,6.2,2.5,14,0.1,19.4c-4,9.1-7.4,20-18.3,23.9
				c-12,4.3-21.5,11-26.8,23.2c-1,2.3-4,3.8-6.1,5.7C0.8,204.2,0.8,190.3,0.8,176.3z"/>
			<path class="st0" d="M379.9,305.5c2.9-4.2,5.2-9.1,8.9-12.5c8.4-7.9,18.1-14.4,25.9-22.7c5.8-6.2,8.9-5.5,15.4-0.7
				c14.1,10.4,28,20.6,37.2,36C438.2,305.5,409.1,305.5,379.9,305.5z"/>
			<path class="st0" d="M471,305.5c-9.1-13-19-25.2-33.2-33c-12.6-7-16.9-15.5-14-28.8c8.9,0,18-0.3,27,0.2c2.2,0.1,5.2,2.8,6,5
				c3.1,9,5.6,18.2,8.2,27.4c2.8,9.7,5.6,19.5,8.4,29.2C472.6,305.5,471.8,305.5,471,305.5z"/>
			<path class="st0" d="M176.8,305.5c3.9-4.5,7.6-9.4,11.9-13.6c5.4-5.1,11.7-9.4,17.1-14.6c2.4-2.3,3.9-5.8,4.9-9
				c2.9-9.4,9.8-17.1,20.5-21.4c-1.1,8.9-5.7,15.7-10,22.4c-3.9,6-9.9,10.9-13,17.3c-2.8,5.6-2.9,12.5-4.2,18.9
				C194.9,305.5,185.9,305.5,176.8,305.5z"/>
			<path class="st0" d="M659.3,305.5c-3-5.5-6-10.9-9-16.4c-2.9-5.3-5.9-10.5-10-17.7c6.2,2.9,11.4,4.6,15.9,7.5
				c5.8,3.8,10.8,8.9,18.6,6.2c0.9-0.3,2.5,0.4,3.3,1.2c5.4,5.5,11.6,10.4,12,19.1C679.8,305.5,669.6,305.5,659.3,305.5z"/>
			<path class="st0" d="M0.8,239.1c8-5.4,13.5-13,15.9-22.2c1.5-5.7,5-8,9.7-9.7c4-1.4,8.1-2.5,12.1-3.7c2.5,16.4-0.3,18-17.2,29.3
				c-5.9,3.9-10.7,8.5-13.2,15.4c-2.3,6.4-4.8,12.8-7.3,19.2C0.8,257.9,0.8,248.5,0.8,239.1z"/>
			<path class="st0" d="M301.2,305.5c6.1-10.3,12.3-20.6,19.4-32.6c2.7,5.1,5.3,8.5,6,12.1c1,5.3,4.5,6.9,8.5,9.3
				c5.4,3.2,10.2,7.4,15.3,11.2C334,305.5,317.6,305.5,301.2,305.5z"/>
			<path class="st0" d="M539.9,305.5c-1.4-2.7-3.5-5.2-4.1-8c-1.5-6.7-2.2-13.5-3.3-20.3c0.8-0.3,1.5-0.7,2.3-1
				c2.2,2.1,4.8,4,6.7,6.4c3.6,4.6,7.8,7.3,13.7,8c9.5,1,15.3,7.6,20.3,14.9C563.7,305.5,551.8,305.5,539.9,305.5z"/>
			<path class="st0" d="M0.8,143.1c13-10,26-20,38.9-30c1.8-1.4,3.6-2.7,6.4-3.1c-6.7,13.9-13.4,27.9-20.1,41.8
				c-0.7-0.2-1.3-0.5-2-0.7c0.1-1.9,0.6-4,0.2-5.8c-0.3-2-1.4-3.9-2.2-5.8c-1.9,0.8-4,1.4-5.6,2.6c-5.3,3.9-10.5,8-15.8,12.1
				C0.8,150.5,0.8,146.8,0.8,143.1z"/>
			<path class="st0" d="M0.8,221.8c4.1-4.6,9.6-8.7,12-14.1c5.1-11.6,16-13.5,25.6-18.2c0.4,8.4-2.7,12.9-10.1,14.5
				c-7,1.5-11.4,4.8-14.2,12.2c-2.7,7-8.7,12.8-13.3,19.1C0.8,230.9,0.8,226.4,0.8,221.8z"/>
			<path class="st0" d="M243.3,305.5c0.1-5.5,0.1-11,0.4-16.5c0.3-5.8,2.9-10.2,8.7-12.4c1.5,9.9,3,19.4,4.4,28.9
				C252.3,305.5,247.8,305.5,243.3,305.5z"/>
			<path class="st0" d="M48.8,305.5c5.7-7.9,11.4-15.7,17.7-24.4c4.2,8.6,4.3,16.4,0.8,24.4C61.2,305.5,55,305.5,48.8,305.5z"/>
			<path class="st0" d="M0.8,157.8c6.7-4.7,13.4-9.4,19.9-13.9c2.5,9.5,0.6,14.5-9.3,19.2c-3.5,1.6-7.1,3.1-10.7,4.6
				C0.8,164.4,0.8,161.1,0.8,157.8z"/>
			<path class="st0" d="M149.8,305.5c2.2-7.5,4.3-15,6.6-22.9c3.5-0.3,5.2,1.9,5.9,5.6c1.1,5.8,2.4,11.6,3.6,17.3
				C160.4,305.5,155.1,305.5,149.8,305.5z"/>
			<path class="st0" d="M231,305.5c2.8-4.1,5.7-8.3,8.5-12.4c0.4,0.1,0.9,0.1,1.3,0.2c0,4.1,0,8.2,0,12.2
				C237.6,305.5,234.3,305.5,231,305.5z"/>
			<path d="M720.1,175.7c1.2,0.5,2.4,1,4.1,1.7c-2.5-6.1-4.8-11.5-7.1-17c0.4-0.3,0.8-0.6,1.2-1c4.9,2.7,9.7,5.4,14.6,8.2
				c-0.2,0.4-0.4,0.9-0.6,1.3c-3.2-1.4-6.3-2.7-10.7-4.6c3.2,7,5.8,12.7,8.4,18.5c-0.5,0.4-1.1,0.7-1.6,1.1c-3-2.3-6-4.7-9-7
				C719.6,176.4,719.9,176,720.1,175.7z"/>
			<path class="st0" d="M621,58.1c9.6-3.4,16-10.2,20.2-19.5c0.6-0.1,1.2-0.1,1.8-0.2c2.1,7.1,5.2,14,6.2,21.2
				c1.8,12.9,6.3,24.3,14.8,34.1c0.4,0.5,0.8,0.9,1.3,1.3c0.3,0.2,0.8,0.2,2,0.4c1.6-8.8-3.7-16.5-4.1-25.9
				c5.2,6.7,9.7,12.7,14.3,18.5c4.6,5.8,8.7,12.4,17.4,15C689.1,93,683.7,84,678.4,75c0.4-0.2,0.8-0.5,1.2-0.7
				c9.8,8.1,19.7,16.1,29.3,24.4c4.7,4,0.8,8.1-1.6,10.5c-4,4.1-9.3,7-14,10.5c-4.3,3.2-8.4,6.8-12.9,9.8c-2.2,1.5-5.4,3.5-7.6,3
				c-11.1-2.5-21.7-4.9-32.5,2.3c-2.8,1.9-9.1-0.5-13.3-2.1c-15.5-5.8-30.8-12-46.2-18.2c-10.4-4.2-20.4-4.6-30.5,1.3
				c-3.7,2.2-8.4,2.7-13.5,4.3c6.3-15.1,13.4-28.2,23.7-39.5c2.6-2.8,3.5-8.2,3.2-12.3c-0.3-4.7,0.9-6.9,5.2-8.1
				c2.2-0.6,4.4-1.1,6.4-2.2c2.7-1.4,5.2-3.2,7.8-4.9c-2-2.3-3.9-4.7-6.1-6.8c-2.3-2.1-4.9-3.9-8-6.3c6.3-1.3,16.2,2.7,18.7,6.7
				c2.5,4,0.5,12.6-3.2,17.7c-4.2,5.8-7.6,12.1-12.3,19.6c8.1-1.2,11.6-6.3,15.5-10.2c8.6-8.5,16.6-17.7,25.5-25.9
				c3.5-3.3,8.8-4.7,13.3-6.9c0.4,0.4,0.8,0.9,1.2,1.3c-3.1,4.8-6.1,9.7-9.2,14.5C619.4,57.2,620.2,57.7,621,58.1z"/>
			<path class="st0" d="M272.4,151.3c2.4-2.2,4.3-3.3,5.3-5c5-8.7,9.9-17.5,14.5-26.5c1.9-3.6,3.7-7.6,4-11.5
				c1-12.8,12-17.1,19.9-23.9c0.8-0.7,4.4,1.7,6.7,2.6c-0.7,1.6-1.1,3.6-2.3,4.6c-6.2,5.6-11.5,11.8-11.1,20.7
				c0.1,2.2,1.6,5.3,3.4,6.3c1.3,0.7,5-0.6,6.2-2.1c2.4-3.1,4.5-6.8,5.5-10.5c1.4-5.2,4.3-7.1,8.9-5.5c7.3,2.5,14.6,5.3,21.5,8.7
				c5.2,2.5,9.8,6.2,15.9,10.1c-11.6,3.2-22.1,7.6-33,8.8c-11.8,1.4-19.1,7.4-26.9,15.4c-8.1,8.3-15.8,16.6-22.1,26.4
				c-3.8,6-11.1,8.5-17.5,5.6c-10.7-4.9-21.2-10.4-31-16.9c-5.1-3.4-8.9-3.7-13.3-0.6c-8.4,6.1-16.8,12.2-24.7,18.8
				c-16.9,14-29.8,12.5-47.8-2.8c-5.3-4.5-9.3-11.2-18.4-10.2c0.6-1.5,0.8-2.6,1.4-3.6c6.3-11,12.5-22.1,19.1-33
				c4.4-7.3,7-8.1,15.3-5.6c14.5,4.4,28.9,9,43.3,13.6c1.6,0.5,3.1,1.5,4.7,2.3c0,0.6,0,1.2,0,1.8c-4.9,0.8-9.7,2-14.6,2.4
				c-6.7,0.6-13.7-0.1-20.2,1.3c-11.1,2.4-19.4,9-23.4,20.1c-0.3,0.8,0.1,1.8,0.2,3.3c7.4-3.6,14.1-7.6,21.3-10.1
				c9.7-3.3,19.9-4.8,29.6-8c11.2-3.7,21.4-9.5,29.1-18.7c5-6.1,9.4-12.8,14.8-18.4c2.8-2.9,7-5.1,10.9-6
				c6.9-1.7,11.1-4.7,12.2-12.3c1-6.7,3.3-13.3,5.4-19.8c1.3-4.2,4.6-4.2,7.9-2.5c1.8,0.9,3.2,2.6,5,3.5c4.5,2.3,3.3,4.1,0.6,7.4
				c-4.2,5-9.3,10.5-10.5,16.5c-1.6,8.6-7.1,12.7-12.8,17.5c-4.7,3.9-9.1,8-13.4,12.3c-0.9,0.9-0.6,2.9-0.9,4.4
				c1.4-0.1,3,0.2,4.3-0.4c2.6-1.2,5-2.7,8.2-4.6C273.2,134.8,272.9,141.9,272.4,151.3z"/>
			<path class="st0" d="M102.9,210.6c-6.9-4.9-13.9-9.7-20.6-14.9c-8.4-6.4-16.6-13.1-24.6-20c-1.4-1.2-2.2-4.6-1.6-6.3
				c3.1-8.3,9.4-17,20.4-16c3.2,0.3,6.5-0.7,9.8-0.9c10.6-0.8,19.7,1.2,24.9,12.1c4.4,9.2,11.8,14.3,22.6,13.1
				c5.5-0.6,9.9,1.6,14.8,4.2c7.1,3.6,15.4,5.5,23.3,6.8c6.9,1.1,8.5,4.6,7.4,10.5c-2,10.3-0.9,20,5.6,28.5
				c4.1,5.4,2.3,10.7-0.5,15.4c-5.7,9.3-10.6,19.2-20,25.7c-3.1,2.2-6.2,4.5-10.6,7.7c-2.4-8.9-5-16.7-6.5-24.7
				c-3.2-16.5-13.4-26.8-27.9-33.7c-5.5-2.6-11.1-5.1-16.6-7.7L102.9,210.6z"/>
			<path class="st0" d="M540.4,128.4c15.5,6.5,30,12.6,44.7,18.8c-2.7,3.1-6.6,6-8.6,10c-1.9,3.9-1.7,8.7-2.4,13.4
				c-10.7,1.2-18.2,8.1-25.1,15.6c-6.5,7-13.9,12.3-22.8,15.9c-8.1,3.3-15.9,7.5-23.8,11.2c-1.2,0.6-2.8,1.3-4,1
				c-10.2-2.7-20.3-5.7-30.6-8.6c2.9-6.4,9.6-8.9,16-11.9c2.6-1.2,4.7-3.3,7-5.1c-3.1-0.9-6.4-2.9-9.2-2.3
				c-8.4,1.6-16.6,4.4-24.9,6.4c-5.5,1.4-11.2,3-16.8,3.2c-11.9,0.4-16.4-6-16.3-20.7c4,0.3,8.2,0.1,12,1.2c6.5,1.8,11.5,0.6,17-3.5
				c5.9-4.4,12.6-8.4,19.6-10.5c16.6-5.1,31.9-12.4,45.8-22.5c0.8-0.6,1.8-1,3.4-1.8c-2.7,10.7-8.6,20.4-4.2,31.7
				c5.4-2.6,8.6-7.1,8.8-12.7C526.4,144.8,533.1,136.3,540.4,128.4z"/>
			<path class="st0" d="M70.9,108.6c3-0.4,7.4-1,11.8-1.4c1.2-0.1,3.5,0.5,3.6,1c0.1,1.4-0.1,3.4-1.1,4.2c-2.6,2.3-5.3,4.5-8.4,6
				c-5.7,2.8-6.6,7.2-4.9,14.1c24.8-11.1,41.1-32.2,62.4-47.8c-4.2,12.9-8.4,25.8-12.6,38.7c0.4,0.2,0.8,0.5,1.2,0.7
				c2.5-2.7,5.1-5.2,7.3-8.1c11.9-15.5,22.6-31.6,27.7-51c1.6-6,3.2-13.2,10.4-16.3c6.9-3,17.9,3.1,18.4,10.6
				c0.6,10.8,0.9,21.6,1.8,32.4c0.3,3.9,1.8,7.7,3.3,11.4c1.3,3.3,1.4,5.2-2,7.6c-7.6,5.5-15.3,9.2-24.9,6.6c-0.8-0.2-1.8-0.3-2.4,0
				c-10,4.4-20.1,8.8-26.9,17.9c-2.6,3.5-3.9,8.2-6.9,11.1c-7.8,7.4-16.9,6-24.6,0.4c-8.8-6.4-17.1-6.3-25.3-0.3
				c-6.6,4.8-9.7-1.1-13.5-3.7c-3.5-2.4-2.8-6.4-1.1-10c1.3-2.7,2.7-5.5,3.4-8.4C68.8,119.4,69.7,114.4,70.9,108.6z"/>
			<path class="st0" d="M497.8,72.9c-4.6,7-8.4,13.3-12.7,19.1c-0.8,1.1-4,1.3-5.8,0.8c-6.1-1.6-12.3-3.1-17.8-6
				c-4.4-2.3-8.3-6.3-11.5-10.2c-5.4-6.6-13.4-9.9-21.8-7.9c-0.8,11.5-3.7,15.7-15.5,18.8c-11.9,3.1-19.7,10.8-26,20.6
				c-4.5,7.1-8.4,9.1-15.7,5.6c-6.4-3.1-12.3-7.6-17.7-12.4c-1.6-1.4-1.7-5.9-0.8-8.4c3.1-8.3,7.7-16.2,10.4-24.6
				c1.7-5.2,1.8-11.3,1-16.8c-1.3-7.9-0.4-14.6,4.6-21.2c2.3-3.1,2.1-7.9,3.4-13.3c10.2,7.2,20.5,14.3,30.6,21.7
				c2.7,1.9,4.2,4.7,2.8,8.6c-0.6,1.7,0.1,4.7,1.3,6.3c3.4,4.6,2.1,9.1,0.7,13.9c-0.9,3-1.3,6.1-2,9.1c0.5,0.3,1,0.5,1.5,0.8
				c1-0.7,2.6-1.2,2.9-2.1c2.3-6.7,5.8-13.5,6-20.3c0.2-9,7.6-11.4,11.8-16.7c0.2-0.2,3.3,1,4,2.2c7.4,12.2,17.1,21.8,29.7,28.9
				c6.7,3.8,12.4,9,18.8,13.4c5.4,3.7,8.4,2.5,9.3-4.1C489.7,73.8,492.4,73.3,497.8,72.9z"/>
			<path class="st0" d="M428.4,172c3.7-9.4,7.1-19.1,11.3-28.3c1.6-3.5,4.7-6.6,7.7-9.1c16.4-13.8,33-27.5,49.6-41.1
				c8.2-6.7,16.6-13,25.2-19.3c3.5-2.6,3.8-4.6,1-8c-0.9-1.1-1.1-4-0.3-5.3c6.8-11.7,18.4-18.2,29-25.5c3.3-2.3,6.2-0.2,6,3.1
				c-0.2,3.9-1.1,8.4-3.5,11.3c-6.9,8.6-11.4,17.9-13.1,29c-1.4,9.1-4.8,17.9-7.3,26.9c-0.7,2.6-1.7,5.3-1.4,7.8
				c0.9,7.7-4.2,10.1-9.8,12.5c-10.1,4.4-20.7,7.9-30,13.6c-14.2,8.6-27.8,18.2-41,28.2C441.5,175.6,441.9,176.2,428.4,172z"/>
			<path class="st0" d="M444.1,215.4c-10.4,4.9-20.7,9.9-31.1,14.7c-2.6,1.2-5.7,1.3-8.1,2.8c-5.2,3.4-10.2,4.8-15.8,1.4
				c-4.7-2.9-11-5-13.7-9.2c-5.4-8.5-12.9-13-21.5-17.4c-6.5-3.4-12.2-3.6-19.1-2.6c-8.3,1.2-17,0.3-25.5,0.5c-11,0.2-22,0.6-33,1
				c-2.5,0.1-5,0.4-7.6,0.7c-0.1-0.7-0.2-1.4-0.3-2.1c10.4-1.8,20.7-3.9,31.1-5.3c13.6-1.8,27.2-3.4,40.9-4.7
				c16.6-1.6,28.7-10.3,38.3-23.3c1.3-1.8,2.7-3.7,4.5-5c7.9-6.1,15.2-3.2,18.3,6.5c2.4,7.7,4.8,15.7,8.8,22.7
				c4,7.1,11.5,10.5,19.4,12.7c4.7,1.3,9.3,2.5,14,3.7C443.7,213.5,443.9,214.4,444.1,215.4z"/>
			<path class="st0" d="M477.2,97.5c-7.3,8.7-13.5,16.6-20.3,24c-7,7.6-15.5,14.2-26.2,10.2c-8.9-3.3-16.1,0.7-23.9,2
				c-9.9,1.7-19.8,3-31.3-0.8c5.4-4.6,9.9-8.8,14.7-12.5c14.1-10.8,30.3-17.3,47.2-22.2c5.6-1.6,7.2-4.9,5.4-10.2
				c-0.5-1.4-1.5-2.8-1.2-4c0.4-1.9,1.7-3.7,2.7-5.5c1.4,0.8,3,1.4,4.2,2.5c6,5.1,10,12.9,18.9,14.3
				C470.4,95.8,473.3,96.6,477.2,97.5z"/>
			<path class="st0" d="M71.1,268.7c-2.9-10.6-5.4-21.5-9-32c-2.6-7.8-6.3-15.3-10.1-22.7c-6.1-12-3.9-24-1.5-36.1
				c0.7-0.5,1.3-0.9,2-1.4c2.9,3.4,6.4,6.6,8.7,10.4c4,6.6,7.2,13.6,10.9,20.3c5.4,9.7,10.1,20,19.5,26.6c3,2.1,6.9,3,11.1,4.7
				C100,256.7,82.5,260.4,71.1,268.7z"/>
			<path class="st0" d="M438.3,135.5c-8.3,11.2-5.9,27.4-18.3,34.9c-9-3.9-17.8-7.8-26.8-11.6c-1-0.4-2.4-0.4-3.6-0.2
				c-10.4,2.2-21.1,3.6-31.1,6.9c-6.5,2.2-12.9,6.2-17.6,11.1c-5.6,5.8-11.2,8.4-18.9,7c-3.9-0.7-7.9-1-13.1-1.7
				c3.3-1.6,5.8-2.5,7.9-3.8c10.7-7,21.2-14.2,31.9-21.1c2.6-1.7,5.9-2.5,9-3.5c13.5-4.6,27-9.9,41.7-5.6c7.6,2.2,12.3-3.7,15.8-8.3
				c4.5-5.7,9.2-6.3,15.3-5.2C433,135,435.4,135.1,438.3,135.5z"/>
			<path class="st0" d="M520,263.1c1,7,1.9,14.1,3,22.4c-3.6-3.3-7.2-5.7-9.5-8.9c-9.6-13.3-24.2-20.3-37.2-29.1
				c-9.1-6.2-9.1-11.8,0.9-16.3c7.2-3.2,15.1-4.5,22.6-7.1c5.7-2,11-4.8,16.6-7.1c2.6-1.1,5.4-1.7,9.1-2.9c-3.5,8.5-8.4,16-9.2,23.9
				c-0.8,8.2,2.3,16.8,3.8,25.2L520,263.1z"/>
			<path class="st0" d="M183.5,118.9c0.6-0.7,1-1.5,1.6-1.9c14.9-8.7,15.4-22.1,12.4-36.8c-0.3-1.6,0.8-3.5,1.5-6.6
				c4.2,5,7.2,9.1,10.8,12.5c1.7,1.6,4.6,2.4,7,2.6c0.8,0.1,1.8-3,3.2-5.5c7.9,8.1,17.9,13.6,31.2,15.2
				c-9.8,11.2-16.6,23.2-30.1,27.7c-3,1-6.9,0.5-10.1-0.3C202,123.8,192.9,121.3,183.5,118.9z"/>
			<path class="st0" d="M290.8,186.5c0.7-3.9,1.3-7.3,2-10.7c0.3-1.3,0.6-2.7,1.3-3.8c5.6-8.4,12.7-14.7,23.3-15.9
				c7.6-0.9,12.7-5.1,17.5-11c3.6-4.4,8.9-7.7,14.1-10.5c10.1-5.5,20.6-10.2,30.9-15.3c0.6,0.7,1.1,1.4,1.7,2.1
				c-4.3,4.6-7.8,10.9-13.1,13.3c-7.3,3.3-12.1,8.8-17.2,14.1c-13,13.5-27.6,24.5-45.4,30.8C300.5,181.4,295.3,184.4,290.8,186.5z"
				/>
			<path class="st0" d="M102.7,210.4c5.2,3.1,10.2,6.4,15.5,9.2c12.4,6.5,22.1,15,24.5,29.8c0.8,4.9,2.8,9.5,4.5,14.9
				c-8.6-2-15.2-11.2-14-19.1c0.7-5-0.9-7.4-5.2-9.7c-7.3-3.9-15.8-5.9-20.8-13.5c-0.7-1.1-3.1-1.1-5.4-1.9c0.4,3.7,0.7,6.5,1,9.2
				c0.5,5.1-2.4,6.5-6.4,4.8c-3.2-1.4-6.7-3.6-8.6-6.4c-5.4-8-10.2-16.5-15-24.9c-3.1-5.5-5.8-11.3-8.1-17.8
				c4.5,3.4,8.9,7.2,13.7,10.3c8.1,5.3,16.4,10.3,24.6,15.4C102.9,210.6,102.7,210.4,102.7,210.4z"/>
			<path class="st0" d="M381.1,164c-11.3,16.3-24.4,27.8-44.1,29.4c-11.2,0.9-22.4,2-33.6,3.6c-14.3,2.1-28.5,4.8-42.6,7.2
				c4.6-12.3,15.8-19.1,28.4-24.7c-4.7,5.3-9.3,10.6-14.8,16.9c2.4,0.2,4.3,0.8,5.8,0.3c6.8-2.2,13.8-4.1,20-7.4
				c6.6-3.5,13.1-3.7,20.1-3.3c5.4,0.3,11,0,16.1-1.5c2.9-0.8,5.1-4.4,7.4-7c7.9-8.7,18.7-10.2,29.3-12.4
				C375.4,164.6,377.8,164.4,381.1,164z"/>
			<path class="st0" d="M667,135.2c-6.8,1.2-11.4,3.5-6.7,12.4c-7.2-0.8-13-1.6-18.9-2.1c-8.8-0.7-10.2,0.8-9.1,9.5
				c0.5,3.4,1.1,6.7,1.7,10.2c-8,1.6-10.2-4.9-12.2-8.8c-5.2-10.3-15.1-15.2-22.8-22.6c-4.6-4.4-10.1-8.1-15.5-11.5
				c-8.1-5.1-17.1-2.8-25.8-1.9c-4,0.4-8.1,1.1-12.9,1.8c14.4-10.4,24-10.7,43.3-2.7c15.1,6.3,30.3,12.3,45.6,17.8
				c2.9,1.1,7.3,0.3,10.2-1.2C651.6,132.2,659,131.3,667,135.2z"/>
			<path class="st0" d="M400.7,165.6c16.1,3.5,17.9,8.2,20,17.8c2.3,10.4,8.6,17.5,21,15.6c10.2-1.6,20-5.3,30.1-7.9
				c3.9-1,7.9-1.7,12.1-2c-7.5,6.1-19,7.8-21.1,20.2c9.6,1.4,19.4,2.8,29.2,4.2c-0.1,0.7-0.2,1.3-0.3,2c-8.8,3.8-17.6,1-26.2-0.7
				c-12-2.4-23.9-5.3-35.7-8.5c-10-2.7-17.9-7.8-20.7-19.1C407.4,179.9,403.7,173,400.7,165.6z"/>
			<path class="st0" d="M135.2,71.4c0.2,0.1,1.7,0.6,3.2,1.2c-0.3-0.4-0.7-0.9-1-1.3c7-6.5,14-13,22.1-20.6
				c-5.3,25-15.1,45.4-32.1,62.3c2.9-8.2,6-16.3,8.7-24.6c0.8-2.4,0.4-5.2,0.5-7.7c-2.1,0.7-4.7,0.9-6.2,2.3
				c-10,8.9-19.5,18.3-29.6,27c-7.5,6.4-15.8,11.9-23.8,17.8c-0.7,0.5-1.8,0.3-2.8,0.4c-0.4-0.5-0.8-1-1.1-1.5c3-2.9,6-5.8,9.1-8.5
				c2.4-2.2,5.4-3.8,7.3-6.3c1-1.2,0.2-3.8,0.2-4.6C104.6,95.3,119.4,83.8,135.2,71.4z"/>
			<path class="st0" d="M364.5,14.1c4,4.8,5,8.9,1.5,14.5c-3,4.7-4.3,10.5-5.9,15.9c-0.4,1.4,0.7,3.4,1.2,5.1
				c2.7,8.5,1.7,14.8-2.9,18.3c-11.2-9.8-23.2-5.8-26.8,8.7c-0.7,2.7-2.9,5-4.5,7.6c-3.8-3.5-6.9-6.3-10.4-9.5
				C335.9,57,353.1,38.1,364.5,14.1z"/>
			<path class="st0" d="M64,276c-2.6-7.5-4.9-15-7.7-22.3c-2.3-6.2-5-12.4-7.9-18.4c-0.6-1.2-2.5-2.1-3.9-2.4
				c-9.2-1.5-18.8,10-16.1,19c0.4,1.3,0.9,3.1,0.4,4.2c-1.1,2.5-2.5,4.9-4.3,6.9c-0.5,0.5-3.9-0.3-4.2-1.1c-0.7-2.4-1.4-5.3-0.5-7.5
				c4.1-10.3,9.5-19.7,18.6-26.5c4.6-3.5,4.1-8.5,4-13.5c-0.1-6.4,0-12.7,0-19.1c0.7,0,1.4-0.1,2.2-0.1c1.3,6,2,12.3,4.1,18
				c2.9,7.7,7.1,14.9,10.4,22.5c1.8,4.1,3.2,8.4,4.2,12.8c1.5,6.1,2.8,12.3,3.6,18.5c0.4,3.1-0.6,6.3-0.9,9.5
				C65.3,276.3,64.7,276.2,64,276z"/>
			<path class="st0" d="M560.3,34.1c7,6.3,13.4,12,20.8,18.8c-3.9,1.4-7.5,2.5-10.9,4c-3,1.3-5.9,2.7-8.5,4.6c-1,0.7-2.1,3.2-1.6,4
				c4.7,7.5-1.3,12.2-4.5,17.5c-5,8.3-10.3,16.3-15.6,24.5c-1.1,1.8-2.3,3.5-3.5,5.3c-0.5-0.2-1-0.4-1.5-0.6
				c0.5-2.2,0.8-4.5,1.4-6.7c2.5-9,4.5-18.2,7.7-27c3-8.4,7.1-16.5,10.9-24.6c1.8-3.9,4.7-7.3,6.2-11.2
				C562,40.6,560.8,38,560.3,34.1z"/>
			<path class="st0" d="M392.5,239.5C379.5,251,365.2,259.2,349,265c-0.1-10.3,5.6-17.9,9.7-26.2c3-6.1,5.6-12.3,8.7-19.1
				c2.7,3.5,5.5,8.5,9.7,11.8C381.4,234.9,387,236.7,392.5,239.5z"/>
			<path class="st0" d="M343.7,270.2c7.4-3.4,14.1-5.7,20.1-9.3c10.3-6.1,19.8-13.5,30.1-19.5c6.6-3.9,13.9-6.5,21-9.5
				c1.2-0.5,2.9-0.7,4.2-0.3c7.9,2.4,15.8,5,23.7,7.6c0.9,0.3,1.7,0.9,3.9,2.1c-7.9,0-14.1,0.3-20.3-0.1c-8.6-0.6-9.4,0-8.5,8.2
				c0.1,1.4,0,2.8,0,6.2c-3.5-2.3-6.5-3.3-7.9-5.4c-2.7-4-5.8-5-9.9-2.9c-7,3.6-14.4,6.8-20.7,11.4C370.4,265.3,353,272,343.7,270.2
				z"/>
			<path class="st0" d="M483.7,222.3c-11.1,7.2-19.1,18.8-32.7,16.3c-9-1.6-18.9-2.2-26.8-8.7C443.2,223.3,461.5,213.5,483.7,222.3z
				"/>
			<path class="st0" d="M432.8,71.4c3.9,1.1,6.5,1.8,10,2.8c-4.4,4.9-4.7,9.4-2.2,14.5c1.5,3.1,0.1,5.1-3.4,6.4
				c-10.1,3.7-20.4,7.4-30.2,11.9c-6.5,3-12.4,7.5-18.5,11.3c-0.4-0.4-0.8-0.7-1.2-1.1c5-7.1,9.3-14.8,15.1-21.2
				c2.8-3.1,8.2-4,12.6-5.6C424,87.2,432.9,84.1,432.8,71.4z"/>
			<path class="st0" d="M473.3,110c9.3-12.1,18-23.3,26.6-34.5c0.9-1.2,1.7-3.2,1.2-4.3c-0.4-0.9-2.8-1.7-4.1-1.4
				c-4.8,1.1-11.2,0.6-9.9,9.3c-2.2-1.3-3.7-2.1-7.1-4c16.4-8.8,31.6-17,46.8-25.1c0.3,0.1,0.5,0.3,0.8,0.4
				c-1.5,1.9-2.8,4.1-4.5,5.8c-3.3,3.3-4.6,6.8-3.1,11.6c0.6,1.7-0.3,4.9-1.7,6c-5.2,4.5-11,8.3-16.4,12.7
				c-7.8,6.5-15.4,13.2-23.1,19.8C477.3,107.6,475.6,108.5,473.3,110z"/>
			<path class="st0" d="M347.6,101.9c-4.8-4-9.7-8.2-14.7-12.3c-2.5-2.1-3.3-4.1-1.5-7.4c2.8-5,2.1-11.5,8.3-15.1
				c5.2-2.9,9.7-3.1,14.3,0.1c4.2,2.9,2.9,7.3,1.7,11.2c-0.7,2.3-2.4,4.3-3.1,6.5C350.8,90.5,349.3,96.1,347.6,101.9z"/>
			<path class="st0" d="M261.9,212.3c0.9,3.2,1.4,5.2,2.1,7c0.7,1.9,1.6,3.8,1.9,6c-4.8-3.5-10.2-6.4-10.4-14.4
				c19.6-0.8,38.7-6.2,58.5-2.1c6.5,1.3,13.8-0.2,20.6-1.3c6.9-1.1,13.4-2.3,18.6,4.5C323.2,217.1,293.3,214.5,261.9,212.3z"/>
			<path class="st0" d="M490.9,222c19.1-9.4,37.9-18.7,56-27.7c-1.9,15.7-14.9,35.4-27.7,39.1c1.9-3.1,3.3-5.1,4.3-7.2
				c1.6-3.3,3.2-6.6,4.5-10.1c1.2-3.2-0.3-5-3.6-4.1c-4.9,1.4-9.9,2.7-14.3,5.1C501.8,221.7,501.9,222.1,490.9,222z"/>
			<path class="st0" d="M78.8,150.5c11.2-11,20.7-4.6,29.8,1.2c5.9,3.8,11,9,16.7,13.2c2.3,1.7,5.9,4.1,7.8,3.3
				c7.7-3,12.7,0,17.8,5.4c3.7,3.9,8.2,7,12.4,10.5c-0.2,0.5-0.5,1-0.7,1.4c-5-2.4-9.9-4.9-15-7.2c-2.9-1.3-6.1-3.6-8.9-3.3
				c-12,1.4-20.8-1.8-26.4-13.3c-5.5-11.3-16.1-12.5-27.2-11.7C83.1,150.2,81.3,150.4,78.8,150.5z"/>
			<path class="st0" d="M520.1,263.3c0-4.8,0-9.7,0-14.5c0.5-0.4,0.9-0.8,1.4-1.2c10,17.6,27.1,27.6,42.5,40.8
				c-9.8,0.4-17-2.2-22.3-9.8c-2-2.8-5.2-4.7-7.8-7c-0.8,0.3-1.6,0.5-2.4,0.8c0,3.4,0.2,6.9-0.1,10.3c-0.1,1.4-1.1,2.8-1.6,4.2
				c-1.2-1.1-3-2.1-3.5-3.4c-2.3-6.7-4.1-13.6-6.2-20.4C520,263.1,520.1,263.3,520.1,263.3z"/>
			<path class="st0" d="M306.1,76.6c2.1,1.5,4.1,3.1,7.2,5.4c-4.9,4.5-9.5,8.4-13.6,12.7c-2,2.1-4.3,4.9-4.4,7.4
				c-0.3,10.6-7.3,17.9-12,26.2c-1.8,3.3-3.9,6.4-6.9,9.4c0.9-5,1.9-9.9,3.2-16.6c-5.5,2.9-9.7,5.2-13.9,7.4
				c-0.3-0.4-0.6-0.8-0.8-1.2c5.1-4.1,9.6-9.2,15.3-12.2c7.4-4,9.6-10.6,11.6-17.5c1.5-5.5,3.6-10.1,8.6-13.5
				C302.6,82.4,304,79.4,306.1,76.6z"/>
			<path class="st0" d="M280.1,77.2c-1.1,7.4-1.2,13.4-3.1,18.8c-1,2.8-5.1,5.9-8.1,6.3c-9.9,1.3-14.9,8-20,15.2
				c-4.6,6.5-10,12.3-15,18.5c-0.7-0.4-1.4-0.8-2.1-1.3c0.1-1.2,0-2.5,0.4-3.6c4.2-9.5,11.1-16.7,19.5-22.8
				c4.7-3.5,9.2-7.3,13.3-11.5c2.4-2.4,3.4-5.6-3.6-5.2C267.7,86.8,273.2,82.5,280.1,77.2z"/>
			<path class="st0" d="M635.9,31.5c3.5,9.7-0.9,17.7-13.4,22.2c4.4-5.6,7.7-9.9,12.1-15.6c-3.5,0.3-6,0-8.2,0.7
				c-13.1,4-23,12.5-31.6,22.7c-4.1,4.8-8.3,9.4-13.5,13.3c4.5-8.7,8.9-17.4,13.6-26c0.6-1.2,1.9-2.3,3.1-2.9
				c11.7-4.8,23.4-9.5,35.2-14.1C633.9,31.5,635,31.6,635.9,31.5z"/>
			<path class="st0" d="M685.2,93.8c-10.9-7.9-14-22.7-25.1-30.2c-0.8,0.5-1.6,1-2.4,1.5c2.4,7.8,4.9,15.6,7.4,23.6
				c-7.7-3.8-14.8-22.7-15.8-41.5C666.4,59,677.9,74.7,685.2,93.8z"/>
			<path class="st0" d="M347.3,131.6c-1.1,0.7-2.2,1.5-3.2,2.2c-4.6,3.4-9.8,5.7-13.1,11.3c-3.9,6.6-11.3,8.8-18.8,9.9
				c-3.4,0.5-6.6,1.6-11.8,2.9c2.9-2.8,4.6-4.4,6.3-6c4.1-4.1,8.5-8.1,12.3-12.5c3.8-4.5,8.5-6.8,14.2-7.4c4.6-0.5,9.1-1.1,13.7-1.6
				C347,130.8,347.2,131.2,347.3,131.6z"/>
			<path class="st0" d="M186.4,223.1c-7.4-8-5.9-16.5-4-24.5c13.3,10.4,26.5,20.8,39.6,31.1c-0.3,0.7-0.7,1.3-1,2
				c-8.4-4.2-17.2-7.8-25.1-12.9C188.6,214.2,187.9,214,186.4,223.1z"/>
			<path class="st0" d="M154.3,125.6c-8.3,9.4-8.6,23.5-19.1,31.4c-0.3,0.2-0.4,0.7-0.6,1.1c-4.8,8.3-4.8,8.3-11.9,1.2
				c-1.3-1.3-2.7-2.3-5.1-4.4c9.2-0.3,14-5.9,18.5-11.9c1-1.3,2.2-2.6,2.5-4C140.4,130.4,147.5,128.2,154.3,125.6z"/>
			<path class="st0" d="M466,160c20.9-13.9,40.9-27.3,64.8-33C510.8,140.2,492.2,156.2,466,160z"/>
			<path class="st0" d="M327.9,266.9c11.9-15.9,23.3-31.2,34.7-46.4c0.8,8-5.5,14-8.6,21.1c-2,4.6-4.8,8.9-6.2,13.7
				C344.6,266.2,340.5,268.9,327.9,266.9z"/>
			<path class="st0" d="M66.1,110.4c0.2,2.6,1.3,5.4,0.6,7.7c-1.8,5.9-5.3,11.5-6.3,17.5c-0.5,3.2,2.7,7.1,4.6,10.4
				c0.8,1.4,2.6,2.1,4.1,3.2c-4.8,4.5-9,8.4-14,13C54.6,143.8,50.3,125.8,66.1,110.4z"/>
			<path class="st0" d="M190.6,56.8c11.1,8,20.3,16.5,25.9,28.2c-0.4,0.6-0.8,1.1-1.3,1.7c-1.7-1.2-3.6-2.1-5-3.5
				c-2.5-2.6-4.5-5.7-7.2-8.2c-1.6-1.5-4.1-2-6.2-2.9c-0.8,2.4-2.2,4.7-2.2,7.1c0.1,6.7,0.7,13.3-0.2,20.1
				C195.1,85.3,186.2,72.3,190.6,56.8z"/>
			<path class="st0" d="M413.6,136.5c-4.5,7.2-10.8,10.9-20.5,7.9c-9.7-3-18.9,1-28.1,3.6c-2.1,0.6-4.2,1.1-6.6,0.9
				c7.5-5.7,13.2-13.6,25.3-11.5C393.4,139.1,403.9,136.9,413.6,136.5z"/>
			<path class="st0" d="M197.7,183.2c8-5.9,15.9-11.9,24-17.9c-3.1,11.8-5.9,22.8-8.7,33.8c-0.8,0-1.6,0-2.3-0.1
				c-1-3.2-3.3-6.7-2.6-9.5c1.7-6.5-1.6-5.9-5.7-5.4c-1.2,0.2-2.4,0.2-3.6,0.4C198.3,184.1,198,183.6,197.7,183.2z"/>
			<path class="st0" d="M593.3,148.8c8.5,8.9,17,17.8,25.5,26.6c-0.5,0.7-1,1.4-1.5,2.1c-2.7-0.9-5.5-1.7-8.2-2.8
				c-10-4.2-17-11-18.2-22.3c-0.1-0.7,0.3-1.5,0.4-2.3C591.9,149.7,592.6,149.2,593.3,148.8z"/>
			<path class="st0" d="M275.1,245.1c-2.2,3.9-4.4,7.7-6.6,11.6c-2.3,3.9-5.3,7.5-6.9,11.7c-2,5.4-2.8,11.1-4.2,16.7
				c-0.5-0.1-1.1-0.1-1.6-0.2c0-3.9,0-7.7,0-13c-3.4,1.8-5.7,3-9.3,4.9c5.3-14.8,18.6-21.5,26.2-32.8
				C273.5,244.3,274.3,244.7,275.1,245.1z"/>
			<path class="st0" d="M328.3,89c3.7,2.9,8,6.2,12.3,9.5c0.1,0.7,0.2,1.5,0.2,2.2c-13.2-7-18.1,0.3-21.4,10.4
				c-0.3,1-0.7,2.1-1.4,2.7c-1.5,1.2-3.2,2-4.8,2.9c-0.6-1.6-2.1-3.7-1.6-4.8c2.7-5.7,5.7-11.3,9.2-16.6
				C322.3,93,325.2,91.6,328.3,89z"/>
			<path class="st0" d="M647.1,271.1c-2-0.4-3.9-1-5.9-1.2c-2-0.2-4,0-7.1,0c5.7,8,10.8,15.2,15.9,22.4c-0.6,0.4-1.2,0.9-1.8,1.3
				c-1.8-2.5-3.5-5.1-5.4-7.4c-1.7-2-3.7-3.8-5.6-5.7c-1.6,2.3-3.3,4.5-4.8,6.8c-0.7,1-1,2.3-2.1,4.8c-6.2-12.6,4.3-21.4,3.4-33.3
				c5.5,4.3,9.8,7.6,14.1,10.9C647.6,270.2,647.4,270.6,647.1,271.1z"/>
			<path class="st0" d="M167.3,159.1c5.9-7.5,12.4-14,22.9-14.1c8.5,0,17,0,25,0C199.8,149.6,183.8,154.3,167.3,159.1z"/>
			<path class="st0" d="M334.7,248.8c-3,8.5-8.4,15.1-14.8,21.3c-4.4,4.3-7.1,10.2-10.6,15.4c-1.5,2.2-3,4.4-5.1,6.1
				C306.3,271.6,321.8,261.2,334.7,248.8z"/>
			<path class="st0" d="M185.8,121.7c6.8,1.8,13.8,3.2,20.4,5.6c8,2.9,15.4,3.4,22.5-2c1-0.8,2.4-1.2,5.3-2.7
				c-3.1,5.4-5.4,9.3-7.7,13.3c-13.9-4.1-27.5-8.1-41-12.1C185.5,123.1,185.7,122.4,185.8,121.7z"/>
			<path class="st0" d="M410.4,61.4c-0.5-5.5-2.1-11.2-1.2-16.5c1.5-9.3,4.8-10.8,15-8.4c-3.4,3.6-7.7,6.7-9.8,10.8
				c-2.1,4.1-1.9,9.4-2.7,14.1C411.2,61.4,410.8,61.4,410.4,61.4z"/>
			<path class="st0" d="M714.2,139.7c-10.2-1.3-19.6-2.4-30.7-3.8C694.2,130.6,707.1,132.4,714.2,139.7z"/>
			<path class="st0" d="M263,193.5c0.6-11.1,5.6-15.4,17.7-14.2C274.5,184.2,268.7,188.9,263,193.5z"/>
			<path class="st0" d="M526.5,141.5c-1.9,7.4-3.8,14.8-5.7,22.1c-0.8-0.2-1.6-0.5-2.4-0.7C517.7,154.8,520.5,147.7,526.5,141.5z"/>
			<path class="st0" d="M702,147.3c-3.4,2.6-6.9,5.2-10.3,7.8c-0.4-0.6-0.9-1.2-1.3-1.8c3.4-2.6,6.8-5.3,10.2-7.9
				C701,146,701.5,146.7,702,147.3z"/>
		</g>
	</g>
</g>
</svg>
