<?xml version="1.0" encoding="utf-8"?>
<!-- Generator: Adobe Illustrator 22.1.0, SVG Export Plug-In . SVG Version: 6.00 Build 0)  -->
<svg version="1.1" id="Layer_1" xmlns="http://www.w3.org/2000/svg" xmlns:xlink="http://www.w3.org/1999/xlink" x="0px" y="0px"
	 viewBox="0 0 603 255" style="enable-background:new 0 0 603 255;" xml:space="preserve">
<style type="text/css">
	.st0{fill:#FFFFFF;}
</style>
<g id="HhmM4b_1_">
	<g>
		<path class="st0" d="M0.2,137.2c0-58.3,0-116.5,0-174.8c201,0,402,0,603,0c0,41.4,0,82.8,0,124.2c-0.9,0.5-1.8,0.9-2.6,1.4
			c-13.5,7.8-17.6,7.3-27.9-4.3c-12.6-14.3-25.1-28.8-37.5-43.2c-10.8-12.6-10.7-12.7-26.3-7.1c-1.9,0.7-3.8,1.4-5.4,2.6
			c-10.7,7.4-21.4,8.5-32.1,0.1c-0.6-0.5-1.4-0.7-2.1-1.1c-8.7-5.6-16.9-6.3-24.6,2.1c-1.9,2-4.3,3.6-6.7,5.1
			c-14.1,9.5-26.7,21.4-43.8,26c-4.5,1.2-8.1,0.8-12-1.4c-10.5-6-17.9-14.7-23.8-25c-5.3-9.1-8-10.9-17.4-8.2
			c-6.2,1.8-10.5,0-14.9-3.3c-2.4-1.8-4.4-4.1-6.8-6c-6.8-5.4-13.7-10.7-21.2-16.6c-2.8,5.4-5,9.2-6.7,13.2
			c-7,16.9-16.5,32-29.4,45.1c-8.2,8.4-8.1,8.5-17.8,1.7c-5.3-3.7-8-3.2-12.4,1.6c-6.2,6.8-12.1,14.1-19,20c-3,2.6-8.8,4.2-12.6,3.2
			c-5.2-1.3-10.3-4.8-14.2-8.6c-11.7-11.5-22.6-23.8-34.4-35.2c-3.1-3-9-6.1-12.5-5.1c-6.1,1.7-11.2,6.7-16.9,10
			c-6.2,3.6-8.5,10.6-14.4,15c-9.2,6.8-16.7,16.1-25,24.3c-9.1,9-19.6,11.9-32,7.7c-2.9-1-7.1-2.2-9.1-0.8
			c-7,4.6-13.6,9.9-19.8,15.6C14.6,122.1,7.5,129.8,0.2,137.2z"/>
		<path d="M0.2,137.2c7.3-7.4,14.4-15.1,22.1-22.1c6.2-5.7,12.8-11,19.8-15.6c2-1.3,6.2-0.1,9.1,0.8c12.4,4.2,22.9,1.4,32-7.7
			c8.2-8.2,15.7-17.4,25-24.3c5.9-4.4,8.2-11.4,14.4-15c5.7-3.3,10.8-8.3,16.9-10c3.5-1,9.4,2.1,12.5,5.1
			c11.8,11.4,22.6,23.8,34.4,35.2c3.9,3.8,9,7.3,14.2,8.6c3.7,1,9.5-0.6,12.6-3.2c7-6,12.8-13.2,19-20c4.4-4.8,7-5.3,12.4-1.6
			c9.8,6.8,9.6,6.6,17.8-1.7c12.8-13.1,22.4-28.2,29.4-45.1c1.7-4,3.9-7.8,6.7-13.2c7.5,5.9,14.4,11.2,21.2,16.6
			c2.3,1.9,4.4,4.2,6.8,6c4.4,3.3,8.7,5.1,14.9,3.3c9.5-2.7,12.2-0.9,17.4,8.2c5.9,10.3,13.3,19,23.8,25c3.9,2.2,7.5,2.6,12,1.4
			c17.1-4.6,29.7-16.5,43.8-26c2.3-1.6,4.8-3.1,6.7-5.1c7.6-8.4,15.8-7.7,24.6-2.1c0.7,0.4,1.5,0.7,2.1,1.1
			c10.7,8.5,21.4,7.3,32.1-0.1c1.6-1.1,3.5-1.9,5.4-2.6c15.6-5.6,15.5-5.5,26.3,7.1c12.4,14.5,24.8,29,37.5,43.2
			c10.3,11.7,14.4,12.2,27.9,4.3c0.9-0.5,1.8-1,2.6-1.4c0,1.6,0,3.2,0,4.8c-5.9,2.3-12,4.1-11.2,12.6c0.2,2.3-1.8,4.8-2.7,7.2
			c-0.8,2.1-1.5,4.2-2.6,7.3c7.5-2.2,9.9-6.9,11.4-12.9c0.8-3.3,3.3-6.3,5.1-9.4c0,1.2,0,2.4,0,3.6c-1.1,2.1-2.3,4.2-3.4,6.4
			c-1.8,3.5-2.8,7.7-5.3,10.5c-1.9,2.1-5.7,2.6-8.7,3.8c0.4-2.8,0.5-5.6,1.1-8.3c0.4-1.9,1.7-3.6,2.3-5.5c0.3-1-0.3-2.2-0.4-3.3
			c-0.7-0.3-1.3-0.6-2-1c-1.3,14.9-16.5,16.8-24.4,27.6c9.7-1,17.9-1.7,25,3.8c4.7,3.6,9.8,6,15.8,5.8c0,2,0,4,0,6
			c-4.1-1-8.2-1.9-12.3-2.9c-0.3,0.5-0.6,1.1-0.9,1.6c4.4,5.3,8.8,10.5,13.2,15.8c0,0.8,0,1.6,0,2.4c-5.6-6.1-11.2-12.2-16.8-18.2
			c-0.4,0.3-0.7,0.6-1.1,0.8c0.4,2.7,0.7,5.5,1.1,8.2c-0.3,0-0.5,0.1-0.8,0.1c-1-2.9-2.1-5.8-3.4-9.5c-5.1,6.2-9,12.8-17.1,13.2
			c-0.6-0.6-1.2-1.1-1.8-1.7c3.9-4.9,7.9-9.8,12.7-15.9c-8.2-0.8-16-2.1-23.9-2c-7.9,0.1-8.3,1.3-6.2,9.1c0.1,0.3-0.3,0.7-0.9,2.4
			c-5.1-0.6-10.5-1.2-15.9-1.9c-6.4-0.8-7.7,0.4-6.9,6.7c0.2,1.4,0.8,2.8,0.7,4.1c-0.1,3-0.4,6.1-0.7,9.1c-3.1-1.8-6.4-3.3-9.3-5.4
			c-1.3-1-1.7-3.2-2.7-4.6c-2.8-4.1-5.3-8.4-8.6-12.1c-4.9-5.5-10.4-10.6-15.6-15.9c-5.7-5.8-12.3-8.9-20.6-7.6
			c-5.9,0.9-11.8,1.8-19.4,3c12.5,8.4,23.2,16.7,37.5,17.5c1.5,0.1,3.4,0.5,4.2,1.5c6.4,7.6,12.8,15.3,18.8,23.2
			c3.8,5.1,7.1,10.6,11.2,16.8c-6.8-3.2-12.8-5.9-18.7-8.7c-9.2-4.4-14.6-11.4-14.6-22c0-1.1-0.6-2.1-1.1-3.5
			c-5.3,3.4-7.8,7.9-7.8,13.8c0,2.6,0.6,5.6-0.4,7.7c-1.9,4,0.1,5.7,2.9,7c7.4,3.6,15,6.8,22.3,10.5c10.8,5.4,21.5,6.6,33,1.8
			c4.8-2,10.5-2.2,15.8-1.9c2.8,0.1,5.5,3.1,8.3,4.7c-2.5,1.6-5,3.2-7.5,4.8c-0.2,0.1-0.2,0.4-0.3,0.8c1.1,0,2.1,0.2,3.1,0
			c16.6-3.5,33.1-6.7,49.8-0.7c0.2,0.1,0.4-0.1,0.6-0.2c0,1.2,0,2.4,0,3.6c-11.9-4.6-23.9-6.2-36.5-2.9c-5.6,1.5-11.4,2.2-17.2,2.7
			c-2.1,0.2-4.4-1.2-6.5-1.9c1.8-1.2,3.5-2.6,5.5-3.5c1.9-0.9,4-1.3,7.3-2.2c-7.9-4.3-14.6-4.3-21.4-1.4c-7.3,3.1-14.7,4.9-22.8,2.5
			c-14.2-4.3-27.7-10.1-40.7-17.9c1.9,3.5,4.1,6.9,7,9.5c4.2,3.7,9.1,6.6,13.5,10.1c18.1,14.2,38.8,14.2,59.6,9.3
			c11.2-2.7,21.9-4.3,33.2-2.5c6.3,1,12.7,1.3,19.1,1.9c0,0.8,0,1.6,0,2.4c-6-0.6-11.9-1.5-17.9-1.6c-8.9-0.2-18.4-1.8-26.7,0.6
			c-11.9,3.3-23.6,3.5-35.6,3.5c-14.9,0-26.5-6.5-37.5-15.4c-3.7-3-7.8-5.6-13.1-9.3c2.8,8.2,7.5,12.8,13.5,15.1
			c11,4.1,18.6,12.4,26.8,19.9c2,1.8,3.6,4.4,4.4,7c2,6.5,3,13.2,5.1,19.6c0.6,2,3,4.3,5,4.9c11,3,21.9,3.9,32.9-1.3
			c11.6-5.4,23.2-1.5,34.6,1.5c0.6,0.2,1,1,2.4,2.6c-6.2,0.4-11.3,0.7-16.4,1c0,0.4-0.1,0.8-0.1,1.2c7.6,2.9,15.1,5.7,22.7,8.6
			c0,0.8,0,1.6,0,2.4c-9.6-3.9-19.1-7.7-28.7-11.6c0.2-0.8,0.4-1.6,0.5-2.4c4.9,0,9.7,0,14.6,0c0-0.8,0-1.5,0-2.3
			c-7.7-0.4-15.7-2.5-22.9-0.9c-10.5,2.2-20.2,8-31.7,6c4.2,2,8.4,3.9,12.6,4c18,0,34.8,4.6,51,11.8c1.4,0.6,3.1,0.9,4.6,1.4
			c0,0.8,0,1.6,0,2.4c-9.2-3.6-18.2-7.5-27.5-10.6c-4.7-1.5-9.8-1.6-14.8-2.2c-7.7-1-15.5-1.7-23.1-2.9c-2.8-0.4-5.4-1.7-8.1-2.5
			c-0.3,0.5-0.5,0.9-0.8,1.4c4.9,3.7,9.6,7.6,14.6,11.1c4.9,3.4,11.2,5.6,14.8,10c5.1,6.2,8.3,13.9,12.3,20.9c-0.8,0-1.6,0-2.4,0
			c-3.1-5.9-6.1-11.8-9.4-17.7c-0.6-1.1-2.5-2.4-3.3-2.2c-7.5,2.6-11.2-3.2-16.1-6.6c-3.6-2.5-7.6-4.2-12.4-6.8
			c5.7,12.1,10.8,22.7,15.8,33.3c-1.6,0-3.2,0-4.8,0c-4.5-7-9-14.1-14-21.8c-1.4,4.7-2.6,8.7-4.2,13.8c-5.3-5.6-5.4-10.9-4.4-16.5
			c1.2-6.7,2.9-13.4,3.4-20.1c0.2-2.8-1.7-6.8-4-8.4c-6.5-4.5-10.4-10.1-11.7-18c-1.4-8.8-8-13.3-17.5-12.8
			c1.5,9.9,2.8,19.8,4.7,29.6c1.8,9.7,4.2,19.3,6.3,29.2c-8-3.1-19.6-23.4-20.3-34.4c4.5,8.7,9.2,18,14,27.3
			c0.5-0.3,0.9-0.5,1.4-0.8c-2.9-16.4-5.5-32.8-8.7-49.1c-1-5.3,0.8-6,5.3-5.1c10.6,2.1,16.1,7.1,17.9,18.2
			c1.2,7.5,5.7,11.3,12.8,14.7c-1.7-5.6-4.1-10.3-4.3-15.1c-0.3-6.9-3.8-11.4-8.7-15c-11.2-8.2-22.6-16.1-34.8-24.7
			c0,11.8,0,23,0,35c-5.6-18,1.2-36.1-4.6-54c-6.4,5.1-10.9,10.6-13.4,17.5c-2.5,7-3.7,14.7-7.3,21c-4.9,8.7-11.6,16.4-18.7,26.1
			c4.8,7.1,10,16.5,16.8,24.5c11.4,13.4,23.9,25.9,35.9,38.9c-2,0-4,0-6,0c-5-4.8-9.2-11.6-15.1-13.8c-6.3-2.3-11-5-14.7-10.2
			c-1.2-1.7-2.8-3.1-4.8-5.2c-1.3,8.6-2.1,16,2,23c1.1,1.9,1.6,4.1,2.3,6.2c-0.8,0-1.6,0-2.4,0c-2.2-7.7-5.5-14.4-13.2-18.4
			c-3-1.5-5.2-4.9-7.3-7.8c-6.8-9.4-14.7-17.4-24.4-23.8c-4.1-2.7-7.9-6.3-11.2-9.9c-4.2-4.7-3.9-4.9-9.7-2c1,2.2,2.4,4.3,2.9,6.5
			c2.7,11.5,5,23.1,7.7,34.6c1.7,7,3.8,13.9,5.8,20.8c-0.8,0-1.6,0-2.4,0c-1.3-4.2-2.7-8.4-3.7-12.6c-3.1-13.2-6.1-26.5-9.1-39.8
			c-0.9-3.8-2.1-8-6.6-8.3c-7.3-0.5-14.7-0.1-23.1-0.1c0.3,4.9,0.2,8.9,1,12.7c1.3,6.6,5.6,11.4,11.1,15.1
			c12.5,8.3,20.8,20.2,28,33.1c-0.8,0-1.6,0-2.4,0c-9.1-16.7-23.1-28.9-38-40.7c-9.3,9.7-19,19.6-28.3,29.9c-2.7,3-4.1,7.2-6.1,10.8
			c-1.2,0-2.4,0-3.6,0c3.4-5.2,6.3-10.7,10.3-15.4c7.1-8.2,14.9-15.8,22.2-23.8c1.8-2,2.7-4.9,3.7-6.9c-3.8-2.2-7.5-3.1-8.9-5.4
			c-3.3-5.4-7-4.4-11-1.8c-3.9,2.4-7.5,5.3-11.4,7.9c-5.1,3.5-10.1,7.3-15.6,10.1c-5.9,3.1-12,5.1-19,2.7c-3.7-1.3-8.1-0.2-12.8-0.2
			c2.4,6.5,4.2,11.5,6.2,16.4c0.4,1,1.6,1.6,2.5,2.4c5.7,4.7,11.3,9.4,17,14.1c-1.2,0-2.4,0-3.6,0c-4.6-3.9-9.4-7.7-13.9-11.8
			c-2.1-2-3.9-4.6-5.3-7.2c-1.9-3.5-3.4-7.2-5-10.9c-0.6,0.1-1.2,0.1-1.8,0.2c-5,9.9-10,19.8-15,29.8c-2.4,0-4.8,0-7.2,0
			c2.4-5.7,5.7-11.2,7.1-17.1c2.4-10.2,6.6-19.3,13.6-27c6.7-7.4,13.4-14.9,20.1-22.4c5.6-6.4,9.3-13.7,11.1-21.4
			c-24.7,0-49,0-73.7,0c2.7,7.2,5.5,14,7.9,20.9c2.6,7.4,1.6,14.1-3.9,20.1c-2,2.2-4.4,4.8-4.8,7.5c-2.1,13.1-8,25.8-3.9,39.5
			c-0.8,0-1.6,0-2.4,0c-1.4-9.2-2.8-18.4-4.2-27.7c-5.1,1.6-6.2,5.6-6.3,10.3c-0.2,5.8-0.2,11.6-0.3,17.4c-0.8,0-1.6,0-2.4,0
			c0-4,0-8,0-12c-0.4-0.1-0.9-0.1-1.3-0.2c-2.4,4.1-4.8,8.1-7.1,12.2c-1.2,0-2.4,0-3.6,0c4.6-9.1,9.1-18.2,13.9-27.2
			c3.3-6.1,6.7-12.3,10.5-18.1c2.6-4,6.2-7.4,9.1-11.2c5.2-6.9,4.5-12.5-1.5-18.8c-3.2-3.3-6.5-6.7-8.7-10.6
			c-2.6-4.6-5.1-9.8,1.1-14.3c1.2-0.9,1.7-3.1,2.2-4.8c1.6-5.3,2.8-10.7,4.8-15.8c1.3-3.4,1.2-5.4-2.2-7.4
			c-4.8-2.9-9.5-6.1-13.9-9.5c-9.2-7.1-12-6.7-17.4,4c-1.3,2.5-2,5.3-2.6,8c-1,4.9-1.5,9.9-2.6,14.8c-0.9,3.9-2.4,7.7-3.6,11.5
			c-0.7,0-1.4,0-2.1-0.1c-2.1-5.6-4.1-11.3-6.5-17.7c-4.5,1-9.7,2.2-15.4,3.5c2.5,5.3,3.5,11,6.8,14c10.6,9.4,22.1,17.7,33.1,26.6
			c1.7,1.4,4.1,3.8,3.8,5.3c-3.1,14.3-5.6,28.9-16,40.3c-5.5,6.1-8.1,13.2-7.8,21.5c0.1,2-0.5,3.9-0.7,5.9c-0.8,0-1.6,0-2.4,0
			c-0.2-13,4.2-23.8,12.6-34c5-6.2,7-14.8,10.3-22.4c-1-0.6-1.9-1.2-2.9-1.8c-4.6,5.8-10.9,10.9-13.4,17.5
			c-2.6,6.9-5.4,13-10.5,18.4c-6.6,7.1-12.8,14.8-19.1,22.2c-1.2,0-2.4,0-3.6,0c7.3-8.2,14.7-16.3,21.7-24.8c3-3.6,6.6-7.8,7.2-12.1
			c1.1-8.1,6-12.7,11.4-17.6c3.9-3.6,7.2-8,10.2-11.4c-12.7-6.2-24.1-11.8-35.6-17.5c3.5,24.4-11.4,40.8-26.2,56.2
			c2,3.8,4.3,6.8,5.4,10.2c1.6,5.5,2.4,11.3,3.5,17c-0.8,0-1.6,0-2.4,0c-3.6-7.2-0.5-16.8-8.3-24c-1.9,9-3.4,16.5-5,24
			c-0.8,0-1.6,0-2.4,0c0.7-2.5,1.1-5.1,2-7.5c4.8-13,2.6-23.8-8.5-33.1c-3.9-3.3-7.6-9.6-7.4-14.5c0.3-9.1-4.2-12.9-11.2-16.1
			c-2.6-1.2-4.8-3.4-7.9-5.7c-0.4,5.5-0.6,10.5-1,15.4c-0.6,8.6-3.7,15.4-12.6,18.4c-2.4,0.8-4.6,2.5-6.5,4.3
			c-6,5.5-10.3,11.2-8.3,20.5c1.2,5.8-0.8,12.2-1.4,18.3c-1.2,0-2.4,0-3.6,0c3.5-7.6,3.2-15.1-0.4-23.6c-5.1,8.6-9.6,16.1-14.1,23.6
			c-0.8,0-1.6,0-2.4,0c3.8-6.6,7.7-13.1,11.2-19.8c1-2,2.1-4.7,1.5-6.7c-3.8-13.1-8.1-26-12.1-39c-1.3-4.2-3.5-4.3-6.7-2.4
			c-5.3,3.1-7.2,7.7-6.5,13.7c0.3,3.3,0.7,7.1-0.4,10c-0.8,2.1-4.4,4.4-6.5,4.2c-1.9-0.2-5-4.2-4.6-5.9c1.2-6.2,3.4-12.2,5.7-18.1
			c1.2-3,3.3-5.6,5.8-9.8c-9.2,4.4-14.4,10.1-16.7,18.3c-2.7,10-5.4,20.1-8.1,30.1c0-4,0-8,0-12.1c0.7-1.8,1.8-3.5,2.2-5.4
			c2.7-13.4,7.7-24.9,20-32.7c8.8-5.6,11.7-14.5,8.4-24.7c-2.3,1-4.3,2.3-6.6,2.9c-5.6,1.6-8.7,4.7-11,10.5
			c-3.1,7.7-8.5,14.5-12.9,21.7c0-1.2,0-2.4,0-3.6c3.8-6.7,8.5-13,11.3-20.1c2.1-5.5,5.2-8.6,10.5-10.3c7-2.2,9.2-5.7,9.2-14.2
			c-9.7,4-18.3,8.6-22.3,19.3c-1.7,4.4-5.7,8-8.6,12c0-1.2,0-2.4,0-3.6c2.3-3.2,5.5-6,6.9-9.5c3.5-8.6,9.7-13.8,17.9-17.6
			c3.8-1.8,7.8-4.8,9.9-8.3c5.2-8.8,9.1-17.9,7.5-28.9c-1.9-13.4-1.5-26.9,5.7-39.1c3-5.1,0.6-7.2-4.6-8.6c-1.1,2.3-2.4,4.5-3.3,6.9
			c-4.8,11.9-9,24.1-14.6,35.6c-5.7,11.7-12.6,22.9-25.3,28.6c0-2.8,0-5.6,0-8.4c2.1-1.1,4.2-2.3,6.4-3.3c9.9-4.8,11.7-8.3,9.8-19.7
			c-5.3,4.4-10.8,8.9-16.2,13.4c0-1.2,0-2.4,0-3.6c4.5-4.2,9-8.4,13.6-12.4c1-0.9,3-2,3.9-1.6c1.1,0.5,1.9,2.4,2.1,3.8
			c0.3,2.4-0.1,4.9-0.2,7.3c0.6,0.1,1.1,0.3,1.7,0.4c5.5-13.6,10.9-27.2,16.9-41.9C24.6,120.3,12.4,131.2,0.2,142
			C0.2,140.4,0.2,138.8,0.2,137.2z M428.2,259.8c-1.4-8.1-4.4-16.3-3.8-24.2c0.6-7.8,5-15.3,7.7-22.9c-0.3-0.4-0.6-0.8-0.9-1.2
			c-4.1,2.2-8.3,4.4-12.4,6.5c-2.5,1.2-4.9,2.5-7.5,3.4c-6,2.2-12.4,3.4-18,6.3c-9.1,4.7-9.4,9.1-2.1,16c1.6,1.5,3.3,3.1,5.1,4.2
			c11.5,7.1,20.7,16.4,28.4,27.4c1.3,1.9,3.4,3.4,5.6,5.5c-0.8-7.9-1.5-14.6-2.2-21.3c2,7.8,3.9,15.7,5.9,23.5
			c0.8-0.1,1.5-0.3,2.3-0.4c0.4-4.7,0.7-9.4,1.1-14.1c0.7-0.3,1.4-0.5,2.1-0.8c3.3,3.8,6.1,8.3,10,11.3c3.7,2.9,8.5,4.4,12.8,6.5
			c0.1-0.5,0.3-0.9,0.4-1.4c-11.6-12.7-23.3-25.4-34.5-37.7C428.2,250.3,428.2,255.1,428.2,259.8z M84.3,208c3,1.6,5.9,3.4,9,4.8
			c16.3,7.8,25.7,20.5,28,38.6c0.9,6.8,3,13.5,4.5,20.2c1.3-0.2,1.8-0.2,2.1-0.4c13.6-9.6,20.9-23.5,26-38.9
			c0.4-1.3-0.2-3.1-0.9-4.4c-4.8-9.7-7.9-19.5-5.8-30.7c1.5-8.1,0.5-8.4-7.4-10.7c-6.3-1.9-12.8-3.6-18.4-6.9c-3.8-2.2-7-4-11.5-3.7
			c-6.8,0.4-12.9-1-16.1-8c-1.1-2.4-2.4-4.6-3.6-7c-2.8-6-7.7-9.3-14.2-9.6c-4.2-0.2-8.4,1-12.6,0.8c-10.1-0.5-13.8,6.3-17.2,14
			c-3.3,7.4,2.7,10.4,6.4,13.9c10.3,9.7,21.2,18.9,31.8,28.3c-4-2.5-8.3-4.6-12-7.6c-6.8-5.5-13.1-11.6-19.6-17.4
			c2.1,6.8,4.7,13.2,7.7,19.5c3.7,7.7,7.6,15.4,11.8,22.9c1.3,2.3,3.7,4.3,6.1,5.5c3.3,1.7,6,0.8,5.8-3.7c-0.1-3.1-0.5-6.1-0.8-9.6
			c1.5,0.4,2.6,0.3,3.3,0.8c6.2,4.6,12.2,9.4,18.4,14.1c3.1,2.3,4.8,4.8,4,9.1c-1.2,7,3.9,15.6,10.9,19.1c-1-5.2-2-9.8-2.8-14.5
			c-2.1-13.2-9.3-22.7-20.5-29.6C92.5,214.3,88.5,211,84.3,208z M441.1,117.4c0.6,0.5,1.3,1.1,1.9,1.6c3.2-1.1,6.9-1.6,9.4-3.5
			c9.5-7.1,18.8-5,28.3-0.5c3.6,1.7,7.3,3.4,10.9,5.1c9.1,4.3,18.1,8.8,27.3,12.8c2.6,1.1,6.9,2.1,8.4,0.8c8.3-6.8,16.8-5,25.7-2.3
			c1.6,0.5,4.6,0.2,5.2-0.8c4.7-7.2,12.2-10.8,18.5-16c3.8-3,6.6-8.2,7.9-13c0.5-2-3.7-5.6-6.3-8c-6.6-6.1-13.5-12-19.3-17.1
			c3.7,7.5,8.1,16.3,12.4,25.2c-12.4-7.2-17.7-20.2-25.8-32.2c-0.2,9.5,5.6,17.1,3.3,27.5c-2.1-2.8-3-4-3.9-5.3
			c-6.7-9.5-9.3-20.3-10.8-31.6c-0.9-7.1-2.1-14.3-7.1-22c-2.3,11-8.2,16.8-16.3,20.5c-0.7-0.4-1.3-0.9-2-1.3
			c2.5-4.7,5.1-9.5,8.6-15.9c-4.6,2.3-8.4,3.1-10.7,5.4c-6.1,6-11.7,12.6-17.2,19.1c-4,4.7-7.7,9.8-11.7,14.5
			c-1.3,1.5-3.2,2.4-4.8,3.6c-0.6-2.3-0.2-3.5,0.4-4.7c3.5-7.6,7.7-15.1,10.5-23c3.2-8.9-5.5-17.7-16.4-15.6c3.7,3,6.7,5.5,9.7,7.9
			c4.4,3.4,4.1,6.6-1,8.9c-2.9,1.3-6.3,1.8-8.9,3.5c-1.8,1.2-3.9,4.2-3.6,5.9c1.4,7.3-2,12.6-5.5,18.4
			C452.1,95.8,446.8,106.7,441.1,117.4z M111.9,161.8c0.3-0.4,0.7-0.8,1-1.2c3.7,2.9,7.5,5.8,11.1,8.9c1.5,1.3,2.6,3.1,4.1,4.4
			c16.3,14.9,24.8,14,38.7,0.7c6.4-6.1,13.2-11.8,19.7-17.7c3.6-3.3,6.5-2.9,10.5,0.1c7.4,5.7,15.2,11.2,23.4,15.7
			c8.3,4.6,13.9,1.6,18.7-6.4c4.4-7.5,10-14.4,15.1-21.5c1.5-2.1,3.8-3.8,4.8-6.1c3-6.7,8.5-8.8,15.1-10.3c10.1-2.4,20-5.9,31.1-9.3
			c-4.1-3.1-6.6-5.4-9.4-7.2c-6.3-3.8-12.6-7.7-19.3-10.8c-5.6-2.6-7.9-1-9.6,4.9c-0.8,2.7-1.3,5.6-2.9,7.9c-1.4,2-4,3.2-6.1,4.8
			c-1.2-2.5-3.4-5-3.3-7.5c0.1-7.8,3.7-14.2,9.2-19.6c1-1,1.4-3.8,0.7-4.9c-0.8-1.3-4.4-2.5-4.7-2.1c-5.3,6.5-14.3,10.1-15.1,20.2
			c-0.3,4.1-1.7,8.3-3.4,12.1c-4,9.4-8.4,18.6-12.9,27.8c-0.8,1.6-2.3,2.8-4.3,5.2c0.5-8.8,0.9-15.9,1.4-23.6
			c-2.2,1.5-3.8,2.9-5.8,3.9c-1.6,0.8-3.5,1-5.2,1.5c0.5-1.9,0.5-4.3,1.6-5.7c4.4-5,9.5-9.3,13.6-14.4c2.8-3.4,5.2-7.5,6.4-11.6
			c1.8-6.5,3.7-12.6,8.6-17.6c1.4-1.4,2.8-5.2,2-5.9c-2.3-2.5-5.5-4.7-8.7-5.9c-0.8-0.3-4.1,3-4.6,5c-1.7,6.6-2.3,13.5-4.2,20
			c-0.9,3.1-3.5,7.4-6,8c-9,2-13.1,8.2-17.3,15.4c-8,13.8-18.8,25.1-34.6,29.6c-13,3.8-25.9,7.4-36.7,16c-0.4,0.3-1.1,0-2,0
			c-0.1-0.8-0.5-1.6-0.3-2.2c2.3-8.4,12.2-21.8,25.6-21.1c4.2,0.2,8.5,0,12.6-0.5c3.6-0.5,7-1.6,10.5-2.5c0-0.6,0-1.3,0-1.9
			c-14.8-5.4-29.6-11-44.5-16.1c-1.4-0.5-4.6,1.6-5.5,3.2c-6.6,12.5-12.9,25.2-19.3,37.8C111.8,161.4,111.9,161.6,111.9,161.8z
			 M384.8,204.2c6.1,1.4,12.4,1.6,17.2,4.3c7.4,4.1,12.8,1.9,19.2-1.8c12.9-7.5,25.8-14.4,34.7-27.2c3.7-5.4,9.1-10.2,17.2-10.3
			c-0.3-9.1,1.7-17.2,8.5-23c-12.7-6.4-24.8-12.5-36.9-18.6c-7.6,9.4-9.9,14.8-11.7,26.8c-0.8,5.5-2.4,10.5-7.5,14.4
			c-4.4-11.8,1.3-21.3,4.1-32.2c-3,2-5.3,3-7,4.6c-9.8,9.8-22.2,14.7-34.7,19.9c-5.9,2.4-11.2,6.7-16.3,10.7c-3.7,3-7,4.8-12,3.2
			c-3.6-1.2-7.7-1-12.2-1.5c0.6,3.9,1,6.6,1.5,9.3c1.6,8.2,6.1,11.9,14.4,11c4.1-0.4,8.2-1.8,12.2-3c6.3-2,12.5-4.5,18.9-6.1
			c3.4-0.9,7.5-2.1,10.4,2.7C398.4,193.2,387.7,194.1,384.8,204.2z M56.6,108.4c0,3.8,0.6,7.4-0.1,10.7c-1.2,5.2-3.5,10.2-4.9,15.4
			c-0.5,1.7-0.1,4.1,0.8,5.7c3.6,6.8,7.2,8.1,13.6,4c6.4-4.2,11.9-4.6,17.9,0.6c2.5,2.2,5.7,4,8.9,4.8c7.9,1.9,15.2-4.1,18.5-13.5
			c1.2-3.5,4.1-6.6,6.7-9.4c2.2-2.3,5.4-3.6,7.7-5.7c3.9-3.5,8.2-5.2,13.2-3.7c8.1,2.2,13-3.3,17.4-8c1.6-1.7-0.3-6.8-0.7-10.3
			c-0.1-1.2-0.4-2.4-0.5-3.6c-0.6-11.2-1.3-22.3-1.8-33.5c-0.3-6.6-4.3-12.2-10.9-13.1c-6.3-0.8-8.3,4.4-10.4,9
			c-1,2.2-1.5,4.6-2,6.9c-4.9,20.6-14.7,39-26.8,56.1c-0.7,1-1.7,1.9-2.6,2.8c-0.3-0.2-0.6-0.3-1-0.5c3.6-12.7,7.1-25.5,10.7-38.2
			C92.6,100.1,80,120,59.1,131.7c-1.9-6.5-0.6-10.8,4.2-14.1c2.3-1.6,4.5-3.4,6.4-5.5c0.9-1,1.2-2.8,1.1-4.2c0-0.4-2.3-1.1-3.5-1
			C63.6,107.3,60.1,107.9,56.6,108.4z M397.6,85.3c-17-13.1-34.7-26.3-44.9-47.2c-9.6,10.9-9.4,11-11.4,21.9
			c-0.9,4.9-2.5,9.7-4,14.5c-0.3,1-1.4,1.8-2.6,3.2c-0.4-1.5-0.7-2.1-0.7-2.6c0.1-10,0.2-20.1,0.2-30.1c0-0.7-0.2-1.7-0.7-2.2
			c-8.2-9.4-18-16.6-27.3-23.2c-1.9,5.7-4.1,10.5-5.1,15.7c-1.1,5.7-1.2,11.7-1.6,17.5c-0.4,5.3,0,10.8-1.2,16
			c-1.4,6.2-3.6,12.3-6.3,18.1c-5.8,13-1.2,18.6,11.4,25.9c6.9,4,10,2.6,14.1-4.3c5.1-8.4,9.7-17,20.4-20.1
			c9.4-2.7,15.1-8.8,14.4-19.3c7.2-1.5,13.5,1.3,17.3,6.7c2.9,4,5.8,8.4,9.8,11.1c4.3,2.9,9.8,4.3,14.9,5.8c1.4,0.4,4.1-0.3,4.8-1.4
			c3.6-5.6,6.8-11.5,10.5-18C400.1,73,404.6,83.8,397.6,85.3z M352.6,170.7c2.7,0.7,6.2,2,9.7,2.2c2.1,0.1,5.2-0.8,6.2-2.3
			c10.3-15.6,27.1-23.6,40.9-35c3.2-2.6,7.4-4,11.1-5.9c4.5-2.3,9-4.3,13.4-6.8c1.4-0.8,3.1-2.3,3.5-3.8c2.7-11.9,5.9-23.8,7.5-35.8
			c1.6-12.4,5.1-23.8,11.9-34.3c1.8-2.8,2-6.7,2.2-10.2c0-0.8-3.8-2.9-4.4-2.4c-9.4,6.8-18.8,13.8-24.3,24.6
			c-0.7,1.3-1.2,3.6-0.6,4.5c4.4,5.6,0.4,8.6-3.2,12c-20.1,19-40.1,38-59.9,57.3c-2.6,2.6-4.7,6.1-5.9,9.6
			C357.7,153,355.3,161.9,352.6,170.7z M366,212.8c-0.3-0.9-0.5-1.8-0.8-2.6c-3.6-1.1-7.2-2.1-10.8-3.3c-9.6-3.3-17-8.7-19.6-19.3
			c-1.5-6-3.5-11.9-5.5-17.8c-3.1-9.3-8.7-10.5-15-3.1c-3.6,4.3-6.4,9.4-10.4,13.3c-4,4-8.7,7.7-13.7,10.1c-5,2.4-10.7,3.3-16.3,4.2
			c-11.9,1.8-23.9,2.9-35.8,4.8c-5.8,0.9-11.4,2.9-17.2,4.3c10.7,0.2,21-0.3,31.3-0.3c5.8,0,11.7,2,17.2,1
			c8.8-1.6,16.1-2.9,24.7,3.1c6.3,4.4,10.5,9.1,14.1,15.3c1.2,2,2.7,4.1,4.6,5.2c7,4.1,14.1,8.8,22,1.5c0.5-0.5,1.5-0.6,2.2-0.9
			C346.7,223.1,356.4,217.9,366,212.8z M367.1,78.5c-4.3,1.4-4.4,4.1-3.3,7.6c2.7,8.6,2.3,9.3-5.8,12.7c-2.4,1-4.8,2.2-7.2,3
			c-15,4.8-26.5,14.8-37.5,25.4c-1.5,1.4-2.6,3.2-4.2,5.1c12.2,4.1,23,1.7,33.8-2c3-1,5.3-1.3,8.8,0.1c5.6,2.2,12.6,2.8,17.3-2.7
			c8.2-9.5,15.8-19.4,23.6-29.2c0-0.7,0-1.3-0.1-2C379.7,96.7,373.8,87.7,367.1,78.5z M84.2,234.4c-7.9,0-12.2-4.9-15.4-10.9
			c-4.1-7.8-8-15.7-11.6-23.7c-3.9-8.5-7.3-17.3-15.3-24.1c-0.7,3-1.2,5.5-1.7,8c-2.6,14,0.5,27.3,6.3,39.8
			c5.6,12.2,9,24.8,10.1,38.1c0.1,1.4,0.4,2.9,0.7,4.3c6-4.4,12-8.1,17.2-12.7C79.7,248.4,84.2,242.8,84.2,234.4z M256.4,180.5
			c2.6,0.4,6.5,1.1,10.4,1.6c4.7,0.5,8.8-0.5,11.5-4.9c5.6-8.9,13.9-13.6,24-15.6c5.9-1.1,11.7-2.8,17.6-4.1
			c1.4-0.3,3.2-0.2,4.5,0.5c7.2,3.4,14.2,7.1,22.9,11.5c4.2-11.2,8.6-22.8,13-34.4c-10.1-3.6-12.7-3.1-19.1,4.2
			c-1.1,1.2-2.3,2.3-3.2,3.6c-2.7,3.8-6.4,5-10.6,3.7c-14.8-4.6-27.7,2.3-39.4,8.8C276.2,162,266.5,172.3,256.4,180.5z M206.4,100.9
			c-9.6-5.9-17.9-11-26-16c-0.5,0.8-1.8,4-2.5,3.9c-2.1-0.4-4.5-1.6-6-3.2c-2.9-3.3-5.2-7.1-7.7-10.6c-1.2,5.7-1.2,10.6-1.3,15.5
			c-0.1,10.3-0.5,20.5-11.3,26.2c-0.4,0.2-0.6,1-1,1.7c8.4,2.5,16.5,5.2,24.7,7.1c2.6,0.6,6.5,0.3,8.2-1.3
			C191.6,116.6,199.1,108.5,206.4,100.9z M239.4,183.9c16.5-7.3,32.6-16.5,45.3-30.8c6.2-6.9,10.6-15.3,19.2-20.3
			c4.3-2.5,6.7-8.2,10-12.5c-0.5-0.5-1-0.9-1.5-1.4c-14.3,8-29.7,14.3-39.9,28.5c-2.3,3.2-6.9,5-10.7,7c-2.4,1.3-6,1-7.8,2.8
			c-4.9,4.7-9.8,9.7-13.5,15.4C238.9,175.4,239.8,179.9,239.4,183.9z M312.8,163c-13.3,0.3-24.2,5.2-31.6,15.2
			c-4.5,6.1-10,7.5-16.8,6.1c-6.6-1.4-12.5-0.2-18.4,3.4c-4.9,3-10.5,4.8-15.9,7c-1,0.4-2.4,0.1-5,0.1c4.9-6.5,9-11.9,13-17.3
			c-11.4,5.5-19.7,13.7-24.9,26.5c19.3-8.8,39-9.4,58.4-11.4C291.1,190.4,304.3,180.1,312.8,163z M550.7,134.4
			c-7.7-3.4-13.8-4.1-19.2,0.3c-3.8,3.1-7.5,3.3-11.7,1.4c-3.6-1.7-7.3-3.3-10.9-5c-11.7-5.3-23.2-11-35-15.9
			c-9.2-3.8-17.1-1.5-24.8,6.3c4.3-0.8,8-1.5,11.7-2.1c7.8-1.1,16-2.3,22.2,4c10.8,10.9,23.9,19.7,30.3,34.5
			c1.2,2.8,4.4,4.6,6.6,6.9c0.6-0.5,1.2-0.9,1.9-1.4c-0.6-3.3-1.3-6.6-1.7-9.9c-1.1-8.5,0.5-10.1,9-9.1c4.5,0.5,8.9,1.2,14.4,1.9
			C540.4,139.2,542.6,135.6,550.7,134.4z M329.7,163.8c2.7,8.5,5.4,16,7.5,23.7c2,7.5,6.6,13.1,13.4,15.2
			c14.9,4.7,30.1,8.2,45.2,11.8c2.7,0.7,5.9-0.5,8.9-0.9c0-0.9,0.1-1.7,0.1-2.6c-8.1-1.4-16.2-2.8-24.2-4.1
			c1.8-10.4,10.2-14.2,17.5-19.2c-1.4-0.4-2.6-0.5-3.6-0.2c-6.8,2.3-13.6,4.6-20.4,7.1c-14.4,5.3-26.5,2.9-28.2-15.1
			C345,170.3,338.5,166.1,329.7,163.8z M111.4,80c1.6,11.4-5.9,21.1-6,33.2c13.7-18.3,20.7-38.1,25.3-59c-0.5-0.4-0.9-0.8-1.4-1.2
			c-5.6,6.2-11.1,12.4-16.8,18.7c-1.2,0.5-3.6,0.8-5,2.1c-11.2,10.8-22.3,21.8-33.9,33.2c1.8,4.2-2.3,6.8-5.8,9.8
			c-3.1,2.7-7.4,4.7-6.5,11.1C81.2,114.6,94.1,95.4,111.4,80z M260.3,74.9c2.9,3.2,5.5,6.1,9,9.9c1.4-3.6,2.9-6.2,3.3-9
			c0.9-5.9,4-10,9.4-12.3c5.5-2.3,9.1,0.9,12.6,4.4c0.2,0.2,0.7,0,2.3,0c0.3-4.4,1.8-9.2,0.7-13.3c-2.3-9-0.9-17,3.4-24.9
			c2.6-4.8,1.9-9.5-1-14.8C291,38.1,277,56.9,260.3,74.9z M462.9,37.1c-1.7,5-3.3,9.9-5.1,14.8c-3.1,8.6-6.7,17-9.5,25.8
			c-2.2,6.9-3.3,14-5,21.1c-0.5,2.1-1.1,4.3-1.6,6.4c-0.5,2.1-0.8,4.2-1.4,7.2c7.1-12.2,13.8-23.3,20-34.7c1.3-2.4,1.9-6.1,1.2-8.7
			c-1.8-6.6,1.7-9.2,6.8-11.3c3.2-1.3,6.4-2.7,9.8-4.1C472.3,47.2,467.2,41.7,462.9,37.1z M323.1,236c-10.2-3.7-17.5-9.8-20.7-19.4
			c-5.8,15.2-11.2,29.5-16.6,43.8c0.6,0.3,1.2,0.6,1.9,0.9C300.7,255.3,312.5,247.6,323.1,236z M34.9,195.3c0,5-0.1,10.9,0,16.9
			c0.2,5.4-0.8,9.7-4.7,14.1c-5,5.6-8.6,12.5-12.2,19.1c-1.5,2.7-2,6.1-2.1,9.3c0,1.7,1.7,3.5,2.7,5.3c1.4-1.5,3.5-2.7,4-4.5
			c0.7-2.4,0.2-5.1,0-7.7c-0.7-8.1,1.8-13.1,8.9-16.8c3.6-1.8,7.1-2.2,8.7,2.7c3.2,9.7,6.3,19.4,9.3,29.1c1,3.2,1.8,6.5,2.7,9.8
			c1.6-1.9,2.4-3.7,2.1-5.3c-1.8-11-3-22.2-5.9-33C44.6,220.9,39.3,208,34.9,195.3z M365.9,238.3c0-0.3,0-0.5,0-0.8
			c-7.1-3-14.1-6-21.2-8.8c-1.1-0.4-2.9-0.1-4.1,0.5c-6.6,3.7-13.7,6.8-19.4,11.6c-10.7,9.2-21.6,17.9-34.8,23.4
			c-1.2,0.5-2.1,1.5-3.5,2.6c1.1,0.4,1.7,0.8,2.2,0.8c1,0,2.1,0.1,3-0.4c8.1-4.1,16.3-8.2,24.3-12.6c5.4-3,10.3-6.9,15.6-10.1
			c3.5-2.1,6.6-2,9,2.3c1.1,1.9,3.7,3,6.7,5.3c0-3.4,0.1-4.8,0-6.2c-0.9-7.5-0.1-8.2,7.5-7.7C356,238.5,360.9,238.3,365.9,238.3z
			 M347,226.8c8.6,6.2,17.2,7.7,25.3,8.7c12,1.5,17-9.9,25.8-15.9C379.2,210.9,364.3,220.9,347,226.8z M319.1,117
			c0.2,0.2,0.5,0.5,0.7,0.7c1.8-1.4,3.5-3,5.5-4.1c8.1-4.7,16.2-9.4,24.3-14c3.1-1.7,6.5-3,9.8-4.5c3.1-1.4,4.4-3.6,2.8-6.7
			c-2.4-4.8-2.4-9.2,2.3-13.6c-3-1.1-5.3-1.9-8.6-3.1c-0.5,8.7-3.8,14.9-11.9,17.5c-3,1-6.1,2.2-8.8,3.8c-2.5,1.5-5.4,3.2-6.8,5.6
			C324.9,104.4,322.2,110.8,319.1,117z M389.5,109.7c12.2-11.6,23.6-22.5,35.1-33.4c2.9-2.8,6-5,3.2-10c-1-1.8,0.7-5.3,1.8-7.8
			c1.1-2.6,3-4.9,5.2-8.3c-8.6,5.4-16.2,10-23.7,14.8c-4.1,2.6-8.1,5.2-12,7.9c-3.4,2.4-2.6,4.4,1.1,6.2c0.2-1.4,0-3,0.7-3.6
			c2.3-1.9,4.8-3.7,7.4-5.1c0.9-0.5,2.5,0.4,3.8,0.6c-0.8,2.3-1.1,4.9-2.4,7C403.2,88.4,396.5,98.6,389.5,109.7z M286,99.6
			c2-6.3,4.5-14,6.8-21.8c1.5-4.8,1.1-9.2-4.1-11.8c-5-2.4-9,0.2-11.3,4c-2.8,4.7-4.2,10.2-6.1,15.4c-0.2,0.6,0.2,1.7,0.7,2.1
			C277,92.1,282.2,96.4,286,99.6z M210.5,207.5c-0.6,0.8-1.1,1.6-1.7,2.4c3,4.5,5.9,9,8.9,13.5c0.4-0.3,0.9-0.6,1.3-0.9
			c-1.2-3.9-2.5-7.9-3.9-12.4c13.8,0.8,26.2,2,38.6,2c12.2,0,24.4-1.1,37.9-1.7c-4.6-5.9-8.7-7.4-14-5.8c-0.4,0.1-0.8,0.3-1.2,0.3
			c-7.5,0.2-15,0.4-22.5,0.7C239.5,206.3,225,206.9,210.5,207.5z M404.8,218.7c0,0.2-0.1,0.4,0,0.6c0.1,0.1,0.4,0.3,0.5,0.3
			c3.8-0.9,7.8-1.5,11.4-2.9c4.2-1.7,8.1-4.3,12.2-6.1c1.6-0.7,3.7-0.3,5.6-0.4c-0.1,1.9,0.2,3.9-0.5,5.6c-1.8,4.7-4,9.3-6.1,13.9
			c15.5-8.5,18.3-23.7,22.3-37.6C435.1,200.9,419.9,209.8,404.8,218.7z M64.2,149.3c2.1-0.1,3.1-0.1,4.1-0.2
			c13.9-1.5,20,1.6,25.6,14.6c3.3,7.8,8.8,9.8,16.6,9.9c3.8,0,7.7,2.2,11.4,3.8c3.9,1.7,7.7,3.9,11.5,5.8
			c-3.9-5.6-7.9-10.3-12.5-14.4c-2.1-1.8-6-3.4-8.2-2.7c-4.8,1.7-7.3-0.2-10.5-3.2c-6.1-5.7-12.4-11.4-19.2-16.2
			C75,141.2,73.2,141.8,64.2,149.3z M226.8,136.7c0.5,0.1,1,0.2,1.6,0.3c4.4-9.2,10.2-17.9,12.6-27.6c2.3-9,4.9-16.7,12.4-22.3
			c1.6-1.2,2.6-3.3,4.2-5.5c-2.3-1.7-4.1-3.1-5.8-4.3c-1.7,2.3-3.3,4.2-4.4,6.2c-3,5.5-7.2,10.9-8.3,16.8c-1.2,6.1-4.1,10-8.4,13.8
			c-4.4,3.9-8.5,8.2-12.8,12.4c0.3,0.3,0.7,0.7,1,1c3.2-2.1,6.5-4.3,11.1-7.3C228.7,126.8,227.7,131.7,226.8,136.7z M522.5,39.5
			c-2.4,3.3-4,5.3-5.4,7.4c-1.5,2.2-2.8,4.4-5,7.9c8.8-4.3,12.8-9.9,12.9-16.9c0.1-5.4-1.2-6.3-5.9-4.2c-3.8,1.7-7.6,3.6-11.5,5.3
			c-11.1,4.7-21.6,9.9-23.5,23.8c-0.4,2.6-2.5,5-3.7,7.5c-0.8,1.6-1.4,3.2-2,4.8c6.9-7.2,12.2-15.2,18.8-22.1
			C503.5,46.3,510,38.7,522.5,39.5z M189.8,133.3c0.8,0.5,1.6,0.9,2.4,1.4c4.4-6.3,9.3-12.4,13.1-19c3.8-6.7,7.9-12.2,16.2-13.9
			c2.4-0.5,5.3-3.8,6.1-6.4c1.6-5.2,1.8-10.9,2.9-18.1C224.5,82.7,220,87,214.6,92c5.1-0.9,6.1,0.7,4.1,3.9
			c-0.8,1.3-2.1,2.4-3.2,3.5c-4.7,4.6-9.6,9.1-14.2,13.8C195.7,119,191.9,125.7,189.8,133.3z M541.6,65.3c0.9-0.4,1.9-0.9,2.8-1.3
			c6.1,9.8,12.2,19.5,18.3,29.3c0.4-0.3,0.8-0.6,1.3-0.9c-6.8-16.7-14.4-32.8-29.4-43.9c0,15.5,6,35,12.8,40.6
			C545.3,80.9,543.5,73.1,541.6,65.3z M284.7,129.8c-10,0.9-20,1.4-25,12.7c-1.1,2.6-4.1,4.4-6.1,6.6c-1.9,2.1-3.8,4.3-6.4,7.4
			c4.6-1.3,7.9-2,11-3.3c3.8-1.6,8.1-2.9,11-5.6C274.8,142.2,279.5,135.9,284.7,129.8z M107.3,164.9c6.9-14.1,13.2-27.1,20.3-41.5
			c-7.5,4.2-12,8.2-14.4,15.1c-2.5,7.1-6.7,13.8-16.6,15.1C100.3,157.5,103.3,160.8,107.3,164.9z M436.3,126.7
			c-20.4,5.6-36,18.8-52.7,31.8C406.1,154.5,420.1,138.8,436.3,126.7z M152.6,220.4c1-2.5,2-4.8,2.9-7.1c2.2,1.4,4.4,2.9,6.7,4.3
			c6.3,3.7,12.6,7.3,18.9,10.9c0.4-0.6,0.8-1.2,1.2-1.8c-10.8-9.9-21.5-19.9-32.1-29.6C148.3,204.7,147.9,212.8,152.6,220.4z
			 M299,217.6c-0.7-0.3-1.5-0.6-2.2-0.9c-2.6,11.7-9.9,20.3-16.9,29.3c-4,5.1-6.5,11.3-9.7,17.2c9.3,1.6,12.3-0.4,14.9-8
			c2.4-7.2,5.7-14.1,8.3-21.2C295.4,228.6,297.1,223.1,299,217.6z M56.1,148.1c-1.7-1.9-4-3.3-4.8-5.4c-1.2-3.1-2.5-6.8-2-9.9
			c0.9-5.3,3.4-10.2,4.7-15.4c0.6-2.3,0.1-4.8,0.1-7.2c-13.2,15.2-10,32.5-9.2,50.6C49.1,156.2,52.5,152.3,56.1,148.1z M158.7,99.1
			c0.5,0,0.9,0,1.4,0.1c0.2-0.9,0.6-1.8,0.6-2.8c-0.2-6-0.7-12-0.7-18c0-1.9,1.4-3.9,2.1-5.8c1.8,1,3.9,1.7,5.3,3.2
			c2,2.2,3.4,4.9,5.3,7.3c1.1,1.4,2.5,2.4,4.7,4.4c-1.5-10.1-12.4-24.8-21.9-29.4C156.5,72.3,157.6,85.7,158.7,99.1z M295.2,148.4
			c2.6-0.9,5.2-1.7,7.7-2.6c6.8-2.5,13.6-4.4,21.1-2.5c8.6,2.3,12.1,0.3,15.9-7.9c-7.5,0.5-15.6,2.9-22.8,1.2
			C305.8,134.1,301,141.4,295.2,148.4z M161.2,182.5c2.9-0.1,4-0.1,5.2-0.3c4.1-0.7,5.2,0.3,4.3,4.8c-0.6,3,1.5,6.5,2.4,9.8
			c0.6,0,1.2-0.1,1.9-0.1c2.3-10.6,4.7-21.3,7.1-32.5c-3.8,3.2-7.4,6-10.9,9C168.3,175.8,165.4,178.6,161.2,182.5z M488.8,148.1
			c-0.6,0.4-1.2,0.8-1.7,1.2c-1.7,15.5,8.6,22.2,22.2,24.5C502.4,165.2,495.6,156.7,488.8,148.1z M209.8,280.9
			c0.6,0.1,1.1,0.1,1.7,0.2c0.7-3,1.7-6,1.9-9.1c0.6-7.6,2.5-14.4,8.1-20.2c2.5-2.6,3.3-6.8,4.9-10.3c-0.6-0.3-1.3-0.7-1.9-1
			c-6.3,11-17.8,18.5-22.1,33.1c3-2.3,4.7-3.6,7.5-5.7C209.8,273,209.8,277,209.8,280.9z M269.8,88.3c-4,5-7.8,8.6-10.4,13
			c-2.7,4.5-4.5,9.6-0.7,15.1c2.5-3.4,4.5-6.9,5.6-10.7c2.3-7.6,3.8-8.7,11.6-7.1c1.1,0.2,2.3,0.5,3.4,0.8c0.4-0.4,0.7-0.8,1.1-1.3
			C277,95.1,273.6,91.9,269.8,88.3z M136.9,157.9c13.9-4.9,27.1-9.5,40.3-14.1c-6.7-0.5-13.3,0-19.8,0.1
			C147.4,143.9,142.2,150.6,136.9,157.9z M533,289.5c0.6-0.4,1.3-0.7,1.9-1.1c-4.1-7-8.3-14.1-13.1-22.2c4.2,0.3,7.5,0.6,11.9,0.9
			c-4.1-4.1-7.4-7.4-12-12.1c-0.2,11.5-6.7,20.7-3.1,31c1.2-1.6,1.4-3.4,2.2-4.9c0.9-1.6,2.3-3,3.4-4.4c1.4,1.3,3.1,2.3,4.1,3.9
			C530.1,283.4,531.5,286.5,533,289.5z M249.9,288c9.2-14.5,17.8-28.1,26.5-41.7c-0.5-0.3-1.1-0.6-1.6-1
			C264.1,257.9,251,269.1,249.9,288z M191.5,123.4c-0.3-0.4-0.6-0.9-0.9-1.3c-6.6,7.4-14,8.1-22.3,4.1c-2.7-1.3-5.6-2.2-8.5-3
			c-2.4-0.7-4.9-1.1-7.4-1.7c-0.1,0.5-0.3,1-0.4,1.5c11.2,4,22.4,7.9,34,12C187.9,131.2,189.7,127.3,191.5,123.4z M336.5,61.6
			c0.8,0.1,1.6,0.1,2.4,0.2c0.6-4.5,0.3-9.4,2-13.5c1.6-3.9,5.3-6.9,8.4-10.8c-9.1-1.5-11.4-0.6-12.6,6.6
			C335.7,49.8,336.5,55.8,336.5,61.6z M587.3,138.7c-7.6-7.4-16.2-8.7-24.3-3.6C572,136.4,579.7,137.6,587.3,138.7z M215.5,190.4
			c4.4-4.7,9-9.5,13.5-14.3c0.5,0.3,0.9,0.7,1.4,1c-3.1-0.1-6.1-0.3-8.9-0.4C219.2,181.9,217.2,186.5,215.5,190.4z M425.3,161.2
			c1.1,0.3,2.2,0.6,3.3,0.8c1.5-7.2,2.9-14.4,4.4-21.5c-0.5-0.1-1.1-0.3-1.6-0.4C429.3,147.1,427.3,154.1,425.3,161.2z"/>
		<path class="st0" d="M480.2,301.2c-12-12.9-24.5-25.4-35.9-38.9c-6.8-8-12-17.4-16.8-24.5c7.1-9.7,13.8-17.5,18.7-26.1
			c3.6-6.3,4.8-14,7.3-21c2.5-7,7-12.4,13.4-17.5c5.9,17.9-1,36,4.6,54c0-12.1,0-23.2,0-35c12.2,8.6,23.6,16.5,34.8,24.7
			c4.9,3.6,8.4,8.1,8.7,15c0.2,4.8,2.6,9.5,4.3,15.1c-7.1-3.4-11.6-7.3-12.8-14.7c-1.9-11.1-7.3-16.1-17.9-18.2
			c-4.5-0.9-6.3-0.1-5.3,5.1c3.1,16.3,5.8,32.7,8.7,49.1c-0.5,0.3-0.9,0.5-1.4,0.8c-4.7-9.3-9.5-18.6-14-27.3
			c0.7,11,12.3,31.3,20.3,34.4c-2.2-9.9-4.5-19.5-6.3-29.2c-1.8-9.8-3.1-19.7-4.7-29.6c9.5-0.5,16.1,4.1,17.5,12.8
			c1.3,8,5.2,13.5,11.7,18c2.3,1.6,4.1,5.6,4,8.4c-0.4,6.8-2.2,13.4-3.4,20.1c-1,5.6-1,11,4.4,16.5c1.6-5.1,2.8-9.1,4.2-13.8
			c5,7.8,9.5,14.8,14,21.8C518.8,301.2,499.5,301.2,480.2,301.2z"/>
		<path class="st0" d="M603.2,197.5c-0.2,0.1-0.4,0.2-0.6,0.2c-16.7-5.9-33.2-2.7-49.8,0.7c-1,0.2-2,0-3.1,0
			c0.1-0.3,0.1-0.7,0.3-0.8c2.5-1.6,5-3.2,7.5-4.8c-2.7-1.7-5.4-4.6-8.3-4.7c-5.2-0.3-11,0-15.8,1.9c-11.5,4.8-22.2,3.6-33-1.8
			c-7.3-3.7-14.9-6.9-22.3-10.5c-2.8-1.4-4.9-3.1-2.9-7c1-2.1,0.4-5.1,0.4-7.7c0-5.9,2.4-10.3,7.8-13.8c0.4,1.4,1.1,2.4,1.1,3.5
			c0,10.6,5.4,17.6,14.6,22c5.9,2.8,11.8,5.5,18.7,8.7c-4.1-6.2-7.4-11.7-11.2-16.8c-6-7.9-12.4-15.6-18.8-23.2
			c-0.8-1-2.8-1.4-4.2-1.5c-14.4-0.8-25-9.1-37.5-17.5c7.6-1.2,13.5-2.1,19.4-3c8.3-1.3,14.9,1.7,20.6,7.6
			c5.2,5.3,10.7,10.3,15.6,15.9c3.3,3.7,5.8,8,8.6,12.1c1,1.5,1.4,3.7,2.7,4.6c2.9,2.1,6.2,3.6,9.3,5.4c0.2-3,0.6-6.1,0.7-9.1
			c0-1.4-0.6-2.7-0.7-4.1c-0.7-6.3,0.5-7.5,6.9-6.7c5.4,0.7,10.9,1.3,15.9,1.9c0.7-1.7,1-2.1,0.9-2.4c-2.1-7.8-1.7-9,6.2-9.1
			c7.8-0.1,15.7,1.3,23.9,2c-4.8,6-8.8,11-12.7,15.9c0.6,0.6,1.2,1.1,1.8,1.7c8-0.4,11.9-6.9,17.1-13.2c1.3,3.7,2.4,6.6,3.4,9.5
			c0.3,0,0.5-0.1,0.8-0.1c-0.4-2.7-0.7-5.5-1.1-8.2c0.4-0.3,0.7-0.6,1.1-0.8c5.6,6.1,11.2,12.2,16.8,18.2c0,0.8,0,1.6,0,2.4
			c-4.1-2.2-8.1-4.5-13.6-7.5c2.4,6.6,4.4,11.9,6.4,17.5c-1.6-0.5-2.4-0.8-3.3-1.1c-0.2,0.4-0.4,0.8-0.6,1.1c2.5,2.3,5,4.6,7.5,7
			c0.5-0.3,0.9-0.6,1.4-1c-2.2-5.6-4.4-11.1-7.2-18c4.1,1.9,6.7,3.1,9.3,4.3C603.2,177.4,603.2,187.4,603.2,197.5z"/>
		<path class="st0" d="M170.3,301.2c0.3-2,0.8-3.9,0.7-5.9c-0.3-8.3,2.3-15.5,7.8-21.5c10.4-11.4,12.9-26,16-40.3
			c0.3-1.4-2.1-3.9-3.8-5.3c-11-8.9-22.6-17.2-33.1-26.6c-3.4-3-4.4-8.7-6.8-14c5.7-1.3,10.9-2.5,15.4-3.5
			c2.4,6.5,4.4,12.1,6.5,17.7c0.7,0,1.4,0,2.1,0.1c1.2-3.8,2.7-7.6,3.6-11.5c1.1-4.9,1.6-9.9,2.6-14.8c0.6-2.7,1.3-5.5,2.6-8
			c5.5-10.7,8.2-11.2,17.4-4c4.4,3.4,9.1,6.6,13.9,9.5c3.4,2,3.5,4.1,2.2,7.4c-1.9,5.2-3.1,10.6-4.8,15.8c-0.5,1.7-1,3.9-2.2,4.8
			c-6.2,4.4-3.7,9.7-1.1,14.3c2.2,3.9,5.5,7.3,8.7,10.6c6,6.2,6.6,11.8,1.5,18.8c-2.9,3.9-6.5,7.2-9.1,11.2
			c-3.8,5.8-7.2,11.9-10.5,18.1c-4.8,9-9.3,18.1-13.9,27.2C180.7,301.2,175.5,301.2,170.3,301.2z"/>
		<path class="st0" d="M603.2,265c-7.6-2.9-15.1-5.7-22.7-8.6c0-0.4,0.1-0.8,0.1-1.2c5.1-0.3,10.2-0.6,16.4-1
			c-1.5-1.6-1.9-2.5-2.4-2.6c-11.4-3-23.1-6.9-34.6-1.5c-11,5.2-21.9,4.3-32.9,1.3c-2-0.5-4.3-2.9-5-4.9c-2-6.4-3.1-13.1-5.1-19.6
			c-0.8-2.6-2.4-5.2-4.4-7c-8.2-7.5-15.8-15.8-26.8-19.9c-6-2.2-10.7-6.8-13.5-15.1c5.2,3.7,9.3,6.3,13.1,9.3
			c11,8.9,22.7,15.4,37.5,15.4c12.1,0,23.7-0.2,35.6-3.5c8.3-2.3,17.8-0.8,26.7-0.6c6,0.2,11.9,1.1,17.9,1.6
			C603.2,226.4,603.2,245.7,603.2,265z"/>
		<path class="st0" d="M213.7,301.2c-4.1-13.7,1.8-26.4,3.9-39.5c0.4-2.7,2.8-5.3,4.8-7.5c5.4-6,6.5-12.8,3.9-20.1
			c-2.4-6.9-5.2-13.7-7.9-20.9c24.8,0,49,0,73.7,0c-1.8,7.7-5.4,15-11.1,21.4c-6.6,7.5-13.3,15-20.1,22.4c-7,7.8-11.2,16.8-13.6,27
			c-1.4,5.9-4.6,11.4-7.1,17.1C231.4,301.2,222.5,301.2,213.7,301.2z"/>
		<path class="st0" d="M58.1,301.2c0.6-6.1,2.6-12.6,1.4-18.3c-2-9.4,2.3-15.1,8.3-20.5c1.9-1.7,4.1-3.5,6.5-4.3
			c8.9-3,12-9.9,12.6-18.4c0.4-4.9,0.6-9.8,1-15.4c3.1,2.3,5.2,4.4,7.9,5.7c6.9,3.3,11.4,7,11.2,16.1c-0.2,4.8,3.5,11.2,7.4,14.5
			c11.1,9.4,13.3,20.1,8.5,33.1c-0.9,2.4-1.3,5-2,7.5C99.9,301.2,79,301.2,58.1,301.2z"/>
		<path class="st0" d="M0.2,275.9c2.7-10.1,5.3-20.1,8.1-30.1c2.2-8.2,7.5-13.8,16.7-18.3c-2.5,4.1-4.6,6.7-5.8,9.8
			c-2.3,5.9-4.5,11.9-5.7,18.1c-0.3,1.7,2.7,5.7,4.6,5.9c2,0.3,5.7-2.1,6.5-4.2c1.2-2.9,0.8-6.7,0.4-10c-0.6-6,1.3-10.6,6.5-13.7
			c3.2-1.9,5.4-1.9,6.7,2.4c3.9,13,8.3,25.9,12.1,39c0.6,1.9-0.4,4.7-1.5,6.7c-3.5,6.7-7.4,13.2-11.2,19.8c-12.5,0-24.9,0-37.4,0
			C0.2,292.8,0.2,284.3,0.2,275.9z"/>
		<path class="st0" d="M292.1,301.2c-5.7-4.7-11.3-9.4-17-14.1c-0.9-0.7-2.1-1.4-2.5-2.4c-2-4.9-3.8-9.9-6.2-16.4
			c4.7,0,9.1-1,12.8,0.2c7.1,2.4,13.2,0.4,19-2.7c5.5-2.9,10.5-6.7,15.6-10.1c3.8-2.6,7.4-5.5,11.4-7.9c4-2.5,7.7-3.6,11,1.8
			c1.4,2.3,5.2,3.2,8.9,5.4c-1,2-1.9,4.9-3.7,6.9c-7.3,8.1-15.1,15.6-22.2,23.8c-4,4.6-6.9,10.2-10.3,15.4
			C303.3,301.2,297.7,301.2,292.1,301.2z"/>
		<path class="st0" d="M138.9,301.2c-1.1-5.7-1.9-11.5-3.5-17c-1-3.4-3.3-6.5-5.4-10.2c14.8-15.4,29.6-31.8,26.2-56.2
			c11.5,5.7,23,11.3,35.6,17.5c-3,3.4-6.3,7.8-10.2,11.4c-5.3,5-10.2,9.6-11.4,17.6c-0.6,4.3-4.2,8.5-7.2,12.1
			c-7,8.5-14.4,16.6-21.7,24.8C140.5,301.2,139.7,301.2,138.9,301.2z"/>
		<path class="st0" d="M392.2,301.2c-1.9-6.9-4.1-13.8-5.8-20.8c-2.7-11.5-5.1-23.1-7.7-34.6c-0.5-2.3-1.9-4.4-2.9-6.5
			c5.8-2.8,5.5-2.6,9.7,2c3.3,3.7,7.1,7.2,11.2,9.9c9.8,6.4,17.7,14.4,24.4,23.8c2.1,2.9,4.3,6.3,7.3,7.8c7.7,4,11.1,10.6,13.2,18.4
			C425.1,301.2,408.6,301.2,392.2,301.2z"/>
		<path class="st0" d="M0.2,174.6c12.7-5.7,19.7-16.9,25.3-28.6c5.6-11.5,9.7-23.7,14.6-35.6c1-2.3,2.2-4.6,3.3-6.9
			c5.3,1.4,7.6,3.6,4.6,8.6c-7.2,12.2-7.6,25.7-5.7,39.1c1.6,11-2.3,20.1-7.5,28.9c-2.1,3.5-6.1,6.6-9.9,8.3
			c-8.2,3.8-14.4,9-17.9,17.6c-1.4,3.5-4.5,6.4-6.9,9.5C0.2,201.9,0.2,188.2,0.2,174.6z"/>
		<path class="st0" d="M312.6,301.2c2-3.6,3.4-7.8,6.1-10.8c9.3-10.3,19-20.1,28.3-29.9c14.9,11.7,29,23.9,38,40.7
			C360.8,301.2,336.7,301.2,312.6,301.2z"/>
		<path class="st0" d="M570.6,301.2c-4-7.1-7.2-14.8-12.3-20.9c-3.6-4.4-9.9-6.6-14.8-10c-5-3.5-9.8-7.4-14.6-11.1
			c0.3-0.5,0.5-0.9,0.8-1.4c2.7,0.9,5.3,2.1,8.1,2.5c7.7,1.1,15.4,1.9,23.1,2.9c4.9,0.6,10.1,0.6,14.8,2.2c9.3,3.1,18.4,7,27.5,10.6
			c0,8.4,0,16.9,0,25.3C592.4,301.2,581.5,301.2,570.6,301.2z"/>
		<path class="st0" d="M603.2,204.7c-6.4-0.6-12.8-0.9-19.1-1.9c-11.3-1.8-22-0.2-33.2,2.5c-20.7,5-41.4,5-59.6-9.3
			c-4.4-3.5-9.3-6.4-13.5-10.1c-2.9-2.6-5.1-6-7-9.5c13,7.8,26.5,13.6,40.7,17.9c8.1,2.4,15.4,0.6,22.8-2.5
			c6.8-2.9,13.5-2.9,21.4,1.4c-3.3,1-5.5,1.4-7.3,2.2c-2,0.9-3.7,2.3-5.5,3.5c2.2,0.7,4.4,2.1,6.5,1.9c5.8-0.5,11.6-1.2,17.2-2.7
			c12.6-3.4,24.6-1.8,36.5,2.9C603.2,202.3,603.2,203.5,603.2,204.7z"/>
		<path class="st0" d="M387.3,301.2c-7.2-12.8-15.5-24.7-28-33.1c-5.5-3.7-9.8-8.5-11.1-15.1c-0.7-3.8-0.6-7.8-1-12.7
			c8.4,0,15.8-0.4,23.1,0.1c4.5,0.3,5.8,4.4,6.6,8.3c3,13.3,5.9,26.6,9.1,39.8c1,4.3,2.5,8.4,3.7,12.6
			C388.9,301.2,388.1,301.2,387.3,301.2z"/>
		<path class="st0" d="M603.2,139.6c-6,0.1-11.1-2.3-15.8-5.8c-7.1-5.4-15.3-4.8-25-3.8c7.9-10.7,23.1-12.7,24.4-27.6
			c0.7,0.3,1.3,0.6,2,1c0.2,1.1,0.7,2.3,0.4,3.3c-0.5,1.9-1.8,3.6-2.3,5.5c-0.6,2.7-0.8,5.5-1.1,8.3c3-1.2,6.7-1.7,8.7-3.8
			c2.5-2.8,3.6-6.9,5.3-10.5c1.1-2.2,2.3-4.3,3.4-6.4C603.2,113.1,603.2,126.3,603.2,139.6z"/>
		<path class="st0" d="M542.9,301.2c-5-10.6-10-21.2-15.8-33.3c4.7,2.6,8.8,4.3,12.4,6.8c4.9,3.4,8.6,9.2,16.1,6.6
			c0.8-0.3,2.7,1.1,3.3,2.2c3.3,5.8,6.3,11.8,9.4,17.7C559.8,301.2,551.3,301.2,542.9,301.2z"/>
		<path class="st0" d="M144.9,301.2c6.3-7.4,12.5-15,19.1-22.2c5-5.4,7.9-11.5,10.5-18.4c2.5-6.6,8.8-11.7,13.4-17.5
			c1,0.6,1.9,1.2,2.9,1.8c-3.3,7.5-5.3,16.2-10.3,22.4c-8.4,10.2-12.8,21-12.6,34C160.2,301.2,152.6,301.2,144.9,301.2z"/>
		<path class="st0" d="M0.2,236.1c4.4-7.2,9.8-14,12.9-21.7c2.3-5.8,5.4-8.9,11-10.5c2.2-0.6,4.3-1.9,6.6-2.9
			c3.3,10.2,0.4,19.1-8.4,24.7C10,233.5,5,245.1,2.4,258.4c-0.4,1.9-1.4,3.6-2.2,5.4C0.2,254.6,0.2,245.3,0.2,236.1z"/>
		<path class="st0" d="M247.4,301.2c5-9.9,10-19.8,15-29.8c0.6-0.1,1.2-0.1,1.8-0.2c1.6,3.6,3.1,7.4,5,10.9c1.4,2.6,3.2,5.2,5.3,7.2
			c4.4,4.2,9.2,7.9,13.9,11.8C274.8,301.2,261.1,301.2,247.4,301.2z"/>
		<path class="st0" d="M603.2,273.5c-1.5-0.5-3.1-0.8-4.6-1.4c-16.2-7.2-33-11.8-51-11.8c-4.2,0-8.4-2-12.6-4
			c11.5,2,21.2-3.8,31.7-6c7.3-1.5,15.3,0.5,22.9,0.9c0,0.8,0,1.5,0,2.3c-4.9,0-9.7,0-14.6,0c-0.2,0.8-0.4,1.6-0.5,2.4
			c9.6,3.9,19.1,7.7,28.7,11.6C603.2,269.4,603.2,271.5,603.2,273.5z"/>
		<path class="st0" d="M444,301.2c-0.8-2.1-1.3-4.3-2.3-6.2c-4.1-7-3.3-14.4-2-23c2,2.1,3.6,3.5,4.8,5.2c3.7,5.2,8.4,7.9,14.7,10.2
			c5.9,2.1,10.1,9,15.1,13.8C464.1,301.2,454.1,301.2,444,301.2z"/>
		<path class="st0" d="M0.2,142c12.2-10.8,24.4-21.7,37.8-33.6c-5.9,14.7-11.4,28.3-16.9,41.9c-0.6-0.1-1.1-0.3-1.7-0.4
			c0.1-2.4,0.5-4.9,0.2-7.3c-0.1-1.4-1-3.3-2.1-3.8c-0.9-0.4-2.8,0.7-3.9,1.6c-4.6,4-9.1,8.3-13.6,12.4C0.2,149.2,0.2,145.6,0.2,142
			z"/>
		<path class="st0" d="M0.2,219.2c2.9-4,6.9-7.6,8.6-12c4.1-10.7,12.6-15.3,22.3-19.3c0,8.5-2.2,11.9-9.2,14.2
			c-5.3,1.7-8.3,4.8-10.5,10.3c-2.8,7.1-7.4,13.4-11.3,20.1C0.2,228,0.2,223.6,0.2,219.2z"/>
		<path class="st0" d="M200.4,301.2c0.1-5.8,0.2-11.6,0.3-17.4c0.1-4.6,1.2-8.7,6.3-10.3c1.4,9.3,2.8,18.5,4.2,27.7
			C207.6,301.2,204,301.2,200.4,301.2z"/>
		<path class="st0" d="M40,301.2c4.5-7.5,9-15.1,14.1-23.6c3.6,8.5,4,16,0.4,23.6C49.7,301.2,44.8,301.2,40,301.2z"/>
		<path class="st0" d="M0.2,156.5c5.4-4.5,10.9-9,16.2-13.4c1.9,11.4,0.1,14.9-9.8,19.7c-2.2,1-4.3,2.2-6.4,3.3
			C0.2,162.9,0.2,159.7,0.2,156.5z"/>
		<path class="st0" d="M123.2,301.2c1.6-7.5,3.1-15,5-24c7.7,7.2,4.6,16.8,8.3,24C132.1,301.2,127.6,301.2,123.2,301.2z"/>
		<path class="st0" d="M603.2,96.2c-1.8,3.1-4.3,6-5.1,9.4c-1.5,6-3.8,10.7-11.4,12.9c1.1-3,1.8-5.2,2.6-7.3
			c0.9-2.4,2.9-4.9,2.7-7.2c-0.8-8.5,5.3-10.4,11.2-12.6C603.2,93,603.2,94.6,603.2,96.2z"/>
		<path class="st0" d="M603.2,160.1c-4.4-5.3-8.8-10.5-13.2-15.8c0.3-0.5,0.6-1.1,0.9-1.6c4.1,1,8.2,1.9,12.3,2.9
			C603.2,150.5,603.2,155.3,603.2,160.1z"/>
		<path d="M603.2,167.3c-2.6-1.2-5.2-2.4-9.3-4.3c2.7,6.9,5,12.4,7.2,18c-0.5,0.3-0.9,0.6-1.4,1c-2.5-2.3-5-4.6-7.5-7
			c0.2-0.4,0.4-0.8,0.6-1.1c0.9,0.3,1.7,0.6,3.3,1.1c-2.1-5.7-4-10.9-6.4-17.5c5.5,3,9.5,5.3,13.6,7.5
			C603.2,165.7,603.2,166.5,603.2,167.3z"/>
		<path class="st0" d="M189.5,301.2c2.4-4.1,4.8-8.1,7.1-12.2c0.4,0.1,0.9,0.1,1.3,0.2c0,4,0,8,0,12
			C195.2,301.2,192.4,301.2,189.5,301.2z"/>
		<path class="st0" d="M441.1,117.4c5.7-10.7,11.1-21.6,17.4-32c3.5-5.8,6.9-11.1,5.5-18.4c-0.3-1.7,1.8-4.7,3.6-5.9
			c2.6-1.7,6-2.2,8.9-3.5c5.1-2.3,5.4-5.5,1-8.9c-3.1-2.4-6.1-4.9-9.7-7.9c10.8-2,19.5,6.7,16.4,15.6c-2.8,7.9-7,15.3-10.5,23
			c-0.5,1.2-0.9,2.4-0.4,4.7c1.6-1.2,3.5-2.1,4.8-3.6c4-4.7,7.7-9.8,11.7-14.5c5.6-6.5,11.2-13.1,17.2-19.1
			c2.3-2.3,6.1-3.2,10.7-5.4c-3.5,6.5-6,11.2-8.6,15.9c0.7,0.4,1.3,0.9,2,1.3c8.1-3.7,13.9-9.5,16.3-20.5c5,7.8,6.2,15,7.1,22
			c1.5,11.3,4.1,22.1,10.8,31.6c0.9,1.2,1.8,2.5,3.9,5.3c2.2-10.3-3.5-18-3.3-27.5c8.1,12,13.3,24.9,25.8,32.2
			c-4.4-8.9-8.7-17.7-12.4-25.2c5.8,5.1,12.7,11,19.3,17.1c2.6,2.4,6.8,6,6.3,8c-1.3,4.7-4.1,9.9-7.9,13c-6.3,5.1-13.9,8.7-18.5,16
			c-0.6,1-3.7,1.2-5.2,0.8c-8.9-2.7-17.4-4.5-25.7,2.3c-1.6,1.3-5.9,0.3-8.4-0.8c-9.2-4-18.2-8.5-27.3-12.8
			c-3.6-1.7-7.3-3.4-10.9-5.1c-9.5-4.5-18.8-6.6-28.3,0.5c-2.6,1.9-6.3,2.4-9.4,3.5C442.4,118.5,441.7,117.9,441.1,117.4z"/>
		<path class="st0" d="M111.9,161.8c0-0.2-0.1-0.4,0-0.6c6.4-12.6,12.6-25.3,19.3-37.8c0.9-1.7,4.2-3.7,5.5-3.2
			c14.9,5.1,29.7,10.6,44.5,16.1c0,0.6,0,1.3,0,1.9c-3.5,0.9-7,2.1-10.5,2.5c-4.2,0.5-8.4,0.8-12.6,0.5
			c-13.4-0.7-23.2,12.7-25.6,21.1c-0.2,0.7,0.2,1.5,0.3,2.2c0.8,0,1.6,0.2,2,0c10.8-8.6,23.7-12.2,36.7-16
			c15.8-4.6,26.6-15.8,34.6-29.6c4.2-7.2,8.3-13.4,17.3-15.4c2.5-0.6,5.1-4.9,6-8c1.9-6.5,2.4-13.4,4.2-20c0.5-2.1,3.8-5.4,4.6-5
			c3.2,1.2,6.3,3.4,8.7,5.9c0.7,0.8-0.6,4.5-2,5.9c-4.9,5-6.8,11.1-8.6,17.6c-1.2,4.2-3.6,8.3-6.4,11.6c-4.2,5.1-9.3,9.4-13.6,14.4
			c-1.2,1.3-1.1,3.8-1.6,5.7c1.7-0.5,3.6-0.7,5.2-1.5c1.9-0.9,3.6-2.4,5.8-3.9c-0.4,7.7-0.9,14.7-1.4,23.6c2-2.4,3.5-3.6,4.3-5.2
			c4.4-9.2,8.8-18.4,12.9-27.8c1.6-3.8,3.1-8,3.4-12.1c0.8-10.1,9.9-13.7,15.1-20.2c0.3-0.4,3.9,0.8,4.7,2.1
			c0.7,1.1,0.3,3.9-0.7,4.9c-5.5,5.5-9.2,11.9-9.2,19.6c0,2.5,2.2,5,3.3,7.5c2.1-1.6,4.7-2.8,6.1-4.8c1.5-2.2,2.1-5.2,2.9-7.9
			c1.7-5.9,4-7.5,9.6-4.9c6.7,3.1,13,7,19.3,10.8c2.9,1.7,5.4,4,9.4,7.2c-11.1,3.4-21,6.9-31.1,9.3c-6.6,1.6-12.1,3.6-15.1,10.3
			c-1,2.3-3.3,4-4.8,6.1c-5.1,7.1-10.7,14-15.1,21.5c-4.7,8-10.4,11-18.7,6.4c-8.2-4.5-15.9-10-23.4-15.7c-4-3.1-6.8-3.5-10.5-0.1
			c-6.5,6-13.3,11.6-19.7,17.7c-13.9,13.2-22.4,14.1-38.7-0.7c-1.5-1.3-2.5-3.2-4.1-4.4c-3.6-3.1-7.4-5.9-11.1-8.9
			C112.6,161,112.3,161.4,111.9,161.8z"/>
		<path class="st0" d="M84.5,208.2c-10.6-9.4-21.5-18.6-31.8-28.3c-3.7-3.5-9.7-6.5-6.4-13.9c3.4-7.7,7.1-14.4,17.2-14
			c4.2,0.2,8.4-1,12.6-0.8c6.5,0.3,11.3,3.6,14.2,9.6c1.1,2.4,2.5,4.6,3.6,7c3.2,7,9.3,8.4,16.1,8c4.5-0.3,7.7,1.5,11.5,3.7
			c5.6,3.3,12.1,5,18.4,6.9c7.9,2.3,8.9,2.6,7.4,10.7c-2,11.2,1.1,21,5.8,30.7c0.7,1.3,1.3,3.2,0.9,4.4c-5.1,15.3-12.4,29.2-26,38.9
			c-0.3,0.2-0.8,0.2-2.1,0.4c-1.5-6.7-3.7-13.3-4.5-20.2c-2.3-18.1-11.7-30.8-28-38.6c-3.1-1.5-6-3.2-9-4.8
			C84.3,208,84.5,208.2,84.5,208.2z"/>
		<path class="st0" d="M384.8,204.2c2.9-10,13.6-11,20-16.9c-2.9-4.7-7-3.5-10.4-2.7c-6.4,1.6-12.6,4.1-18.9,6.1
			c-4,1.2-8.1,2.7-12.2,3c-8.3,0.8-12.8-2.9-14.4-11c-0.5-2.7-0.9-5.5-1.5-9.3c4.5,0.5,8.6,0.4,12.2,1.5c5,1.6,8.2-0.2,12-3.2
			c5.1-4,10.4-8.3,16.3-10.7c12.5-5.1,24.9-10,34.7-19.9c1.6-1.7,3.9-2.7,7-4.6c-2.8,10.9-8.5,20.4-4.1,32.2c5-3.9,6.7-8.9,7.5-14.4
			c1.7-12,4.1-17.5,11.7-26.8c12.1,6.1,24.2,12.2,36.9,18.6c-6.8,5.8-8.8,13.9-8.5,23c-8,0.2-13.4,5-17.2,10.3
			c-8.9,12.8-21.8,19.7-34.7,27.2c-6.4,3.7-11.8,5.9-19.2,1.8C397.2,205.8,390.9,205.6,384.8,204.2z"/>
		<path class="st0" d="M56.6,108.4c3.5-0.5,7-1.1,10.6-1.5c1.2-0.1,3.4,0.5,3.5,1c0.1,1.4-0.2,3.2-1.1,4.2c-1.9,2.1-4.1,3.9-6.4,5.5
			c-4.7,3.3-6.1,7.6-4.2,14.1C80,120,92.6,100.1,110.3,84.9c-3.6,12.7-7.1,25.5-10.7,38.2c0.3,0.2,0.6,0.3,1,0.5
			c0.9-0.9,1.9-1.8,2.6-2.8c12.1-17.2,21.9-35.5,26.8-56.1c0.6-2.3,1.1-4.7,2-6.9c2.1-4.6,4.2-9.8,10.4-9
			c6.6,0.9,10.7,6.6,10.9,13.1c0.5,11.2,1.1,22.3,1.8,33.5c0.1,1.2,0.4,2.4,0.5,3.6c0.3,3.5,2.3,8.6,0.7,10.3
			c-4.5,4.7-9.4,10.2-17.4,8c-5.1-1.4-9.4,0.2-13.2,3.7c-2.4,2.1-5.5,3.4-7.7,5.7c-2.6,2.8-5.5,5.9-6.7,9.4
			c-3.4,9.4-10.7,15.4-18.5,13.5c-3.2-0.8-6.4-2.6-8.9-4.8c-6-5.1-11.5-4.8-17.9-0.6c-6.3,4.2-10,2.9-13.6-4
			c-0.8-1.6-1.2-3.9-0.8-5.7c1.4-5.2,3.7-10.2,4.9-15.4C57.2,115.8,56.6,112.2,56.6,108.4z"/>
		<path class="st0" d="M397.6,85.3c7-1.5,2.5-12.3,12.1-11.9c-3.7,6.4-6.9,12.3-10.5,18c-0.7,1.1-3.4,1.8-4.8,1.4
			c-5.1-1.6-10.6-2.9-14.9-5.8c-4-2.7-6.9-7.1-9.8-11.1c-3.8-5.4-10.1-8.2-17.3-6.7c0.7,10.4-5,16.6-14.4,19.3
			c-10.6,3-15.2,11.7-20.4,20.1c-4.2,6.9-7.3,8.3-14.1,4.3c-12.6-7.3-17.2-12.9-11.4-25.9c2.6-5.8,4.9-11.9,6.3-18.1
			c1.2-5.1,0.8-10.6,1.2-16c0.4-5.9,0.5-11.8,1.6-17.5c1-5.1,3.2-10,5.1-15.7c9.3,6.6,19.1,13.8,27.3,23.2c0.5,0.5,0.7,1.5,0.7,2.2
			c0,10-0.2,20.1-0.2,30.1c0,0.6,0.3,1.1,0.7,2.6c1.2-1.4,2.3-2.1,2.6-3.2c1.5-4.8,3.1-9.6,4-14.5c2-11,1.9-11,11.4-21.9
			C362.9,59,380.5,72.2,397.6,85.3z"/>
		<path class="st0" d="M352.6,170.7c2.7-8.9,5.1-17.7,8.2-26.3c1.2-3.5,3.3-7.1,5.9-9.6c19.8-19.2,39.9-38.3,59.9-57.3
			c3.6-3.4,7.6-6.3,3.2-12c-0.7-0.9-0.1-3.2,0.6-4.5c5.4-10.8,14.9-17.7,24.3-24.6c0.6-0.5,4.5,1.6,4.4,2.4
			c-0.2,3.5-0.5,7.4-2.2,10.2C450.1,59.7,446.6,71,445,83.4c-1.6,12.1-4.8,23.9-7.5,35.8c-0.3,1.5-2,3-3.5,3.8
			c-4.4,2.4-8.9,4.5-13.4,6.8c-3.8,1.9-8,3.3-11.1,5.9c-13.8,11.4-30.6,19.3-40.9,35c-1,1.5-4.2,2.5-6.2,2.3
			C358.8,172.7,355.3,171.4,352.6,170.7z"/>
		<path class="st0" d="M366,212.8c-9.6,5.2-19.2,10.3-28.8,15.5c-0.7,0.4-1.7,0.4-2.2,0.9c-7.9,7.3-15,2.6-22-1.5
			c-1.9-1.1-3.4-3.2-4.6-5.2c-3.6-6.2-7.8-10.9-14.1-15.3c-8.6-6-15.9-4.7-24.7-3.1c-5.5,1-11.5-1-17.2-1c-10.3,0-20.7,0.5-31.3,0.3
			c5.7-1.5,11.4-3.4,17.2-4.3c11.9-1.9,23.9-3,35.8-4.8c5.5-0.8,11.3-1.8,16.3-4.2c5.1-2.4,9.7-6.2,13.7-10.1c4-3.9,6.7-9,10.4-13.3
			c6.2-7.3,11.8-6.1,15,3.1c2,5.9,4,11.8,5.5,17.8c2.6,10.6,10,16,19.6,19.3c3.6,1.2,7.2,2.2,10.8,3.3
			C365.4,211,365.7,211.9,366,212.8z"/>
		<path class="st0" d="M367.1,78.5c6.7,9.2,12.6,18.1,25.5,18.2c0,0.7,0,1.3,0.1,2c-7.9,9.8-15.5,19.7-23.6,29.2
			c-4.7,5.5-11.7,4.9-17.3,2.7c-3.5-1.4-5.8-1.1-8.8-0.1c-10.7,3.7-21.6,6.2-33.8,2c1.6-1.9,2.7-3.7,4.2-5.1
			c11-10.6,22.5-20.6,37.5-25.4c2.5-0.8,4.8-2,7.2-3c8-3.4,8.4-4.1,5.8-12.7C362.7,82.7,362.8,79.9,367.1,78.5z"/>
		<path class="st0" d="M84.2,234.4c0,8.4-4.5,14-9.9,18.8c-5.2,4.6-11.1,8.3-17.2,12.7c-0.2-1.5-0.6-2.9-0.7-4.3
			c-1-13.3-4.4-25.9-10.1-38.1c-5.8-12.5-8.9-25.8-6.3-39.8c0.5-2.5,1-4.9,1.7-8c8.1,6.8,11.4,15.6,15.3,24.1
			c3.7,8,7.5,15.9,11.6,23.7C72,229.5,76.3,234.4,84.2,234.4z"/>
		<path class="st0" d="M256.4,180.5c10.1-8.2,19.8-18.5,31.6-25.1c11.7-6.5,24.6-13.4,39.4-8.8c4.2,1.3,7.9,0.1,10.6-3.7
			c0.9-1.3,2.1-2.4,3.2-3.6c6.4-7.3,8.9-7.9,19.1-4.2c-4.4,11.6-8.8,23.2-13,34.4c-8.6-4.4-15.7-8-22.9-11.5
			c-1.3-0.6-3.1-0.8-4.5-0.5c-5.9,1.2-11.7,2.9-17.6,4.1c-10.2,2-18.5,6.7-24,15.6c-2.7,4.3-6.8,5.4-11.5,4.9
			C262.9,181.6,259,180.9,256.4,180.5z"/>
		<path class="st0" d="M428.1,259.6c0.7,6.7,1.4,13.5,2.2,21.4c-2.2-2.1-4.3-3.6-5.6-5.5c-7.7-11-16.9-20.4-28.4-27.4
			c-1.9-1.1-3.5-2.7-5.1-4.2c-7.3-6.9-7-11.3,2.1-16c5.6-2.9,12-4.1,18-6.3c2.6-0.9,5-2.2,7.5-3.4c4.2-2.1,8.3-4.3,12.4-6.5
			c0.3,0.4,0.6,0.8,0.9,1.2c-2.7,7.6-7.1,15.1-7.7,22.9c-0.7,7.9,2.4,16.1,3.8,24.2L428.1,259.6z"/>
		<path class="st0" d="M206.4,100.9c-7.3,7.6-14.8,15.7-22.8,23.3c-1.7,1.6-5.7,1.9-8.2,1.3c-8.3-2-16.4-4.7-24.7-7.1
			c0.4-0.7,0.6-1.5,1-1.7c10.9-5.7,11.2-15.9,11.3-26.2c0.1-4.9,0-9.8,1.3-15.5c2.5,3.6,4.8,7.4,7.7,10.6c1.4,1.6,3.8,2.9,6,3.2
			c0.7,0.1,2-3,2.5-3.9C188.4,89.9,196.7,95,206.4,100.9z"/>
		<path class="st0" d="M239.4,183.9c0.3-4.1-0.6-8.5,1.2-11.3c3.7-5.7,8.5-10.7,13.5-15.4c1.8-1.7,5.4-1.5,7.8-2.8
			c3.8-2,8.4-3.7,10.7-7c10.2-14.2,25.6-20.5,39.9-28.5c0.5,0.5,1,0.9,1.5,1.4c-3.3,4.3-5.7,10-10,12.5c-8.7,5-13.1,13.4-19.2,20.3
			C272,167.4,255.9,176.6,239.4,183.9z"/>
		<path class="st0" d="M84.3,208c4.2,3,8.2,6.2,12.5,8.9c11.2,6.9,18.5,16.4,20.5,29.6c0.7,4.7,1.8,9.3,2.8,14.5
			c-7-3.5-12-12.1-10.9-19.1c0.7-4.4-0.9-6.8-4-9.1c-6.2-4.6-12.2-9.4-18.4-14.1c-0.7-0.5-1.8-0.5-3.3-0.8c0.3,3.5,0.6,6.5,0.8,9.6
			c0.2,4.5-2.5,5.4-5.8,3.7c-2.4-1.2-4.8-3.2-6.1-5.5c-4.2-7.5-8.1-15.2-11.8-22.9c-3-6.2-5.6-12.6-7.7-19.5
			c6.5,5.8,12.9,11.9,19.6,17.4c3.6,3,7.9,5.1,12,7.6C84.5,208.2,84.3,208,84.3,208z"/>
		<path class="st0" d="M312.8,163c-8.5,17.1-21.7,27.4-41.2,29.4c-19.4,2-39.2,2.6-58.4,11.4c5.2-12.8,13.4-21,24.9-26.5
			c-4.1,5.4-8.1,10.8-13,17.3c2.6,0,4,0.4,5-0.1c5.4-2.2,11-4,15.9-7c5.9-3.6,11.7-4.8,18.4-3.4c6.8,1.4,12.3,0,16.8-6.1
			C288.6,168.1,299.5,163.3,312.8,163z"/>
		<path class="st0" d="M550.7,134.4c-8.2,1.2-10.4,4.8-7.2,12c-5.5-0.7-9.9-1.4-14.4-1.9c-8.5-1-10.1,0.6-9,9.1
			c0.4,3.3,1.1,6.6,1.7,9.9c-0.6,0.5-1.2,0.9-1.9,1.4c-2.3-2.3-5.4-4.2-6.6-6.9c-6.4-14.8-19.5-23.6-30.3-34.5
			c-6.2-6.3-14.4-5.1-22.2-4c-3.7,0.5-7.5,1.3-11.7,2.1c7.8-7.8,15.6-10.1,24.8-6.3c11.8,4.9,23.4,10.6,35,15.9
			c3.6,1.7,7.3,3.3,10.9,5c4.2,1.9,7.9,1.7,11.7-1.4C536.9,130.3,543,131,550.7,134.4z"/>
		<path class="st0" d="M329.7,163.8c8.9,2.3,15.4,6.5,16.2,15.8c1.7,18,13.8,20.4,28.2,15.1c6.8-2.5,13.6-4.8,20.4-7.1
			c1-0.3,2.2-0.2,3.6,0.2c-7.3,5-15.6,8.8-17.5,19.2c7.9,1.4,16,2.7,24.2,4.1c0,0.9-0.1,1.7-0.1,2.6c-3,0.3-6.1,1.5-8.9,0.9
			c-15.2-3.6-30.4-7.1-45.2-11.8c-6.8-2.1-11.4-7.7-13.4-15.2C335.1,179.8,332.4,172.2,329.7,163.8z"/>
		<path class="st0" d="M111.4,80c-17.3,15.4-30.3,34.6-50.1,48c-0.9-6.4,3.4-8.4,6.5-11.1c3.5-3.1,7.6-5.7,5.8-9.8
			c11.6-11.5,22.7-22.4,33.9-33.2c1.4-1.3,3.8-1.6,5-2.1c5.7-6.4,11.3-12.5,16.8-18.7c0.5,0.4,0.9,0.8,1.4,1.2
			c-4.6,20.8-11.6,40.7-25.3,59C105.6,101.2,113,91.4,111.4,80z"/>
		<path class="st0" d="M260.3,74.9C277,56.9,291,38.1,300,15c3,5.3,3.7,10,1,14.8c-4.3,7.9-5.7,15.9-3.4,24.9
			c1,4.1-0.4,8.9-0.7,13.3c-1.6,0-2.1,0.2-2.3,0c-3.5-3.6-7.2-6.7-12.6-4.4c-5.4,2.3-8.5,6.3-9.4,12.3c-0.4,2.8-1.9,5.4-3.3,9
			C265.8,81,263.2,78.1,260.3,74.9z"/>
		<path class="st0" d="M462.9,37.1c4.2,4.6,9.4,10.1,15.3,16.4c-3.4,1.4-6.6,2.8-9.8,4.1c-5.1,2.1-8.6,4.7-6.8,11.3
			c0.7,2.6,0.1,6.3-1.2,8.7c-6.2,11.4-12.9,22.5-20,34.7c0.6-3,0.9-5.1,1.4-7.2c0.5-2.2,1.1-4.3,1.6-6.4c1.6-7,2.8-14.2,5-21.1
			c2.7-8.7,6.3-17.2,9.5-25.8C459.6,47,461.2,42.1,462.9,37.1z"/>
		<path class="st0" d="M323.1,236c-10.5,11.7-22.4,19.3-35.4,25.4c-0.6-0.3-1.2-0.6-1.9-0.9c5.4-14.3,10.8-28.6,16.6-43.8
			C305.6,226.2,312.9,232.3,323.1,236z"/>
		<path class="st0" d="M34.9,195.3c4.4,12.7,9.7,25.6,13.4,39c3,10.7,4.2,21.9,5.9,33c0.3,1.6-0.5,3.4-2.1,5.3
			c-0.9-3.3-1.7-6.6-2.7-9.8c-3.1-9.7-6.2-19.4-9.3-29.1c-1.6-4.8-5.1-4.5-8.7-2.7c-7.1,3.6-9.6,8.7-8.9,16.8c0.2,2.6,0.7,5.3,0,7.7
			c-0.5,1.7-2.6,3-4,4.5c-0.9-1.8-2.7-3.5-2.7-5.3c0.1-3.1,0.6-6.6,2.1-9.3c3.7-6.6,7.3-13.5,12.2-19.1c4-4.4,4.9-8.8,4.7-14.1
			C34.7,206.2,34.9,200.2,34.9,195.3z"/>
		<path class="st0" d="M365.9,238.3c-4.9,0-9.9,0.3-14.8-0.1c-7.6-0.5-8.4,0.2-7.5,7.7c0.2,1.4,0,2.7,0,6.2c-3-2.3-5.6-3.4-6.7-5.3
			c-2.4-4.3-5.4-4.4-9-2.3c-5.3,3.2-10.2,7-15.6,10.1c-7.9,4.5-16.2,8.5-24.3,12.6c-0.8,0.4-2,0.4-3,0.4c-0.5,0-1-0.4-2.2-0.8
			c1.4-1.1,2.3-2.1,3.5-2.6c13.2-5.4,24-14.1,34.8-23.4c5.6-4.8,12.8-7.9,19.4-11.6c1.1-0.6,2.9-1,4.1-0.5
			c7.1,2.8,14.2,5.9,21.2,8.8C365.9,237.8,365.9,238,365.9,238.3z"/>
		<path class="st0" d="M347,226.8c17.4-6,32.2-15.9,51-7.2c-8.8,6-13.7,17.4-25.8,15.9C364.2,234.5,355.6,233,347,226.8z"/>
		<path class="st0" d="M389.5,109.7c7-11,13.7-21.3,20.1-31.6c1.3-2,1.6-4.6,2.4-7c-1.3-0.2-2.9-1.1-3.8-0.6
			c-2.6,1.4-5.1,3.1-7.4,5.1c-0.7,0.6-0.4,2.2-0.7,3.6c-3.7-1.9-4.5-3.9-1.1-6.2c3.9-2.7,8-5.4,12-7.9c7.5-4.7,15.1-9.4,23.7-14.8
			c-2.2,3.4-4,5.7-5.2,8.3c-1.1,2.5-2.8,6-1.8,7.8c2.8,5.1-0.3,7.3-3.2,10C413.1,87.1,401.7,98,389.5,109.7z"/>
		<path class="st0" d="M286,99.6c-3.8-3.2-8.9-7.6-14-12c-0.5-0.4-0.9-1.6-0.7-2.1c1.9-5.2,3.4-10.7,6.1-15.4
			c2.2-3.8,6.3-6.4,11.3-4c5.2,2.5,5.5,6.9,4.1,11.8C290.5,85.6,288,93.3,286,99.6z"/>
		<path class="st0" d="M210.5,207.5c14.5-0.6,29-1.3,43.5-1.9c7.5-0.3,15-0.5,22.5-0.7c0.4,0,0.8-0.1,1.2-0.3
			c5.2-1.7,9.3-0.1,14,5.8c-13.5,0.7-25.7,1.8-37.9,1.7c-12.4,0-24.7-1.3-38.6-2c1.4,4.6,2.7,8.5,3.9,12.4c-0.4,0.3-0.9,0.6-1.3,0.9
			c-3-4.5-5.9-9-8.9-13.5C209.4,209.2,209.9,208.4,210.5,207.5z"/>
		<path class="st0" d="M404.8,218.7c15.1-8.9,30.3-17.8,45.3-26.6c-4,13.9-6.8,29-22.3,37.6c2.1-4.6,4.3-9.2,6.1-13.9
			c0.7-1.7,0.4-3.7,0.5-5.6c-1.9,0.1-3.9-0.3-5.6,0.4c-4.2,1.8-8,4.4-12.2,6.1c-3.6,1.4-7.6,2-11.4,2.9c-0.1,0-0.4-0.1-0.5-0.3
			C404.7,219.2,404.8,218.9,404.8,218.7z"/>
		<path class="st0" d="M64.2,149.3c9-7.5,10.9-8,18.6-2.5c6.8,4.8,13.1,10.5,19.2,16.2c3.2,3,5.7,4.9,10.5,3.2
			c2.2-0.8,6.1,0.9,8.2,2.7c4.7,4,8.7,8.8,12.5,14.4c-3.8-2-7.5-4.1-11.5-5.8c-3.7-1.6-7.6-3.8-11.4-3.8c-7.8,0-13.2-2.1-16.6-9.9
			c-5.6-13-11.6-16.1-25.6-14.6C67.3,149.2,66.3,149.2,64.2,149.3z"/>
		<path class="st0" d="M428.2,259.8c0-4.7,0-9.5,0-13.2c11.3,12.3,22.9,25,34.5,37.7c-0.1,0.5-0.3,0.9-0.4,1.4
			c-4.3-2.1-9.1-3.6-12.8-6.5c-3.9-3.1-6.7-7.5-10-11.3c-0.7,0.3-1.4,0.5-2.1,0.8c-0.4,4.7-0.7,9.4-1.1,14.1
			c-0.8,0.1-1.5,0.3-2.3,0.4c-2-7.8-3.9-15.7-5.9-23.6C428.1,259.6,428.2,259.8,428.2,259.8z"/>
		<path class="st0" d="M226.8,136.7c0.9-4.9,1.9-9.9,3.1-16.5c-4.6,3-7.8,5.2-11.1,7.3c-0.3-0.3-0.7-0.7-1-1
			c4.2-4.1,8.3-8.5,12.8-12.4c4.3-3.8,7.2-7.6,8.4-13.8c1.1-5.9,5.3-11.3,8.3-16.8c1.1-2.1,2.7-3.9,4.4-6.2c1.7,1.3,3.5,2.6,5.8,4.3
			c-1.6,2.1-2.5,4.2-4.2,5.5c-7.5,5.7-10.2,13.4-12.4,22.3c-2.5,9.6-8.3,18.4-12.6,27.6C227.8,136.9,227.3,136.8,226.8,136.7z"/>
		<path class="st0" d="M522.5,39.5c-12.5-0.8-19,6.8-25.4,13.5c-6.6,6.9-11.9,14.9-18.8,22.1c0.7-1.6,1.3-3.3,2-4.8
			c1.2-2.5,3.3-4.9,3.7-7.5c1.9-13.9,12.4-19.1,23.5-23.8c3.9-1.7,7.6-3.5,11.5-5.3c4.8-2.1,6-1.2,5.9,4.2c-0.1,7-4,12.7-12.9,16.9
			c2.2-3.4,3.5-5.7,5-7.9C518.5,44.8,520.1,42.8,522.5,39.5z"/>
		<path class="st0" d="M189.8,133.3c2-7.6,5.9-14.3,11.5-20.1c4.6-4.7,9.5-9.2,14.2-13.8c1.1-1.1,2.4-2.2,3.2-3.5
			c2-3.2,1.1-4.8-4.1-3.9c5.4-5,9.9-9.2,15.8-14.7c-1.1,7.3-1.3,12.9-2.9,18.1c-0.8,2.6-3.7,5.9-6.1,6.4
			c-8.2,1.7-12.3,7.2-16.2,13.9c-3.8,6.7-8.7,12.7-13.1,19C191.4,134.3,190.6,133.8,189.8,133.3z"/>
		<path class="st0" d="M541.6,65.3c1.9,7.8,3.8,15.6,5.7,23.8c-6.8-5.6-12.8-25.1-12.8-40.6c15.1,11.1,22.7,27.2,29.4,43.9
			c-0.4,0.3-0.8,0.6-1.3,0.9c-6.1-9.8-12.2-19.5-18.3-29.3C543.5,64.4,542.5,64.8,541.6,65.3z"/>
		<path class="st0" d="M284.7,129.8c-5.2,6.1-10,12.4-15.6,17.8c-2.8,2.7-7.1,4.1-11,5.6c-3.1,1.3-6.4,1.9-11,3.3
			c2.7-3.1,4.5-5.3,6.4-7.4c2-2.2,4.9-4,6.1-6.6C264.7,131.2,274.8,130.7,284.7,129.8z"/>
		<path class="st0" d="M107.3,164.9c-4-4.2-7-7.4-10.8-11.3c9.9-1.3,14.1-8,16.6-15.1c2.5-6.9,7-10.9,14.4-15.1
			C120.5,137.8,114.2,150.8,107.3,164.9z"/>
		<path class="st0" d="M436.3,126.7c-16.2,12.1-30.2,27.8-52.7,31.8C400.3,145.5,415.8,132.3,436.3,126.7z"/>
		<path class="st0" d="M152.6,220.4c-4.7-7.6-4.4-15.7-2.4-23.3c10.5,9.7,21.3,19.7,32.1,29.6c-0.4,0.6-0.8,1.2-1.2,1.8
			c-6.3-3.6-12.6-7.2-18.9-10.9c-2.3-1.3-4.5-2.8-6.7-4.3C154.6,215.6,153.6,217.9,152.6,220.4z"/>
		<path class="st0" d="M299,217.6c-1.9,5.5-3.6,11-5.6,16.4c-2.7,7.1-5.9,14-8.3,21.2c-2.6,7.7-5.5,9.6-14.9,8
			c3.2-5.9,5.7-12.1,9.7-17.2c7-9,14.3-17.7,16.9-29.3C297.5,217.1,298.3,217.3,299,217.6z"/>
		<path class="st0" d="M56.1,148.1c-3.6,4.2-7,8-11.1,12.7c-0.8-18.1-4-35.5,9.2-50.6c0,2.4,0.5,5-0.1,7.2
			c-1.4,5.2-3.8,10.2-4.7,15.4c-0.5,3.1,0.7,6.8,2,9.9C52.1,144.8,54.4,146.3,56.1,148.1z"/>
		<path class="st0" d="M158.7,99.1c-1.1-13.4-2.2-26.7-3.3-40.9c9.4,4.6,20.4,19.3,21.9,29.4c-2.2-2-3.6-3.1-4.7-4.4
			c-1.9-2.4-3.2-5.1-5.3-7.3c-1.4-1.4-3.5-2.2-5.3-3.2c-0.7,1.9-2.1,3.9-2.1,5.8c0,6,0.5,12,0.7,18c0,0.9-0.4,1.8-0.6,2.8
			C159.6,99.1,159.1,99.1,158.7,99.1z"/>
		<path class="st0" d="M295.2,148.4c5.8-7,10.6-14.2,22-11.7c7.2,1.6,15.4-0.7,22.8-1.2c-3.9,8.1-7.3,10.1-15.9,7.9
			c-7.5-1.9-14.3,0-21.1,2.5C300.4,146.7,297.8,147.5,295.2,148.4z"/>
		<path class="st0" d="M161.2,182.5c4.2-4,7-6.7,10-9.3c3.4-3,7-5.8,10.9-9c-2.5,11.2-4.8,21.8-7.1,32.5c-0.6,0-1.2,0.1-1.9,0.1
			c-0.9-3.3-2.9-6.8-2.4-9.8c0.9-4.6-0.3-5.5-4.3-4.8C165.3,182.4,164.1,182.4,161.2,182.5z"/>
		<path class="st0" d="M488.8,148.1c6.8,8.6,13.6,17.1,20.5,25.7c-13.6-2.2-23.9-9-22.2-24.5C487.6,148.9,488.2,148.5,488.8,148.1z"
			/>
		<path class="st0" d="M209.8,280.9c0-4,0-7.9,0-13c-2.8,2.1-4.4,3.4-7.5,5.7c4.3-14.6,15.8-22.1,22.1-33.1c0.6,0.3,1.3,0.7,1.9,1
			c-1.6,3.5-2.4,7.7-4.9,10.3c-5.6,5.8-7.4,12.6-8.1,20.2c-0.3,3.1-1.3,6.1-1.9,9.1C210.9,281.1,210.3,281,209.8,280.9z"/>
		<path class="st0" d="M269.8,88.3c3.8,3.5,7.2,6.7,10.6,9.9c-0.4,0.4-0.7,0.8-1.1,1.3c-1.1-0.3-2.3-0.6-3.4-0.8
			c-7.8-1.6-9.3-0.6-11.6,7.1c-1.2,3.8-3.1,7.3-5.6,10.7c-3.9-5.5-2-10.6,0.7-15.1C262,97,265.7,93.3,269.8,88.3z"/>
		<path class="st0" d="M136.9,157.9c5.3-7.3,10.5-14,20.5-14.1c6.5-0.1,13.1-0.5,19.8-0.1C164,148.4,150.8,153,136.9,157.9z"/>
		<path class="st0" d="M533,289.5c-1.5-3-2.8-6.1-4.6-8.9c-1-1.5-2.7-2.6-4.1-3.9c-1.2,1.5-2.6,2.8-3.4,4.4c-0.8,1.5-1,3.3-2.2,4.9
			c-3.6-10.4,2.9-19.5,3.1-31c4.6,4.6,7.9,8,12,12.1c-4.4-0.3-7.7-0.6-11.9-0.9c4.8,8.2,9,15.2,13.1,22.2
			C534.3,288.7,533.6,289.1,533,289.5z"/>
		<path class="st0" d="M249.9,288c1.1-19,14.2-30.1,24.9-42.7c0.5,0.3,1.1,0.6,1.6,1C267.7,259.9,259.1,273.6,249.9,288z"/>
		<path class="st0" d="M191.5,123.4c-1.8,3.9-3.6,7.8-5.4,11.7c-11.7-4.1-22.9-8.1-34-12c0.1-0.5,0.3-1,0.4-1.5
			c2.5,0.5,5,0.9,7.4,1.7c2.9,0.9,5.8,1.7,8.5,3c8.3,4,15.7,3.3,22.3-4.1C190.9,122.6,191.2,123,191.5,123.4z"/>
		<path class="st0" d="M336.5,61.6c0-5.8-0.8-11.8,0.2-17.5c1.2-7.3,3.5-8.1,12.6-6.6c-3.1,3.8-6.8,6.9-8.4,10.8
			c-1.7,4.1-1.4,9-2,13.5C338.1,61.7,337.3,61.7,336.5,61.6z"/>
		<path class="st0" d="M587.3,138.7c-7.7-1.1-15.3-2.2-24.3-3.6C571.2,130,579.8,131.2,587.3,138.7z"/>
		<path class="st0" d="M215.5,190.4c1.7-3.9,3.7-8.6,6-13.7c2.8,0.1,5.9,0.3,8.9,0.4c-0.5-0.3-0.9-0.7-1.4-1
			C224.4,181,219.9,185.8,215.5,190.4z"/>
		<path class="st0" d="M425.3,161.2c2-7,4-14.1,6.1-21.1c0.5,0.1,1.1,0.3,1.6,0.4c-1.5,7.2-2.9,14.4-4.4,21.5
			C427.5,161.8,426.4,161.5,425.3,161.2z"/>
	</g>
</g>
<g>
	<g>
		<path class="st0" d="M133.8,94.5c0,3,1.4,6,4.8,3.9c3-1.9,3.7-6.4,4.1-9.6c0.4-3.6,1.5-16-4-16.9c-3-0.5-4.4,3.2-5,5.4
			c-1.2,4.5-2.3,9.9-2.4,14.5c-0.1,2.9,0.8,7.2,4.6,5.5c4.2-1.9,5-8,5.1-11.9c0-1.9-3-1.9-3,0c0,1.5-0.8,9.8-3.6,9
			c-1.3-0.4,0.9-8.6,1.2-10.1c0.3-1.6,1.2-10.8,3.3-8.4c1.6,1.9,1,7.6,1,10c0,1.3-0.1,2.6-0.3,3.9c-0.2,1.3-2.7,7.4-2.7,4.8
			C136.8,92.6,133.8,92.6,133.8,94.5L133.8,94.5z"/>
	</g>
</g>
<g>
	<g>
		<path class="st0" d="M137.1,87c-0.2,1.9-2.4,3.3-3.3,4.9c-1.1,1.9-1.8,4-3,6c-1.6,2.8-3.7,5.9-2.7,9.2c0.3,1.2,2.1,1.5,2.7,0.4
			c4.2-7.1,7.2-13.7,9.4-21.8c2.1-7.6,4.6-15.8,4.9-23.7c0.1-1.9-2.9-1.9-3,0c-0.3,7.6-2.7,15.6-4.8,22.9
			c-2.1,7.7-5.1,14.2-9.1,21.1c0.9,0.1,1.8,0.2,2.7,0.4c-0.9-3.2,3.4-8.7,4.8-11.6c1.4-2.9,4-4.4,4.3-7.7
			C140.3,85.1,137.3,85.1,137.1,87L137.1,87z"/>
	</g>
</g>
</svg>
